<svg id="SvgjsSvg2376" width="360" height="360" xmlns="http://www.w3.org/2000/svg" version="1.1" xmlns:xlink="http://www.w3.org/1999/xlink" xmlns:svgjs="http://svgjs.com/svgjs"><defs id="SvgjsDefs2377"></defs><g id="SvgjsG2378" transform="matrix(1,0,0,1,0,0)"><svg xmlns="http://www.w3.org/2000/svg" xmlns:xlink="http://www.w3.org/1999/xlink" viewBox="0 0 800 600" width="360" height="360"><defs><linearGradient id="ap" x1="726.43" x2="744.01" y1="385.23" y2="385.23" gradientTransform="matrix(-1 0 0 1 1067.48 0)" gradientUnits="userSpaceOnUse"><stop offset="0" stop-color="#7941aa" class="stopColor4141aa svgShape"></stop><stop offset=".4" stop-color="#9a5fce" class="stopColor5f5fce svgShape"></stop><stop offset=".78" stop-color="#ea76cb" class="stopColor7676ea svgShape"></stop><stop offset="1" stop-color="#f47fd4" class="stopColor7f7ff4 svgShape"></stop></linearGradient><linearGradient id="a" x1="279.6" x2="279.6" y1="323.03" y2="123.53" gradientUnits="userSpaceOnUse"><stop offset=".25" stop-color="#ffffff" class="stopColorfff svgShape"></stop><stop offset=".53" stop-color="#fcf8f9" class="stopColorf8f9fc svgShape"></stop><stop offset=".93" stop-color="#f5e5eb" class="stopColore5e8f5 svgShape"></stop><stop offset="1" stop-color="#f4e1e8" class="stopColore1e5f4 svgShape"></stop></linearGradient><linearGradient id="v" x1="533.82" x2="533.82" y1="200.1" y2="62.82" xlink:href="#a"></linearGradient><linearGradient id="w" x1="491.67" x2="491.67" y1="200.1" y2="62.82" xlink:href="#b"></linearGradient><linearGradient id="x" x1="640.62" x2="640.62" y1="340.68" y2="128.66" xlink:href="#a"></linearGradient><linearGradient id="y" x1="568.67" x2="568.67" y1="340.68" y2="128.66" xlink:href="#b"></linearGradient><linearGradient id="z" x1="106.44" x2="143.97" y1="405.02" y2="405.02" gradientUnits="userSpaceOnUse"><stop offset=".37" stop-color="#e3c6d0" class="stopColorc6cae3 svgShape"></stop><stop offset="1" stop-color="#ffffff" class="stopColorfff svgShape"></stop></linearGradient><linearGradient id="A" x1="98.6" x2="135.35" y1="407.95" y2="407.95" gradientUnits="userSpaceOnUse"><stop offset="0" stop-color="#ed5a8f" class="stopColored995a svgShape"></stop><stop offset="1" stop-color="#ba3897" class="stopColorba6038 svgShape"></stop></linearGradient><linearGradient id="g" x1="102.05" x2="131.9" y1="395.97" y2="395.97" gradientUnits="userSpaceOnUse"><stop offset="0" stop-color="#ba3897" class="stopColorba6038 svgShape"></stop><stop offset="1" stop-color="#ed5a8f" class="stopColored995a svgShape"></stop></linearGradient><linearGradient id="B" x1="111.3" x2="119.37" y1="403.76" y2="403.76" gradientUnits="userSpaceOnUse"><stop offset="0" stop-color="#d6477b" class="stopColord67747 svgShape"></stop><stop offset="1" stop-color="#ba3897" class="stopColorba6038 svgShape"></stop></linearGradient><linearGradient id="C" x1="117" x2="122.57" y1="397.86" y2="397.86" gradientUnits="userSpaceOnUse"><stop offset="0" stop-color="#ba3897" class="stopColorba6038 svgShape"></stop><stop offset="1" stop-color="#d6477b" class="stopColord67747 svgShape"></stop></linearGradient><linearGradient id="f" x1="358.06" x2="398.26" y1="516.14" y2="516.14" gradientUnits="userSpaceOnUse"><stop offset="0" stop-color="#e7c6d2" class="stopColorc6cbe7 svgShape"></stop><stop offset="1" stop-color="#ffffff" class="stopColorfff svgShape"></stop></linearGradient><linearGradient id="c" x1="349.54" x2="388.19" y1="511.57" y2="511.57" gradientUnits="userSpaceOnUse"><stop offset="0" stop-color="#ed5a8f" class="stopColored995a svgShape"></stop><stop offset=".17" stop-color="#e45488" class="stopColore48f54 svgShape"></stop><stop offset="1" stop-color="#ba3897" class="stopColorba6038 svgShape"></stop></linearGradient><linearGradient id="d" x1="349.54" x2="388.19" y1="515.63" y2="515.63" gradientUnits="userSpaceOnUse"><stop offset="0" stop-color="#efdae2" class="stopColordadfef svgShape"></stop><stop offset=".55" stop-color="#e6c8d3" class="stopColorc8cde6 svgShape"></stop><stop offset="1" stop-color="#e1bfcb" class="stopColorbfc4e1 svgShape"></stop></linearGradient><linearGradient id="D" x1="349.54" x2="388.19" y1="519.68" y2="519.68" xlink:href="#c"></linearGradient><linearGradient id="E" x1="210.44" x2="252.91" y1="410.19" y2="410.19" gradientUnits="userSpaceOnUse"><stop offset="0" stop-color="#e3c6d0" class="stopColorc6cae3 svgShape"></stop><stop offset="1" stop-color="#ffffff" class="stopColorfff svgShape"></stop></linearGradient><linearGradient id="e" x1="201.95" x2="240.49" y1="406.55" y2="406.55" gradientUnits="userSpaceOnUse"><stop offset="0" stop-color="#f47fd4" class="stopColor7f7ff4 svgShape"></stop><stop offset=".44" stop-color="#985ecc" class="stopColor5e5ecc svgShape"></stop><stop offset=".79" stop-color="#8149b3" class="stopColor4949b3 svgShape"></stop><stop offset="1" stop-color="#7941aa" class="stopColor4141aa svgShape"></stop></linearGradient><linearGradient id="F" x1="201.95" x2="240.49" y1="410.23" y2="410.23" xlink:href="#d"></linearGradient><linearGradient id="G" x1="201.95" x2="240.49" y1="413.91" y2="413.91" xlink:href="#e"></linearGradient><linearGradient id="H" x1="145.47" x2="185.67" y1="471.68" y2="471.68" xlink:href="#f"></linearGradient><linearGradient id="I" x1="136.95" x2="175.6" y1="467.12" y2="467.12" xlink:href="#e"></linearGradient><linearGradient id="J" x1="136.95" x2="175.6" y1="471.17" y2="471.17" xlink:href="#d"></linearGradient><linearGradient id="K" x1="136.95" x2="175.6" y1="475.23" y2="475.23" xlink:href="#e"></linearGradient><linearGradient id="r" x1="260.78" x2="290.87" y1="467.05" y2="467.05" gradientUnits="userSpaceOnUse"><stop offset="0" stop-color="#e7c6d2" class="stopColorc6cbe7 svgShape"></stop><stop offset=".38" stop-color="#f1dee5" class="stopColordee1f1 svgShape"></stop><stop offset=".98" stop-color="#ffffff" class="stopColorfff svgShape"></stop></linearGradient><linearGradient id="L" x1="260.17" x2="268.58" y1="447.43" y2="447.43" xlink:href="#f"></linearGradient><linearGradient id="M" x1="259.03" x2="261.11" y1="389.84" y2="362.93" xlink:href="#g"></linearGradient><linearGradient id="N" x1="260.36" x2="270.34" y1="390.92" y2="370.33" xlink:href="#g"></linearGradient><linearGradient id="O" x1="262.1" x2="242.26" y1="391.65" y2="379.99" gradientUnits="userSpaceOnUse"><stop offset="0" stop-color="#ba3897" class="stopColorba6038 svgShape"></stop><stop offset=".34" stop-color="#c84172" class="stopColorc87041 svgShape"></stop><stop offset=".99" stop-color="#ec5a8f" class="stopColorec985a svgShape"></stop><stop offset="1" stop-color="#ed5a8f" class="stopColored995a svgShape"></stop></linearGradient><linearGradient id="P" x1="261.3" x2="243.49" y1="391.41" y2="404.87" xlink:href="#g"></linearGradient><linearGradient id="Q" x1="260.28" x2="285.69" y1="391.97" y2="381.59" xlink:href="#g"></linearGradient><linearGradient id="R" x1="260.73" x2="279.93" y1="393.8" y2="392.41" xlink:href="#g"></linearGradient><linearGradient id="S" x1="261.56" x2="263.53" y1="390.93" y2="404.39" gradientUnits="userSpaceOnUse"><stop offset="0" stop-color="#d6477b" class="stopColord67747 svgShape"></stop><stop offset=".28" stop-color="#e05084" class="stopColore08650 svgShape"></stop><stop offset=".67" stop-color="#ea578c" class="stopColorea9457 svgShape"></stop><stop offset="1" stop-color="#ed5a8f" class="stopColored995a svgShape"></stop></linearGradient><linearGradient id="T" x1="409.44" x2="701.4" y1="442.64" y2="442.64" gradientUnits="userSpaceOnUse"><stop offset="0" stop-color="#e7c6d2" class="stopColorc6cbe7 svgShape"></stop><stop offset=".38" stop-color="#f3e2e8" class="stopColore2e5f3 svgShape"></stop><stop offset=".75" stop-color="#fcf7f9" class="stopColorf7f8fc svgShape"></stop><stop offset="1" stop-color="#ffffff" class="stopColorfff svgShape"></stop></linearGradient><linearGradient id="U" x1="828.36" x2="1035.57" y1="462" y2="462" gradientTransform="matrix(-1 0 0 1 1369.34 0)" gradientUnits="userSpaceOnUse"><stop offset=".3" stop-color="#63318f" class="stopColor34318f svgShape"></stop><stop offset=".33" stop-color="#7842a8" class="stopColor4442a8 svgShape"></stop><stop offset=".42" stop-color="#e26ac2" class="stopColor6a6ae2 svgShape"></stop></linearGradient><linearGradient id="V" x1="407.38" x2="538.23" y1="438.28" y2="438.28" gradientUnits="userSpaceOnUse"><stop offset="0" stop-color="#e7c6d2" class="stopColorc6cbe7 svgShape"></stop><stop offset=".24" stop-color="#eaccd7" class="stopColorccd1ea svgShape"></stop><stop offset=".58" stop-color="#f1dfe6" class="stopColordfe1f1 svgShape"></stop><stop offset=".97" stop-color="#fefcfd" class="stopColorfcfdfe svgShape"></stop><stop offset="1" stop-color="#ffffff" class="stopColorfff svgShape"></stop></linearGradient><linearGradient id="W" x1="1032.72" x2="774.63" y1="-19.87" y2="427.15" gradientTransform="matrix(-1 0 0 1 1369.34 0)" gradientUnits="userSpaceOnUse"><stop offset=".63" stop-color="#e26ac2" class="stopColor6a6ae2 svgShape"></stop><stop offset=".7" stop-color="#1c246b" class="stopColor1e1c6b svgShape"></stop></linearGradient><linearGradient id="X" x1="287.2" x2="507.48" y1="220.24" y2="220.24" gradientUnits="userSpaceOnUse"><stop offset="0" stop-color="#f4dce5" class="stopColordce1f4 svgShape"></stop><stop offset=".17" stop-color="#f7e6ec" class="stopColore6eaf7 svgShape"></stop><stop offset=".44" stop-color="#ffffff" class="stopColorfff svgShape"></stop></linearGradient><linearGradient id="h" x1="319.38" x2="315.56" y1="305.35" y2="290.88" gradientUnits="userSpaceOnUse"><stop offset=".14" stop-color="#ffffff" class="stopColorfff svgShape"></stop><stop offset=".35" stop-color="#fdfafb" class="stopColorfafafd svgShape"></stop><stop offset=".6" stop-color="#f7ebef" class="stopColorebedf7 svgShape"></stop><stop offset=".88" stop-color="#edd4dd" class="stopColord4d7ed svgShape"></stop><stop offset="1" stop-color="#e7c6d2" class="stopColorc6cbe7 svgShape"></stop></linearGradient><linearGradient id="Y" x1="328.33" x2="324.52" y1="318.39" y2="303.91" xlink:href="#h"></linearGradient><linearGradient id="Z" x1="337.29" x2="333.48" y1="331.42" y2="316.95" xlink:href="#h"></linearGradient><linearGradient id="aa" x1="346.25" x2="342.43" y1="344.46" y2="329.99" xlink:href="#h"></linearGradient><linearGradient id="ab" x1="355.2" x2="351.39" y1="357.5" y2="343.02" xlink:href="#h"></linearGradient><linearGradient id="ac" x1="364.16" x2="360.35" y1="370.54" y2="356.06" xlink:href="#h"></linearGradient><linearGradient id="ad" x1="278.24" x2="331.73" y1="482.17" y2="482.17" gradientUnits="userSpaceOnUse"><stop offset="0" stop-color="#f7ebef" class="stopColorebeef7 svgShape"></stop><stop offset=".46" stop-color="#f8eef2" class="stopColoreef1f8 svgShape"></stop><stop offset=".85" stop-color="#fdf9fa" class="stopColorf9fafd svgShape"></stop><stop offset="1" stop-color="#ffffff" class="stopColorfff svgShape"></stop></linearGradient><linearGradient id="ae" x1="278.24" x2="322.77" y1="487.34" y2="487.34" gradientUnits="userSpaceOnUse"><stop offset=".47" stop-color="#e7c6d2" class="stopColorc6cbe7 svgShape"></stop><stop offset=".78" stop-color="#f6eaee" class="stopColoreaebf6 svgShape"></stop><stop offset="1" stop-color="#ffffff" class="stopColorfff svgShape"></stop></linearGradient><linearGradient id="i" x1="307.76" x2="311.17" y1="306.79" y2="312.69" gradientUnits="userSpaceOnUse"><stop offset="0" stop-color="#f4dce5" class="stopColordce1f4 svgShape"></stop><stop offset=".23" stop-color="#f8e8ee" class="stopColore8ebf8 svgShape"></stop><stop offset=".67" stop-color="#fdf9fa" class="stopColorf9fafd svgShape"></stop><stop offset="1" stop-color="#ffffff" class="stopColorfff svgShape"></stop></linearGradient><linearGradient id="af" x1="316.72" x2="320.12" y1="319.83" y2="325.73" xlink:href="#i"></linearGradient><linearGradient id="ag" x1="325.67" x2="329.08" y1="332.86" y2="338.76" xlink:href="#i"></linearGradient><linearGradient id="ah" x1="334.63" x2="338.04" y1="345.9" y2="351.8" xlink:href="#i"></linearGradient><linearGradient id="ai" x1="343.59" x2="346.99" y1="358.93" y2="364.83" xlink:href="#i"></linearGradient><linearGradient id="aj" x1="352.54" x2="355.95" y1="371.97" y2="377.87" xlink:href="#i"></linearGradient><linearGradient id="j" x1="320.24" x2="337.09" y1="429.02" y2="429.02" gradientUnits="userSpaceOnUse"><stop offset="0" stop-color="#e7c6d2" class="stopColorc6cbe7 svgShape"></stop><stop offset=".08" stop-color="#eaced8" class="stopColorced2ea svgShape"></stop><stop offset=".4" stop-color="#f6e9ee" class="stopColore9ebf6 svgShape"></stop><stop offset=".68" stop-color="#fdf9fa" class="stopColorf9fafd svgShape"></stop><stop offset=".9" stop-color="#ffffff" class="stopColorfff svgShape"></stop></linearGradient><linearGradient id="ak" x1="340.84" x2="356.27" y1="421.9" y2="421.9" xlink:href="#j"></linearGradient><linearGradient id="al" x1="748.5" x2="753.11" y1="381.97" y2="381.9" gradientTransform="matrix(-1 0 0 1 1067.48 0)" gradientUnits="userSpaceOnUse"><stop offset="0" stop-color="#9155c6" class="stopColor5555c6 svgShape"></stop><stop offset="1" stop-color="#e26ac2" class="stopColor6a6ae2 svgShape"></stop></linearGradient><linearGradient id="k" x1="1402.39" x2="1411.46" y1="427.95" y2="427.95" gradientTransform="matrix(-1 0 0 1 1728.99 0)" gradientUnits="userSpaceOnUse"><stop offset="0" stop-color="#7941aa" class="stopColor4141aa svgShape"></stop><stop offset=".1" stop-color="#733da3" class="stopColor3d3da3 svgShape"></stop><stop offset=".69" stop-color="#52257a" class="stopColor27257a svgShape"></stop><stop offset="1" stop-color="#1c246b" class="stopColor1e1c6b svgShape"></stop></linearGradient><linearGradient id="am" x1="1381.81" x2="1390.88" y1="420.83" y2="420.83" xlink:href="#k"></linearGradient><linearGradient id="an" x1="318.3" x2="343.5" y1="405.98" y2="405.98" gradientUnits="userSpaceOnUse"><stop offset="0" stop-color="#7941aa" class="stopColor4141aa svgShape"></stop><stop offset=".56" stop-color="#5a2b84" class="stopColor2c2b84 svgShape"></stop><stop offset="1" stop-color="#1c246b" class="stopColor1e1c6b svgShape"></stop></linearGradient><linearGradient id="ao" x1="1394.51" x2="1410.8" y1="384.81" y2="384.81" gradientTransform="matrix(-1 0 0 1 1728.99 0)" gradientUnits="userSpaceOnUse"><stop offset="0" stop-color="#7941aa" class="stopColor4141aa svgShape"></stop><stop offset=".17" stop-color="#874eb9" class="stopColor4e4eb9 svgShape"></stop><stop offset=".72" stop-color="#e471c5" class="stopColor7171e4 svgShape"></stop><stop offset="1" stop-color="#f47fd4" class="stopColor7f7ff4 svgShape"></stop></linearGradient><linearGradient id="b" x1="211.89" x2="211.89" y1="323.03" y2="123.53" gradientUnits="userSpaceOnUse"><stop offset=".25" stop-color="#ffffff" class="stopColorfff svgShape"></stop><stop offset=".67" stop-color="#fbf6f8" class="stopColorf6f7fb svgShape"></stop><stop offset="1" stop-color="#f7ebef" class="stopColorebeef7 svgShape"></stop></linearGradient><linearGradient id="aq" x1="338.45" x2="470.91" y1="233.23" y2="233.23" gradientUnits="userSpaceOnUse"><stop offset="0" stop-color="#e7c6d2" class="stopColorc6cbe7 svgShape"></stop><stop offset=".12" stop-color="#edd4dd" class="stopColord4d7ed svgShape"></stop><stop offset=".4" stop-color="#f7ebef" class="stopColorebedf7 svgShape"></stop><stop offset=".65" stop-color="#fdfafb" class="stopColorfafafd svgShape"></stop><stop offset=".86" stop-color="#ffffff" class="stopColorfff svgShape"></stop></linearGradient><linearGradient id="ar" x1="354.27" x2="392.42" y1="266.94" y2="200.88" gradientUnits="userSpaceOnUse"><stop offset=".02" stop-color="#ffffff" class="stopColorfff svgShape"></stop><stop offset=".23" stop-color="#fdf9fa" class="stopColorf9fafd svgShape"></stop><stop offset=".52" stop-color="#f6e9ee" class="stopColore9eaf6 svgShape"></stop><stop offset=".84" stop-color="#ebcdd8" class="stopColorcdd0eb svgShape"></stop><stop offset="1" stop-color="#e4bdcb" class="stopColorbdc1e4 svgShape"></stop></linearGradient><linearGradient id="m" x1="356.62" x2="369.9" y1="237.17" y2="237.17" gradientUnits="userSpaceOnUse"><stop offset=".3" stop-color="#e7c6d2" class="stopColorc6cbe7 svgShape"></stop><stop offset=".72" stop-color="#f7ecf0" class="stopColoreceef7 svgShape"></stop><stop offset=".98" stop-color="#ffffff" class="stopColorfff svgShape"></stop></linearGradient><linearGradient id="l" x1="358.38" x2="357.82" y1="233.02" y2="242.52" gradientUnits="userSpaceOnUse"><stop offset="0" stop-color="#f378a4" class="stopColorf3b378 svgShape"></stop><stop offset="1" stop-color="#d6477b" class="stopColord67747 svgShape"></stop></linearGradient><linearGradient id="n" x1="350.52" x2="364.23" y1="240.75" y2="240.75" gradientUnits="userSpaceOnUse"><stop offset="0" stop-color="#e7c6d2" class="stopColorc6cbe7 svgShape"></stop><stop offset=".61" stop-color="#f7ecf0" class="stopColoreceef7 svgShape"></stop><stop offset=".98" stop-color="#ffffff" class="stopColorfff svgShape"></stop></linearGradient><linearGradient id="as" x1="352.16" x2="351.6" y1="236.61" y2="246.11" xlink:href="#l"></linearGradient><linearGradient id="at" x1="395.1" x2="408.38" y1="215.64" y2="215.64" xlink:href="#m"></linearGradient><linearGradient id="au" x1="396.86" x2="396.3" y1="211.49" y2="220.99" xlink:href="#l"></linearGradient><linearGradient id="av" x1="389" x2="402.7" y1="219.23" y2="219.23" xlink:href="#n"></linearGradient><linearGradient id="aw" x1="390.64" x2="390.08" y1="215.08" y2="224.58" xlink:href="#l"></linearGradient><linearGradient id="ax" x1="375.88" x2="389.16" y1="227.86" y2="227.86" xlink:href="#m"></linearGradient><linearGradient id="o" x1="370.93" x2="383.63" y1="223.83" y2="223.83" gradientUnits="userSpaceOnUse"><stop offset="0" stop-color="#f47fd4" class="stopColor7f7ff4 svgShape"></stop><stop offset="1" stop-color="#9155c6" class="stopColor5555c6 svgShape"></stop></linearGradient><linearGradient id="ay" x1="372.23" x2="385.52" y1="230.5" y2="230.5" xlink:href="#m"></linearGradient><linearGradient id="az" x1="366.38" x2="379.09" y1="226.46" y2="226.46" xlink:href="#o"></linearGradient><linearGradient id="p" x1="354.37" x2="384.52" y1="203.35" y2="203.35" gradientUnits="userSpaceOnUse"><stop offset="0" stop-color="#e7c6d2" class="stopColorc6cbe7 svgShape"></stop><stop offset=".29" stop-color="#ecd2db" class="stopColord2d6ec svgShape"></stop><stop offset=".83" stop-color="#faf3f6" class="stopColorf3f4fa svgShape"></stop><stop offset="1" stop-color="#ffffff" class="stopColorfff svgShape"></stop></linearGradient><linearGradient id="aA" x1="377.85" x2="407.99" y1="189.76" y2="189.76" xlink:href="#p"></linearGradient><linearGradient id="aB" x1="330.34" x2="360.49" y1="217.22" y2="217.22" xlink:href="#p"></linearGradient><linearGradient id="q" x1="340.41" x2="347.81" y1="210.31" y2="223.13" gradientUnits="userSpaceOnUse"><stop offset="0" stop-color="#f47fd4" class="stopColor7f7ff4 svgShape"></stop><stop offset=".28" stop-color="#ef7acf" class="stopColor7a7aef svgShape"></stop><stop offset=".61" stop-color="#e06dc1" class="stopColor6d6de0 svgShape"></stop><stop offset=".98" stop-color="#9256c8" class="stopColor5656c8 svgShape"></stop><stop offset="1" stop-color="#9155c6" class="stopColor5555c6 svgShape"></stop></linearGradient><linearGradient id="aC" x1="364.44" x2="371.84" y1="196.43" y2="209.25" xlink:href="#q"></linearGradient><linearGradient id="aD" x1="669.12" x2="676.52" y1="195.67" y2="182.85" gradientTransform="matrix(-1 0 0 1 1064.44 0)" gradientUnits="userSpaceOnUse"><stop offset="0" stop-color="#d6477b" class="stopColord67747 svgShape"></stop><stop offset=".16" stop-color="#de5486" class="stopColorde8754 svgShape"></stop><stop offset=".47" stop-color="#e96897" class="stopColore99f68 svgShape"></stop><stop offset=".75" stop-color="#f174a1" class="stopColorf1ae74 svgShape"></stop><stop offset=".98" stop-color="#f378a4" class="stopColorf3b378 svgShape"></stop></linearGradient><linearGradient id="bl" x1="662.78" x2="662.78" y1="681.97" y2="454.61" xlink:href="#a"></linearGradient><linearGradient id="aF" x1="432.86" x2="469.74" y1="175.49" y2="175.49" xlink:href="#r"></linearGradient><linearGradient id="aG" x1="448.74" x2="451.55" y1="205.14" y2="205.14" xlink:href="#r"></linearGradient><linearGradient id="aH" x1="481.83" x2="484.64" y1="224.25" y2="224.25" xlink:href="#r"></linearGradient><linearGradient id="aI" x1="514.92" x2="517.74" y1="243.36" y2="243.36" xlink:href="#r"></linearGradient><linearGradient id="aJ" x1="534.29" x2="582.23" y1="261.76" y2="261.76" xlink:href="#r"></linearGradient><linearGradient id="aK" x1="553.54" x2="573.42" y1="363.25" y2="363.25" xlink:href="#r"></linearGradient><linearGradient id="bk" x1="338.71" x2="330.36" y1="150.42" y2="137.31" gradientUnits="userSpaceOnUse"><stop offset=".01" stop-color="#63318f" class="stopColor34318f svgShape"></stop><stop offset="1" stop-color="#e26ac2" class="stopColor6a6ae2 svgShape"></stop></linearGradient><linearGradient id="aM" x1="477.44" x2="491.38" y1="195.21" y2="195.21" xlink:href="#r"></linearGradient><linearGradient id="aN" x1="497.45" x2="524.11" y1="206.61" y2="206.61" xlink:href="#r"></linearGradient><linearGradient id="aO" x1="510.66" x2="533" y1="215.18" y2="215.18" xlink:href="#r"></linearGradient><linearGradient id="aP" x1="416.14" x2="443.58" y1="273.01" y2="273.01" xlink:href="#j"></linearGradient><linearGradient id="aQ" x1="423.31" x2="450.75" y1="265.45" y2="265.45" xlink:href="#j"></linearGradient><linearGradient id="aR" x1="413.12" x2="413.12" y1="252.89" y2="234.57" gradientUnits="userSpaceOnUse"><stop offset="0" stop-color="#e7c6d2" class="stopColorc6cbe7 svgShape"></stop><stop offset=".08" stop-color="#eacdd7" class="stopColorcdd2ea svgShape"></stop><stop offset=".44" stop-color="#f6e9ee" class="stopColore9ebf6 svgShape"></stop><stop offset=".76" stop-color="#fdf9fa" class="stopColorf9fafd svgShape"></stop><stop offset="1" stop-color="#ffffff" class="stopColorfff svgShape"></stop></linearGradient><linearGradient id="s" x1="753.12" x2="759.17" y1="456.94" y2="453.7" gradientTransform="matrix(-.83 .56 .56 .83 793.71 -538.9)" gradientUnits="userSpaceOnUse"><stop offset="0" stop-color="#1c246b" class="stopColor1e1c6b svgShape"></stop><stop offset=".52" stop-color="#5f2e8a" class="stopColor2f2e8a svgShape"></stop><stop offset="1" stop-color="#7941aa" class="stopColor4141aa svgShape"></stop></linearGradient><linearGradient id="aS" x1="445.48" x2="459.14" y1="258.49" y2="258.49" gradientTransform="rotate(-7.56 354.161 520.57)" gradientUnits="userSpaceOnUse"><stop offset="0" stop-color="#9155c6" class="stopColor5555c6 svgShape"></stop><stop offset=".03" stop-color="#8d52c2" class="stopColor5352c2 svgShape"></stop><stop offset=".32" stop-color="#6e3b9c" class="stopColor3c3b9c svgShape"></stop><stop offset=".58" stop-color="#582a81" class="stopColor2b2a81 svgShape"></stop><stop offset=".82" stop-color="#202871" class="stopColor222071 svgShape"></stop><stop offset="1" stop-color="#1c246b" class="stopColor1e1c6b svgShape"></stop></linearGradient><linearGradient id="aT" x1="917.26" x2="922.75" y1="361.76" y2="358.82" gradientTransform="matrix(-.99 -.16 -.16 .99 1383.92 65.5)" xlink:href="#s"></linearGradient><linearGradient id="aU" x1="415.18" x2="424.77" y1="250.85" y2="253.11" gradientUnits="userSpaceOnUse"><stop offset="0" stop-color="#9155c6" class="stopColor5555c6 svgShape"></stop><stop offset=".64" stop-color="#5f2f89" class="stopColor302f89 svgShape"></stop><stop offset="1" stop-color="#1c246b" class="stopColor1e1c6b svgShape"></stop></linearGradient><linearGradient id="aV" x1="411.58" x2="426.43" y1="225.99" y2="225.99" gradientUnits="userSpaceOnUse"><stop offset="0" stop-color="#f6d0de" class="stopColord0d4f6 svgShape"></stop><stop offset="1" stop-color="#f47fd4" class="stopColor7f7ff4 svgShape"></stop></linearGradient><linearGradient id="t" x1="422.97" x2="454.88" y1="323.63" y2="323.63" gradientUnits="userSpaceOnUse"><stop offset="0" stop-color="#e7c6d2" class="stopColorc6cbe7 svgShape"></stop><stop offset=".26" stop-color="#ebd0da" class="stopColord0d4eb svgShape"></stop><stop offset=".69" stop-color="#f7ebef" class="stopColorebedf7 svgShape"></stop><stop offset=".97" stop-color="#ffffff" class="stopColorfff svgShape"></stop></linearGradient><linearGradient id="aW" x1="467.73" x2="499.63" y1="297.79" y2="297.79" xlink:href="#t"></linearGradient><linearGradient id="aX" x1="774.84" x2="819.02" y1="239.88" y2="316.4" gradientTransform="matrix(-1 0 0 1 1240.35 0)" gradientUnits="userSpaceOnUse"><stop offset=".38" stop-color="#fcf7f9" class="stopColorf7f7fc svgShape"></stop><stop offset=".43" stop-color="#fbf1f5" class="stopColorf1f2fb svgShape"></stop><stop offset=".5" stop-color="#f9e1ea" class="stopColore1e3f9 svgShape"></stop><stop offset=".56" stop-color="#f6d0de" class="stopColord0d4f6 svgShape"></stop></linearGradient><linearGradient id="aY" x1="464.73" x2="487.1" y1="325.65" y2="325.65" xlink:href="#j"></linearGradient><linearGradient id="aZ" x1="475.84" x2="498.2" y1="319.17" y2="319.17" xlink:href="#j"></linearGradient><linearGradient id="u" x1="427.12" x2="436.12" y1="318.12" y2="318.12" gradientTransform="translate(42.41)" gradientUnits="userSpaceOnUse"><stop offset="0" stop-color="#7941aa" class="stopColor4141aa svgShape"></stop><stop offset=".31" stop-color="#6d389b" class="stopColor38389b svgShape"></stop><stop offset=".9" stop-color="#202872" class="stopColor222072 svgShape"></stop><stop offset="1" stop-color="#1c246b" class="stopColor1e1c6b svgShape"></stop></linearGradient><linearGradient id="ba" x1="415.99" x2="424.99" y1="324.6" y2="324.6" xlink:href="#u"></linearGradient><linearGradient id="bb" x1="419.89" x2="435.37" y1="303.09" y2="303.09" gradientTransform="translate(42.41)" gradientUnits="userSpaceOnUse"><stop offset="0" stop-color="#7941aa" class="stopColor4141aa svgShape"></stop><stop offset=".26" stop-color="#703b9f" class="stopColor3b3b9f svgShape"></stop><stop offset=".71" stop-color="#4e1184" class="stopColor2b2982 svgShape"></stop><stop offset="1" stop-color="#1c246b" class="stopColor1e1c6b svgShape"></stop></linearGradient><linearGradient id="bc" x1="807.54" x2="801.4" y1="271.94" y2="269.96" gradientTransform="matrix(-1 0 0 1 1282.26 0)" gradientUnits="userSpaceOnUse"><stop offset="0" stop-color="#d6477b" class="stopColord67747 svgShape"></stop><stop offset=".13" stop-color="#d04477" class="stopColord07244 svgShape"></stop><stop offset=".63" stop-color="#c03b9c" class="stopColorc0653b svgShape"></stop><stop offset="1" stop-color="#ba3897" class="stopColorba6038 svgShape"></stop></linearGradient><linearGradient id="bd" x1="419.3" x2="435.47" y1="275.31" y2="275.31" gradientTransform="translate(42.41)" gradientUnits="userSpaceOnUse"><stop offset="0" stop-color="#ed5a8f" class="stopColored995a svgShape"></stop><stop offset=".34" stop-color="#ea588d" class="stopColorea9558 svgShape"></stop><stop offset=".7" stop-color="#e15084" class="stopColore18750 svgShape"></stop><stop offset="1" stop-color="#d6477b" class="stopColord67747 svgShape"></stop></linearGradient><linearGradient id="be" x1="452.9" x2="467.74" y1="273.51" y2="273.51" gradientUnits="userSpaceOnUse"><stop offset="0" stop-color="#ed5a8f" class="stopColored995a svgShape"></stop><stop offset=".39" stop-color="#eb588d" class="stopColoreb9658 svgShape"></stop><stop offset=".68" stop-color="#e55388" class="stopColore58d53 svgShape"></stop><stop offset=".93" stop-color="#da4a7e" class="stopColorda7d4a svgShape"></stop><stop offset="1" stop-color="#d6477b" class="stopColord67747 svgShape"></stop></linearGradient><linearGradient id="bf" x1="490.34" x2="522.24" y1="362.52" y2="362.52" xlink:href="#t"></linearGradient><linearGradient id="bg" x1="535.09" x2="567" y1="336.68" y2="336.68" xlink:href="#t"></linearGradient><linearGradient id="bh" x1="707.48" x2="751.66" y1="278.77" y2="355.29" gradientTransform="matrix(-1 0 0 1 1240.35 0)" gradientUnits="userSpaceOnUse"><stop offset=".42" stop-color="#fcf7f9" class="stopColorf7f7fc svgShape"></stop><stop offset=".5" stop-color="#f9e6ed" class="stopColore6e8f9 svgShape"></stop><stop offset=".57" stop-color="#f6d0de" class="stopColord0d4f6 svgShape"></stop></linearGradient><linearGradient id="bi" x1="317.67" x2="337.47" y1="159.08" y2="124.79" gradientUnits="userSpaceOnUse"><stop offset=".01" stop-color="#7941aa" class="stopColor4141aa svgShape"></stop><stop offset="1" stop-color="#f47fd4" class="stopColor7f7ff4 svgShape"></stop></linearGradient><linearGradient id="bj" x1="325.99" x2="344.9" y1="145.94" y2="145.94" gradientUnits="userSpaceOnUse"><stop offset=".01" stop-color="#f47fd4" class="stopColor7f7ff4 svgShape"></stop><stop offset="1" stop-color="#7941aa" class="stopColor4141aa svgShape"></stop></linearGradient><linearGradient id="bm" x1="600.93" x2="600.93" y1="681.97" y2="454.61" xlink:href="#b"></linearGradient><clipPath id="aL"><polygon fill="none" points="532.14 238.13 432.86 180.81 448.02 172.06 532.14 220.63 532.14 238.13"></polygon></clipPath><clipPath id="aE"><polygon fill="none" points="287.2 79.21 567.73 241.17 567.73 429.21 287.2 267.25 287.2 79.21"></polygon></clipPath></defs><g data-name="Front blocks" fill="#000000" class="color000 svgShape"><polygon fill="url(#a)" points="245.74 323.03 313.45 283.94 313.45 123.53 245.74 162.63 245.74 323.03"></polygon><polygon fill="url(#b)" points="245.74 323.03 178.04 283.94 178.04 123.53 245.74 162.63 245.74 323.03"></polygon><polygon fill="#f9f2f5" points="245.74 162.63 178.04 123.53 245.74 84.44 313.45 123.53 245.74 162.63" class="colorf2f4f9 svgShape"></polygon><g style="mix-blend-mode:multiply" fill="#000000" class="color000 svgShape"><polygon fill="url(#v)" points="512.74 200.1 554.89 175.77 554.89 62.82 512.74 87.15 512.74 200.1"></polygon><polygon fill="url(#w)" points="512.74 200.1 470.6 175.77 470.6 62.82 512.74 87.15 512.74 200.1"></polygon><polygon fill="#f9f2f5" points="512.74 87.15 470.6 62.82 512.74 38.49 554.89 62.82 512.74 87.15" class="colorf2f4f9 svgShape"></polygon></g><polygon fill="url(#x)" points="604.64 340.68 676.6 299.13 676.6 128.66 604.64 170.21 604.64 340.68"></polygon><polygon fill="url(#y)" points="604.64 340.68 532.69 299.13 532.69 128.66 604.64 170.21 604.64 340.68"></polygon><polygon fill="#f9f2f5" points="604.64 170.21 532.69 128.66 604.64 87.12 676.6 128.66 604.64 170.21" class="colorf2f4f9 svgShape"></polygon><path fill="url(#z)" style="mix-blend-mode:multiply" d="M138.43,397.33a27.6,27.6,0,0,0-14.26-3.16h-8v1.32a21.14,21.14,0,0,0-4.25,1.84c-7.3,4.24-7.26,11.12.09,15.37a21.67,21.67,0,0,0,4.16,1.8v1.37h9.63a26.62,26.62,0,0,0,12.74-3.17C145.82,408.45,145.78,401.57,138.43,397.33Z"></path><path fill="#f779a7" d="M98.6,400c0-2.72,1.79-5.43,5.38-7.51a28.79,28.79,0,0,1,26,0c3.59,2.08,5.38,4.79,5.38,7.51s-1.79,5.43-5.38,7.5a28.7,28.7,0,0,1-26,0C100.39,405.46,98.6,402.74,98.6,400Z" class="colorf7c479 svgShape"></path><path fill="url(#A)" d="M130,407.53a28.7,28.7,0,0,1-26,0c-3.59-2.07-5.38-4.79-5.38-7.5v5.24c0,2.71,1.79,5.43,5.38,7.5a28.79,28.79,0,0,0,26,0c3.59-2.07,5.38-4.79,5.38-7.51V400C135.35,402.74,133.56,405.46,130,407.53Z"></path><path fill="#ed6e9c" d="M106.42,406.12a23.36,23.36,0,0,0,21.11,0c2.69-1.55,4.13-3.55,4.34-5.58-.21-2-1.65-4-4.34-5.58a23.28,23.28,0,0,0-21.11,0c-2.69,1.55-4.13,3.54-4.34,5.58C102.29,402.57,103.73,404.57,106.42,406.12Z" class="coloreda76e svgShape"></path><path fill="url(#g)" d="M106.42,395a23.28,23.28,0,0,1,21.11,0c2.69,1.55,4.13,3.55,4.34,5.58a4.36,4.36,0,0,0,0-.51c0-2.21-1.46-4.41-4.37-6.1a23.36,23.36,0,0,0-21.11,0c-2.92,1.69-4.37,3.89-4.37,6.1a4.36,4.36,0,0,0,0,.51C102.29,398.5,103.73,396.51,106.42,395Z"></path><polygon fill="#ba3897" points="124.33 397.84 125.74 397.02 125.74 396 124.33 396.81 124.33 397.84" class="colorba6038 svgShape"></polygon><path fill="#f779a7" d="M117.81,399.54a1.2,1.2,0,0,1,0-2.27,4.36,4.36,0,0,1,4,0,1.2,1.2,0,0,1,0,2.27l1.79,1c1.76-1,2-2.58.78-3.76l1.41-.81L124,395l-1.41.81a8.45,8.45,0,0,0-6.51.45,2.29,2.29,0,0,0,0,4.34,1.21,1.21,0,0,1,0,2.28,4.36,4.36,0,0,1-4,0,1.21,1.21,0,0,1,0-2.28l-1.78-1c-1.77,1-2,2.58-.79,3.76l-1.3.75,1.79,1,1.3-.76a8.41,8.41,0,0,0,6.51-.45C119.89,402.69,119.89,400.74,117.81,399.54Z" class="colorf7c479 svgShape"></path><polygon fill="#d6477b" points="108.21 405.07 110 406.11 110 405.09 108.21 404.05 108.21 405.07" class="colord67747 svgShape"></polygon><polygon fill="#ba3897" points="110 406.11 111.3 405.36 111.3 404.33 110 405.09 110 406.11" class="colorba6038 svgShape"></polygon><polygon fill="#d6477b" points="121.76 400.56 123.55 401.6 123.55 400.57 121.76 399.54 121.76 400.56" class="colord67747 svgShape"></polygon><path fill="#ba3897" d="M112.08,401.6v-1c-.77.45-1,1.09-.67,1.65A1.84,1.84,0,0,1,112.08,401.6Z" class="colorba6038 svgShape"></path><path fill="#d6477b" d="M108.74 401.66v1.15h0a2 2 0 00.22.8l.54-.31a2.19 2.19 0 01-.76-1.64zM116 401.59a2 2 0 01.67.63c.32-.56.1-1.2-.67-1.65a2.63 2.63 0 01-1.56-2.17v1A2.61 2.61 0 00116 401.59z" class="colord67747 svgShape"></path><path fill="#f24282" d="M119.37,401.71v0h0Z" class="colorf2bd42 svgShape"></path><path fill="#ba3897" d="M125.09,398.4a2.62,2.62,0,0,1-1.54,2.17v1a2.6,2.6,0,0,0,1.54-2.24h0v-1Z" class="colorba6038 svgShape"></path><path fill="url(#B)" d="M117.81,403.88a8.41,8.41,0,0,1-6.51.45v1a8.46,8.46,0,0,0,6.51-.46,2.65,2.65,0,0,0,1.56-2.15h0v-1A2.62,2.62,0,0,1,117.81,403.88Z"></path><path fill="url(#C)" d="M121.76,397.27a4.36,4.36,0,0,0-4,0,1.37,1.37,0,0,0-.81,1.13,1,1,0,0,0,.14.51,1.84,1.84,0,0,1,.67-.62,4.36,4.36,0,0,1,4,0,1.84,1.84,0,0,1,.67.62C122.75,398.35,122.53,397.71,121.76,397.27Z"></path><path fill="url(#f)" style="mix-blend-mode:multiply" d="M392.55,508.23A28.28,28.28,0,0,0,377.88,505H368v1.35a22.1,22.1,0,0,0-4.37,1.9c-7.52,4.36-7.47,11.45.09,15.82A21.68,21.68,0,0,0,368,525.9v1.42h11.48a27.5,27.5,0,0,0,13.12-3.27C400.16,519.68,400.12,512.59,392.55,508.23Z"></path><path fill="url(#c)" d="M355.25,515.94c-3.81-2.19-5.71-5.08-5.71-8l0-4.06c0,2.89,1.89,5.77,5.7,8,7.57,4.37,19.8,4.37,27.32,0,3.73-2.17,5.6-5,5.61-7.85v4c0,2.84-1.88,5.68-5.61,7.86C375.05,520.32,362.82,520.32,355.25,515.94Z"></path><path fill="url(#d)" d="M355.25,520c-3.81-2.2-5.71-5.09-5.71-8l0-4c0,2.88,1.89,5.77,5.7,8,7.57,4.36,19.8,4.36,27.32,0,3.73-2.17,5.6-5,5.61-7.86v4.05c0,2.85-1.88,5.69-5.61,7.86C375.05,524.37,362.82,524.37,355.25,520Z"></path><path fill="url(#D)" d="M355.25,524.05c-3.81-2.2-5.71-5.08-5.71-8l0-4.06c0,2.89,1.89,5.77,5.7,8,7.57,4.37,19.8,4.37,27.32,0,3.73-2.17,5.6-5,5.61-7.85v4.05c0,2.84-1.88,5.68-5.61,7.85C375.05,528.43,362.82,528.43,355.25,524.05Z"></path><path fill="#f6ebef" d="M355.26,511.89c-7.56-4.37-7.61-11.45-.09-15.82s19.75-4.37,27.32,0,7.61,11.45.09,15.82S362.83,516.26,355.26,511.89Z" class="colorebeef6 svgShape"></path><path fill="#e4bdcb" d="M371.65,500.82a2.74,2.74,0,0,0-1.38-1.54,7.67,7.67,0,0,0-6.95,0,2.42,2.42,0,0,0-1.44,2v6.86h11.87a7.16,7.16,0,0,0,3.48-.83c1.92-1.11,1.92-2.91,0-4a6.61,6.61,0,0,0-2.68-.79l-2.6-.18Z" class="colorbdc1e4 svgShape"></path><path fill="url(#E)" style="mix-blend-mode:multiply" d="M247.22,402.3a28.36,28.36,0,0,0-14.64-3.24H220.39v1.35A22,22,0,0,0,216,402.3c-7.49,4.36-7.45,11.42.09,15.78a22.2,22.2,0,0,0,4.27,1.85v1.41h13.83a27.52,27.52,0,0,0,13.09-3.26C254.81,413.72,254.77,406.66,247.22,402.3Z"></path><path fill="url(#e)" d="M207.63,410.73c-3.79-2.2-5.69-5.07-5.68-8V399.1c0,2.88,1.89,5.75,5.69,7.95,7.55,4.35,19.74,4.35,27.24,0,3.73-2.17,5.59-5,5.6-7.84l0,3.68c0,2.84-1.87,5.67-5.6,7.84C227.38,415.09,215.18,415.09,207.63,410.73Z"></path><path fill="url(#F)" d="M207.63,414.41c-3.79-2.2-5.69-5.08-5.68-8v-3.68c0,2.88,1.89,5.75,5.69,8,7.55,4.35,19.74,4.35,27.24,0,3.73-2.17,5.59-5,5.6-7.84l0,3.68c0,2.84-1.87,5.67-5.6,7.84C227.38,418.77,215.18,418.77,207.63,414.41Z"></path><path fill="url(#G)" d="M207.63,418.08c-3.79-2.19-5.69-5.07-5.68-7.94v-3.68c0,2.87,1.89,5.75,5.69,8,7.55,4.35,19.74,4.35,27.24,0,3.73-2.17,5.59-5,5.6-7.84l0,3.68c0,2.84-1.87,5.67-5.6,7.84C227.38,422.44,215.18,422.44,207.63,418.08Z"></path><path fill="#f7f1f3" d="M207.65,407.05c-7.55-4.36-7.59-11.43-.09-15.78s19.7-4.36,27.24,0,7.59,11.42.09,15.78S215.2,411.4,207.65,407.05Z" class="colorf1f3f7 svgShape"></path><polygon fill="#e4bdcb" points="229.05 401.23 224.05 402.68 215.56 397.78 219.87 392.82 220.19 392.45 217.76 391.06 216.35 391.87 217.75 392.68 213.44 397.63 213.12 398.01 223.65 404.09 224.3 403.9 229.95 402.26 229.05 401.23" class="colorbdc1e4 svgShape"></polygon><path fill="#e4bdcb" d="M221.27 404.47a2.16 2.16 0 00-2 0c-.55.31-.55.82 0 1.14a2.22 2.22 0 002 0A.6.6 0 00221.27 404.47zM212.36 399.32a2.19 2.19 0 00-2 0c-.55.32-.55.83 0 1.14a2.17 2.17 0 002 0A.61.61 0 00212.36 399.32z" class="colorbdc1e4 svgShape"></path><polygon fill="#e4bdcb" points="226.01 399.28 226.01 398.51 223.62 398.51 227.68 396.16 226.73 395.62 222.68 397.96 222.68 396.58 221.34 396.58 221.34 399.28 226.01 399.28" class="colorbdc1e4 svgShape"></polygon><path fill="url(#H)" style="mix-blend-mode:multiply" d="M180,463.77a28.39,28.39,0,0,0-14.68-3.25h-9.83v1.35a21.85,21.85,0,0,0-4.37,1.9c-7.52,4.37-7.47,11.45.09,15.82a22,22,0,0,0,4.28,1.86v1.41h11.48a27.5,27.5,0,0,0,13.12-3.27C187.57,475.22,187.53,468.14,180,463.77Z"></path><path fill="url(#I)" d="M142.66,471.49c-3.81-2.2-5.72-5.08-5.71-8l0-4.06c0,2.89,1.89,5.77,5.7,8,7.57,4.37,19.8,4.37,27.32,0,3.73-2.17,5.6-5,5.61-7.85l0,4.05c0,2.84-1.87,5.68-5.61,7.85C162.45,475.87,150.22,475.87,142.66,471.49Z"></path><path fill="url(#J)" d="M142.66,475.54c-3.81-2.19-5.72-5.08-5.71-8l0-4.06c0,2.89,1.89,5.77,5.7,8,7.57,4.37,19.8,4.37,27.32,0,3.73-2.17,5.6-5,5.61-7.85l0,4.05c0,2.84-1.87,5.68-5.61,7.86C162.45,479.92,150.22,479.92,142.66,475.54Z"></path><path fill="url(#K)" d="M142.66,479.6c-3.81-2.2-5.72-5.09-5.71-8l0-4.06c0,2.89,1.89,5.77,5.7,8,7.57,4.37,19.8,4.37,27.32,0,3.73-2.17,5.6-5,5.61-7.85l0,4.05c0,2.85-1.87,5.68-5.61,7.86C162.45,484,150.22,484,142.66,479.6Z"></path><path fill="#f6ebef" d="M142.67,467.44c-7.56-4.37-7.61-11.45-.09-15.82s19.75-4.37,27.32,0,7.61,11.45.09,15.82S150.24,471.81,142.67,467.44Z" class="colorebeef6 svgShape"></path><path fill="#e4bdcb" d="M157.19,464.54a3.85,3.85,0,0,0-1.91-.45l-2.95-6.24a4.36,4.36,0,0,0,1-.42,2.55,2.55,0,0,0,.89-.82l9.27.83a1.43,1.43,0,0,0,.75.94,4.19,4.19,0,0,0,3.75,0,1.15,1.15,0,0,0,0-2.17,4.13,4.13,0,0,0-3.75,0,1.76,1.76,0,0,0-.55.48l-9.27-.84a1.87,1.87,0,0,0-1.09-1.48,5.83,5.83,0,0,0-5.3,0c-1.47.84-1.47,2.21,0,3.06a5.54,5.54,0,0,0,3,.62l3,6.25a2.64,2.64,0,0,0-.57.24,1.14,1.14,0,0,0,0,2.16,4.13,4.13,0,0,0,3.75,0A1.14,1.14,0,0,0,157.19,464.54Z" class="colorbdc1e4 svgShape"></path><polygon fill="url(#r)" style="mix-blend-mode:multiply" points="260.78 459.97 273.04 467.05 260.78 474.13 290.88 474.13 290.88 459.97 260.78 459.97"></polygon><polygon fill="#fcf7f9" points="248.52 445.85 260.78 438.77 273.04 445.85 260.78 452.92 248.52 445.85" class="colorf7f7fc svgShape"></polygon><polygon fill="#f6d0de" points="260.78 474.13 248.52 467.05 248.52 445.85 260.78 452.92 260.78 474.13" class="colord0d4f6 svgShape"></polygon><polygon fill="#e5cfd7" points="270.23 445.85 260.78 440.39 260.78 442.3 268.58 446.8 270.23 445.85" class="colorcfd1e5 svgShape"></polygon><polygon fill="#e4bdcb" points="260.78 474.13 273.04 467.05 273.04 445.85 260.78 452.92 260.78 474.13" class="colorbdc1e4 svgShape"></polygon><polygon fill="#f47fd4" points="252.98 446.8 260.78 442.3 268.58 446.8 260.78 451.3 252.98 446.8" class="color7f7ff4 svgShape"></polygon><polygon fill="#dabcc7" points="251.32 445.85 260.78 440.39 260.78 442.3 252.98 446.8 251.32 445.85" class="colorbcbfda svgShape"></polygon><polygon fill="url(#L)" style="mix-blend-mode:multiply" points="267.7 446.3 260.17 446.3 260.17 448.56 265.52 448.56 268.58 446.8 267.7 446.3"></polygon><path fill="#1c246b" d="M260.37,448.56a4.33,4.33,0,0,0,2-.44c.1-.47.36-1.36.66-2.39,1.18-4.06,3.15-10.84,2.25-15.44a13.58,13.58,0,0,0-3.11-6c-1.5-1.91-2.49-3.18-1.69-5.63,1.36-4.1,5.48-17.94,1.69-23.58l-2.63,1.77c2.22,3.31.56,12.84-2.07,20.82-1.34,4.06.54,6.46,2.2,8.58a10.61,10.61,0,0,1,2.49,4.61c.76,3.85-1.15,10.41-2.18,13.94-.33,1.15-.59,2.05-.72,2.65C259.22,447.49,259.15,448.5,260.37,448.56Z" class="color1e1c6b svgShape"></path><path fill="url(#M)" d="M260.28,390.17c-1.94-3.18-6.76-14.45-3-23.41,3.68-8.69,10.92-1.68,6.57,3-5.35,5.73-4.51,15.52-2.06,20.28C261.44,391.35,260.84,391.09,260.28,390.17Z"></path><path fill="url(#N)" d="M261.49,391.52c-1.92,0,.6-19,6.15-20.82s5.58,4.51,2.91,7C264.13,383.66,263.41,391.52,261.49,391.52Z"></path><path fill="url(#O)" d="M260.06,392.27c-5-4.53-19.49-4.61-17.52-11.1s14.26,2.41,18.78,9.64C262.14,392.12,262.12,394.15,260.06,392.27Z"></path><path fill="url(#P)" d="M261,393.21c-4.26-2.83-7.8,3-8.54,9.48s-10.24,9.32-7.07-1.21,10.59-14.83,15.8-10.33C264.06,393.59,261.74,393.68,261,393.21Z"></path><path fill="url(#Q)" d="M260.69,391.54c2.2-3,10.8-11.75,20.53-11.64,9.43.1,5.69,9.47-.27,7.21-7.33-2.78-16.07,1.72-19.54,5.8C260,393.05,260.05,392.4,260.69,391.54Z"></path><path fill="url(#R)" d="M266.57,392.38c-2.92-.54-5.59,2.12-6.18.32s18.78-10.73,19.39,2.44C280.06,401.26,270.82,393.15,266.57,392.38Z"></path><path fill="url(#S)" d="M257.35,397.59c-.47,5.19,3.79,10,8.89,6.91,3.14-1.89,2.25-7.4-.17-10.51-1.5-1.94-3.85-3-4.57-2.84C259.25,391.55,257.85,391.87,257.35,397.59Z"></path><path fill="url(#T)" style="mix-blend-mode:multiply" d="M543.76,472.83H701.4L541.57,380.55,413.73,454c-5.73,3.3-5.73,8.71,0,12,0,0,61.07,35.24,61.35,35.38l-9.33,3.35h15a28.46,28.46,0,0,0,14.35-3.78Z"></path><path fill="#fcf7f9" d="M398.59,378.06c5.72-3.31,15.09-3.31,20.82,0l117.28,67.72c5.73,3.3,5.73,8.71,0,12l-60.52,34.95c-5.73,3.3-15.1,3.3-20.83,0L338.05,425c-5.73-3.31-5.73-8.72,0-12Z" class="colorf7f7fc svgShape"></path><path fill="url(#U)" d="M338.05,425l117.29,67.72c5.73,3.3,15.1,3.3,20.83,0l60.52-34.95c2.75-1.59,4.17-3.66,4.28-5.76,0,0,0,9.23,0,9.23,0,2.18-1.42,4.36-4.29,6l-60.52,34.95c-5.73,3.31-15.1,3.31-20.83,0L338.05,434.52c-3-1.72-4.39-4-4.27-6.26v-9C333.89,421.37,335.3,423.44,338.05,425Z"></path><path fill="url(#V)" style="mix-blend-mode:multiply" d="M462.56,413.23H407.38c.25,2,1.65,3.89,4.24,5.39l64.62,37.3-.46,1-11.12,6.42H527.1l11.13-6.42Z"></path><path fill="#f6d0de" d="M397.36,401.31a100.08,100.08,0,0,0,4.72-31.82l8.33-4.81c0,2.13,0,5.37-.28,9.46l67.62,39c0,7.13,0,28.54-13.09,50.16L389,419.65Z" class="colord0d4f6 svgShape"></path><polygon fill="#c6b9be" points="402.08 369.49 477.75 413.18 486.07 408.37 410.41 364.68 402.08 369.49" class="colorc6b9be svgShape"></polygon><path fill="#e4bdcb" d="M464.66,463.34c13.08-21.62,13.09-43,13.09-50.16l8.32-4.81a111.65,111.65,0,0,1-10.29,48.55Z" class="colorbdc1e4 svgShape"></path><path fill="#f4dce5" style="mix-blend-mode:multiply" d="M473.58,443.28l8.94-5.17a110.75,110.75,0,0,0,2.9-16.1L477,426.87A96.94,96.94,0,0,1,473.58,443.28Z" class="colordce1f4 svgShape"></path><path fill="#7941aa" d="M276.79,73.2c0-6.61,4.69-9.31,10.41-6l280.53,162c5.72,3.31,10.41,11.42,10.41,18v188l-301.35-174Z" class="color4141aa svgShape"></path><path fill="url(#W)" d="M298.49,60.68,579,222.64c5.72,3.31,10.41,11.42,10.41,18v188l-11.29,6.51v-188c0-6.61-4.69-14.72-10.41-18L287.2,67.19A8.05,8.05,0,0,0,281,66l9-5.14C291.88,58.89,295,58.65,298.49,60.68Z"></path><path fill="#ffe3ed" d="M578.14,435.22v39.1c0,6.62-4.69,9.32-10.41,6l-280.53-162c-5.72-3.3-10.41-11.42-10.41-18v-39.1Z" class="colore3e7ff svgShape"></path><path fill="#e4bdcb" d="M578.14,474.32v-39.1l11.29-6.51v39.1c0,3.32-1.19,5.66-3.1,6.74l-10.82,6.2C577.14,479.57,578.14,477.37,578.14,474.32Z" class="colorbdc1e4 svgShape"></path><polygon fill="#ffffff" points="287.2 267.25 567.73 429.21 567.73 241.17 287.2 79.21 287.2 267.25" class="colorfff svgShape"></polygon><polygon fill="url(#X)" points="450.05 173.23 287.2 267.25 409.14 267.25 507.48 206.39 450.05 173.23"></polygon><polygon fill="#f6ebef" points="450.04 173.23 287.2 267.25 287.2 79.21 450.04 173.23" class="colorebeef6 svgShape"></polygon><polygon fill="url(#h)" style="mix-blend-mode:multiply" points="331.73 296.88 324.92 289.02 324.92 289.02 324.92 292.95 304.62 304.68 311.43 312.54 331.73 300.82 331.73 296.88"></polygon><polygon fill="url(#Y)" style="mix-blend-mode:multiply" points="340.69 309.92 333.88 302.06 333.87 302.06 333.88 305.99 313.57 317.71 320.39 325.58 340.69 313.86 340.69 309.92"></polygon><polygon fill="url(#Z)" style="mix-blend-mode:multiply" points="349.64 322.96 342.83 315.1 342.83 315.1 342.83 319.03 322.53 330.75 329.34 338.61 349.64 326.89 349.64 322.96"></polygon><polygon fill="url(#aa)" style="mix-blend-mode:multiply" points="358.6 336 351.79 328.13 351.79 328.13 351.79 332.06 331.49 343.79 338.3 351.65 358.6 339.93 358.6 336"></polygon><polygon fill="url(#ab)" style="mix-blend-mode:multiply" points="367.56 349.03 360.75 341.17 360.75 341.17 360.75 345.1 340.44 356.82 347.26 364.69 367.56 352.97 367.56 349.03"></polygon><polygon fill="url(#ac)" style="mix-blend-mode:multiply" points="376.51 362.07 369.7 354.21 369.7 354.21 369.7 358.14 349.4 369.86 356.21 377.72 376.51 366 376.51 362.07"></polygon><polygon fill="#f4dce5" style="mix-blend-mode:multiply" points="414.23 391.71 407.42 383.85 407.42 383.85 407.42 387.78 414.23 391.71" class="colordce1f4 svgShape"></polygon><polygon fill="url(#ad)" style="mix-blend-mode:multiply" points="331.73 490.47 331.73 490.47 331.73 490.47 331.73 490.47 294.01 468.7 287.2 468.7 278.24 473.87 315.96 495.64 322.77 495.64 331.72 490.47 331.73 490.47"></polygon><polygon fill="#f6d0de" points="296.16 327.77 287.2 322.6 287.2 318.66 296.16 323.84 296.16 327.77" class="colord0d4f6 svgShape"></polygon><polygon fill="#e4bdcb" points="296.16 327.77 333.87 305.99 333.87 302.06 296.16 323.84 296.16 327.77" class="colorbdc1e4 svgShape"></polygon><polygon fill="#fcf7f9" points="296.16 323.84 287.2 318.66 324.92 296.89 333.87 302.06 296.16 323.84" class="colorf7f7fc svgShape"></polygon><polygon fill="#f6d0de" points="305.11 340.81 296.16 335.63 296.16 331.7 305.11 336.87 305.11 340.81" class="colord0d4f6 svgShape"></polygon><polygon fill="#e4bdcb" points="305.11 340.81 342.83 319.03 342.83 315.1 305.11 336.87 305.11 340.81" class="colorbdc1e4 svgShape"></polygon><polygon fill="#fcf7f9" points="305.11 336.87 296.16 331.7 333.87 309.92 342.83 315.1 305.11 336.87" class="colorf7f7fc svgShape"></polygon><polygon fill="#f6d0de" points="314.07 353.84 305.11 348.67 305.11 344.74 314.07 349.91 314.07 353.84" class="colord0d4f6 svgShape"></polygon><polygon fill="#e4bdcb" points="314.07 353.84 351.79 332.06 351.79 328.13 314.07 349.91 314.07 353.84" class="colorbdc1e4 svgShape"></polygon><polygon fill="#fcf7f9" points="314.07 349.91 305.11 344.74 342.83 322.96 351.79 328.13 314.07 349.91" class="colorf7f7fc svgShape"></polygon><polygon fill="#f6d0de" points="323.03 366.88 314.07 361.71 314.07 357.77 323.03 362.94 323.03 366.88" class="colord0d4f6 svgShape"></polygon><polygon fill="#e4bdcb" points="323.03 366.88 360.74 345.1 360.74 341.17 323.03 362.94 323.03 366.88" class="colorbdc1e4 svgShape"></polygon><polygon fill="#fcf7f9" points="323.03 362.94 314.07 357.77 351.79 336 360.74 341.17 323.03 362.94" class="colorf7f7fc svgShape"></polygon><polygon fill="#f6d0de" points="331.98 379.92 323.02 374.75 323.02 370.81 331.98 375.98 331.98 379.92" class="colord0d4f6 svgShape"></polygon><polygon fill="#e4bdcb" points="331.98 379.92 369.7 358.14 369.7 354.21 331.98 375.98 331.98 379.92" class="colorbdc1e4 svgShape"></polygon><polygon fill="#fcf7f9" points="331.98 375.98 323.02 370.81 360.74 349.04 369.7 354.21 331.98 375.98" class="colorf7f7fc svgShape"></polygon><polygon fill="#e4bdcb" points="360.74 422.59 369.7 417.42 369.7 413.49 360.74 418.66 360.74 422.59" class="colorbdc1e4 svgShape"></polygon><polygon fill="#f6d0de" points="360.74 422.59 323.03 400.82 323.03 396.88 360.74 418.66 360.74 422.59" class="colord0d4f6 svgShape"></polygon><polygon fill="#fcf7f9" points="360.74 418.66 369.7 413.49 331.98 391.71 323.03 396.88 360.74 418.66" class="colorf7f7fc svgShape"></polygon><polygon fill="#e4bdcb" points="351.79 435.63 360.74 430.46 360.74 426.53 351.79 431.7 351.79 435.63" class="colorbdc1e4 svgShape"></polygon><polygon fill="#f6d0de" points="351.79 435.63 314.07 413.86 314.07 409.92 351.79 431.7 351.79 435.63" class="colord0d4f6 svgShape"></polygon><polygon fill="#fcf7f9" points="351.79 431.7 360.74 426.53 323.03 404.75 314.07 409.92 351.79 431.7" class="colorf7f7fc svgShape"></polygon><polygon fill="#e4bdcb" points="342.83 448.67 351.79 443.5 351.79 439.56 342.83 444.74 342.83 448.67" class="colorbdc1e4 svgShape"></polygon><polygon fill="#f6d0de" points="342.83 448.67 305.11 426.89 305.11 422.96 342.83 444.74 342.83 448.67" class="colord0d4f6 svgShape"></polygon><polygon fill="#fcf7f9" points="342.83 444.74 351.79 439.56 314.07 417.79 305.11 422.96 342.83 444.74" class="colorf7f7fc svgShape"></polygon><polygon fill="#e4bdcb" points="333.87 461.7 342.83 456.53 342.83 452.6 333.87 457.77 333.87 461.7" class="colorbdc1e4 svgShape"></polygon><polygon fill="#f6d0de" points="333.87 461.7 296.15 439.93 296.15 436 333.87 457.77 333.87 461.7" class="colord0d4f6 svgShape"></polygon><polygon fill="#fcf7f9" points="333.87 457.77 342.83 452.6 305.11 430.82 296.15 436 333.87 457.77" class="colorf7f7fc svgShape"></polygon><polygon fill="#e4bdcb" points="324.91 474.74 333.87 469.57 333.87 465.64 324.91 470.81 324.91 474.74" class="colorbdc1e4 svgShape"></polygon><polygon fill="#f6d0de" points="324.92 474.74 287.2 452.96 287.2 449.03 324.92 470.81 324.92 474.74" class="colord0d4f6 svgShape"></polygon><polygon fill="#fcf7f9" points="324.92 470.81 333.87 465.64 296.15 443.86 287.2 449.03 324.92 470.81" class="colorf7f7fc svgShape"></polygon><polygon fill="#e4bdcb" points="315.96 487.78 324.92 482.61 324.92 478.67 315.96 483.85 315.96 487.78" class="colorbdc1e4 svgShape"></polygon><polygon fill="#f6d0de" points="315.96 487.78 278.24 466 278.24 462.07 315.96 483.85 315.96 487.78" class="colord0d4f6 svgShape"></polygon><polygon fill="#fcf7f9" points="315.96 483.85 324.92 478.67 287.2 456.9 278.24 462.07 315.96 483.85" class="colorf7f7fc svgShape"></polygon><polygon fill="url(#ae)" style="mix-blend-mode:multiply" points="322.77 495.64 322.77 495.64 322.77 495.64 322.77 495.64 285.05 473.87 278.24 473.87 315.95 495.64 307 500.81 313.81 500.81 322.76 495.64 322.77 495.64"></polygon><polygon fill="#e4bdcb" points="307 500.81 315.96 495.64 315.96 491.71 307 496.88 307 500.81" class="colorbdc1e4 svgShape"></polygon><polygon fill="#f6d0de" points="307 500.81 269.28 479.04 269.28 475.11 307 496.88 307 500.81" class="colord0d4f6 svgShape"></polygon><polygon fill="#fcf7f9" points="307 496.88 315.96 491.71 278.24 469.94 269.28 475.11 307 496.88" class="colorf7f7fc svgShape"></polygon><polygon fill="#f6d0de" points="287.2 314.73 249.48 292.95 249.48 289.02 287.2 310.8 287.2 314.73" class="colord0d4f6 svgShape"></polygon><polygon fill="#e4bdcb" points="287.2 314.73 324.92 292.95 324.92 289.02 287.2 310.8 287.2 314.73" class="colorbdc1e4 svgShape"></polygon><polygon fill="#fcf7f9" points="287.2 310.8 249.48 289.02 287.2 267.25 324.92 289.02 287.2 310.8" class="colorf7f7fc svgShape"></polygon><polygon fill="#f6d0de" points="369.7 409.56 331.98 387.78 331.98 383.85 369.7 405.62 369.7 409.56" class="colord0d4f6 svgShape"></polygon><polygon fill="#e4bdcb" points="369.7 409.56 407.42 387.78 407.42 383.85 369.7 405.62 369.7 409.56" class="colorbdc1e4 svgShape"></polygon><polygon fill="#fcf7f9" points="369.7 405.62 331.98 383.85 369.7 362.07 407.42 383.85 369.7 405.62" class="colorf7f7fc svgShape"></polygon><polygon fill="url(#i)" style="mix-blend-mode:multiply" points="294.01 322.6 331.73 300.82 324.92 296.89 287.2 318.66 294.01 322.6"></polygon><polygon fill="url(#af)" style="mix-blend-mode:multiply" points="302.97 335.63 340.68 313.86 333.87 309.92 296.16 331.7 302.97 335.63"></polygon><polygon fill="url(#ag)" style="mix-blend-mode:multiply" points="311.93 348.67 349.64 326.89 342.83 322.96 305.12 344.73 311.93 348.67"></polygon><polygon fill="url(#ah)" style="mix-blend-mode:multiply" points="320.88 361.7 358.6 339.93 351.79 336 314.07 357.77 320.88 361.7"></polygon><polygon fill="url(#ai)" style="mix-blend-mode:multiply" points="329.84 374.74 367.55 352.96 360.74 349.03 323.03 370.81 329.84 374.74"></polygon><polygon fill="url(#aj)" style="mix-blend-mode:multiply" points="338.79 387.77 376.51 366 369.7 362.07 331.98 383.84 338.79 387.77"></polygon><polygon fill="url(#j)" style="mix-blend-mode:multiply" points="329.97 426.97 321.61 426.97 320.24 431.08 337.09 431.08 329.97 426.97"></polygon><polygon fill="url(#ak)" style="mix-blend-mode:multiply" points="349.18 419.85 342.21 419.85 340.84 423.95 356.26 423.94 349.18 419.85"></polygon><path fill="#f6afc9" d="M318.15,392.23c.54.94,1.49,1.92,1.72,2.53a5.82,5.82,0,0,1,.29,1.76c0,.31-.24,1.24-.63,1.08s-.54.25-.94.17-.25-.22-.25-.22c-.21.07-.49.08-.56-.08-.18,0-.26.24-.55-.11s-.31-.82-.49-1.1c-.59-.92-.35-3.62-.46-3.9S317.77,391.58,318.15,392.23Z" class="colorf6d3af svgShape"></path><path fill="url(#al)" d="M323.39,370.23c-7.78,5-8.68,14.77-7.34,22.77.92,1.34,2.88.68,2.66-.55C317.91,383.33,319.35,374.74,323.39,370.23Z"></path><path fill="url(#k)" d="M317.54,429.68c0-3.55,2.25-3.65,2.25-3.65a9.22,9.22,0,0,0,3.2-.83c1.95-.81,4.71-.49,3.17,2.35a.93.93,0,0,0-.05.1,1.48,1.48,0,0,1-.5.44L320.69,431C319.94,431.4,317.55,430.41,317.54,429.68Z"></path><path fill="#0e1555" d="M317.55,429.36c0,.73,2.39,1.7,3.14,1.28l4.92-2.89a4.54,4.54,0,0,0,.69-.5,2.63,2.63,0,0,1-.14.3.93.93,0,0,0-.05.1,1.48,1.48,0,0,1-.5.44L320.69,431c-.71.39-2.84-.45-3.12-1.16a.78.78,0,0,1,0-.14C317.54,429.57,317.55,429.47,317.55,429.36Z" class="color121244 svgShape"></path><path fill="#ffffff" d="M318.45,425.56a20.55,20.55,0,0,1,2.62.52,1.2,1.2,0,0,0,.19.53l.05.07c.41.28.82.72-.14,1.32a1.33,1.33,0,0,1-1.72-.12,1.47,1.47,0,0,0-.56-.63,1.39,1.39,0,0,0-.53-.23v0S318.21,425.56,318.45,425.56Z" class="colorfff svgShape"></path><path fill="#1c246b" d="M318.42,390.82l10,.18c-.83,6.68-2.5,12.76-3.61,19.23-1.2,6.3-2.54,10.72-3.72,16-.43,1-2.39.61-2.79-.33-.31-4.83-.67-10.7.76-16.27C318.83,403.59,318.28,396.87,318.42,390.82Z" class="color1e1c6b svgShape"></path><path fill="url(#am)" d="M338.11,422.56c0-3.55,2.25-3.65,2.25-3.65a9.32,9.32,0,0,0,3.2-.82c2-.82,4.71-.5,3.17,2.34l-.05.1a1.39,1.39,0,0,1-.5.44l-4.92,2.89C340.51,424.28,338.13,423.29,338.11,422.56Z"></path><path fill="#0e1555" d="M338.12,422.24c.05.73,2.4,1.71,3.14,1.28l4.92-2.88a5.62,5.62,0,0,0,.69-.51,2.63,2.63,0,0,1-.14.3l-.05.1a1.39,1.39,0,0,1-.5.44l-4.92,2.89c-.7.4-2.84-.45-3.12-1.15a1,1,0,0,1,0-.15C338.11,422.45,338.12,422.35,338.12,422.24Z" class="color121244 svgShape"></path><path fill="#ffffff" d="M339,418.44a20.93,20.93,0,0,1,2.62.52,1.12,1.12,0,0,0,.18.53l.06.07c.4.28.81.72-.15,1.32a1.33,1.33,0,0,1-1.72-.12,1.51,1.51,0,0,0-.55-.63,1.53,1.53,0,0,0-.53-.23v0S338.78,418.44,339,418.44Z" class="colorfff svgShape"></path><path fill="url(#an)" d="M333.82,396.74c-2.2.33-13.31-4.88-15.51-4.56-.46,12.92,10.11,12.38,19.28,11.65l.08,0a53,53,0,0,0,1.22,15.33c.55.86,2.55.91,2.81-.13.3-5.36,1.65-9.94,1.8-16.35C343.54,396.09,338.89,396.89,333.82,396.74Z"></path><path fill="url(#ao)" d="M323,398.59c4.77,2.68,9.76,2.68,11.46-.61-.64-6.12-1.23-11.11,0-17-.36-3.24-.62-3.73-.2-5.62-.15-.63-2.1-2-3.52-3.28s-2.57-2.74-3.36-2.9c-6.52-1.33-9.69,10.29-9.14,22.68A9,9,0,0,0,323,398.59Z"></path><path fill="#f6afc9" d="M323.78,369.94c1.42-1,2-3.54,2.23-4.93a7.06,7.06,0,0,1,.3-2.42c.93-3,3.61-4.92,5.87-4,4.55,1.76,3,3.95,2,6.91-.85,2.74-2.68,4.24-4.86,3.91a2.29,2.29,0,0,0,.64,2,6,6,0,0,1-4.84.09C324.18,371,323.12,370.63,323.78,369.94Z" class="colorf6d3af svgShape"></path><path fill="#63318f" d="M334.41,357.52c0-.4-.69-.81-3.36-.46l-.69.1c-5,.87-5.14,6.35-4.8,7.9a2.85,2.85,0,0,1,0,1.73c1.8.35,2.12,1.49,3.5.76a24.92,24.92,0,0,0,2.7-1.36,1.39,1.39,0,0,0,.37-.83c.61-2.5,1.4-.69,1.22-.13.53-.11.74-1.13,1-2.25h0C338.81,361,337.22,358.56,334.41,357.52Z" class="color34318f svgShape"></path><path fill="#f6afc9" d="M340.23,393.34c1.1.67,1.75,0,2.38.32s.35.72.66.86a1.46,1.46,0,0,1,1,1.28,2.11,2.11,0,0,1-1.61,2.37c-.6.15-.83.5-2.23-.69-.56-.48-.22-1.07-1.45-1.84A12.12,12.12,0,0,0,340.23,393.34Z" class="colorf6d3af svgShape"></path><path fill="url(#ap)" d="M331.68,374.32c1.57-.32,2.36.27,2.6,1.06.18,1.54,1.21,11.22,1.25,11.88,1.36,1.69,2.77,3.6,5,6,1.29,1.37-.29,3.56-1.62,2.8-.59-.34-5.79-4.39-6.95-6.12-2.09-2.44-2.87-9.29-3-10.95C328.67,376.6,330.12,374.63,331.68,374.32Z"></path><polygon fill="url(#aq)" style="mix-blend-mode:multiply" points="449.16 203.68 397.3 203.68 419.05 216.24 338.45 262.78 390.3 262.78 468.72 217.48 470.91 216.24 449.16 203.68"></polygon><polygon fill="#f47fd4" points="338.45 262.78 316.69 250.22 316.69 220.28 338.45 232.84 338.45 262.78" class="color7f7ff4 svgShape"></polygon><path fill="#9155c6" d="M416.9,187.56l-78.45,45.28v29.94l80.61-46.54V186.3Zm0,27.46-76.3,44v-25l76.3-44Z" class="color5555c6 svgShape"></path><polygon fill="url(#ar)" points="340.6 259.05 340.6 234.08 395.28 202.53 416.9 215.01 340.6 259.05"></polygon><polygon fill="#fcf7f9" points="419.06 186.3 397.3 173.74 316.69 220.28 338.45 232.84 419.06 186.3" class="colorf7f7fc svgShape"></polygon><polygon fill="#f47fd4" points="416.9 215.01 395.28 202.53 416.9 190.05 416.9 215.01" class="color7f7ff4 svgShape"></polygon><path fill="url(#m)" style="mix-blend-mode:multiply" d="M362.37,241.2c2.75,0,7.53-1.2,7.53-3.59S364,233.13,359,233.13,357.53,241.2,362.37,241.2Z"></path><path fill="url(#l)" d="M351.63,235.93l7.86,4.54c1.93,1.11,4.74.88,5.77-.15s.39-3.43-.95-4.64a48.82,48.82,0,0,1-4.31-4.53c-1.42-1.34-2.75-2.51-3.9-2.59C351,228.21,349.28,234.58,351.63,235.93Z"></path><path fill="#fcf7f9" d="M352,233.18a1.54,1.54,0,0,1-.61-1,4,4,0,0,0-.21.86,1.55,1.55,0,0,0,.52.66l.56.39a4,4,0,0,1,.14-.67Z" class="colorf7f7fc svgShape"></path><path fill="#ba3897" d="M353.41,232.49c2.1,1.29,7-.41,5.85-2.23a6.3,6.3,0,0,0-3.16-1.7,2.74,2.74,0,0,0-1.51.31C353.13,229.42,351.68,231.42,353.41,232.49Z" class="colorba6038 svgShape"></path><path fill="#ed5a8f" d="M359.14,232.55l.91-1.35c-.36-.68-.78-2.08-1.77-1.93s-3.18,1.91-2.5,3.17a1.57,1.57,0,0,0,1.92.88Z" class="colored995a svgShape"></path><path fill="#ffffff" d="M359.71 231.14c-.12.74-.92 1.72-2.77 2h0a.35.35 0 00-.28.4.34.34 0 00.4.28h0c2.21-.37 3.17-1.59 3.33-2.6h0a.34.34 0 00-.68-.11zM360.81 232.46c-.12.73-.91 1.71-2.76 2h0a.35.35 0 00-.29.4.34.34 0 00.4.28h0c2.21-.37 3.17-1.58 3.33-2.59h0a.34.34 0 00-.28-.4.35.35 0 00-.4.29zM361.85 233.7c-.12.74-.92 1.71-2.77 2h0a.34.34 0 00-.28.4.35.35 0 00.4.28h0c2.2-.38 3.16-1.59 3.33-2.6h0a.34.34 0 00-.29-.39.33.33 0 00-.39.28z" class="colorfff svgShape"></path><path fill="url(#n)" style="mix-blend-mode:multiply" d="M356.27,244.79c2.75,0,8-1.2,8-3.59s-6.32-4.49-11.29-4.49S351.43,244.79,356.27,244.79Z"></path><path fill="url(#as)" d="M345.41,239.52l7.86,4.54c1.94,1.11,4.74.88,5.77-.15s.4-3.43-1-4.65a49.1,49.1,0,0,1-4.31-4.53c-1.42-1.33-2.75-2.51-3.9-2.58C344.82,231.8,343.07,238.17,345.41,239.52Z"></path><path fill="#fcf7f9" d="M345.8,236.77a1.58,1.58,0,0,1-.61-1,4.18,4.18,0,0,0-.2.87,1.46,1.46,0,0,0,.51.66l.57.38a4,4,0,0,1,.13-.66Z" class="colorf7f7fc svgShape"></path><path fill="#ba3897" d="M347.2,236.08c2.1,1.29,7-.42,5.85-2.24a6.34,6.34,0,0,0-3.17-1.69,2.81,2.81,0,0,0-1.51.3C346.91,233,345.47,235,347.2,236.08Z" class="colorba6038 svgShape"></path><path fill="#ed5a8f" d="M352.92,236.14l.91-1.35c-.36-.68-.77-2.08-1.77-1.93s-3.17,1.91-2.49,3.17a1.57,1.57,0,0,0,1.91.88Z" class="colored995a svgShape"></path><path fill="#ffffff" d="M353.49 234.73c-.12.74-.91 1.71-2.76 2h0a.35.35 0 00-.29.4.36.36 0 00.4.28h0c2.21-.38 3.17-1.59 3.33-2.6h0a.33.33 0 00-.28-.39.34.34 0 00-.4.28zM354.6 236c-.12.74-.92 1.72-2.77 2h0a.35.35 0 00.12.68h0c2.2-.37 3.16-1.59 3.33-2.59h0a.35.35 0 00-.29-.4.34.34 0 00-.39.28zM355.63 237.29c-.12.74-.92 1.71-2.76 2h0a.34.34 0 10.11.68h0c2.21-.38 3.17-1.59 3.33-2.6h0a.36.36 0 00-.28-.4.35.35 0 00-.4.29z" class="colorfff svgShape"></path><path fill="url(#at)" style="mix-blend-mode:multiply" d="M400.85,219.68c2.75,0,7.53-1.21,7.53-3.6s-5.9-4.48-10.86-4.48S396,219.68,400.85,219.68Z"></path><path fill="url(#au)" d="M390.1,214.4l7.87,4.54c1.93,1.12,4.73.88,5.77-.15s.39-3.42-.95-4.64a49.79,49.79,0,0,1-4.32-4.53c-1.42-1.34-2.74-2.51-3.9-2.59C389.51,206.68,387.76,213.05,390.1,214.4Z"></path><path fill="#fcf7f9" d="M390.5,211.65a1.54,1.54,0,0,1-.61-1,3.48,3.48,0,0,0-.21.86,1.41,1.41,0,0,0,.52.66l.56.39a3.2,3.2,0,0,1,.14-.67Z" class="colorf7f7fc svgShape"></path><path fill="#ba3897" d="M391.89,211c2.1,1.3,7-.41,5.85-2.23a6.33,6.33,0,0,0-3.17-1.7,2.7,2.7,0,0,0-1.5.31C391.61,207.89,390.16,209.9,391.89,211Z" class="colorba6038 svgShape"></path><path fill="#ed5a8f" d="M397.62,211l.91-1.36c-.37-.68-.78-2.08-1.78-1.93s-3.17,1.92-2.49,3.17a1.58,1.58,0,0,0,1.92.89Z" class="colored995a svgShape"></path><path fill="#ffffff" d="M398.19 209.62c-.12.73-.92 1.71-2.77 2h0a.35.35 0 10.12.68h0c2.2-.37 3.16-1.58 3.33-2.59h0a.35.35 0 00-.29-.4.34.34 0 00-.39.29zM399.29 210.93c-.12.74-.92 1.71-2.77 2h0a.35.35 0 00-.28.39.35.35 0 00.4.29h0c2.21-.38 3.17-1.59 3.33-2.6h0a.34.34 0 10-.68-.11zM400.32 212.17c-.12.74-.91 1.72-2.76 2h0a.34.34 0 00.11.68h0c2.21-.37 3.17-1.59 3.33-2.6h0a.33.33 0 00-.28-.39.35.35 0 00-.4.28z" class="colorfff svgShape"></path><path fill="url(#av)" style="mix-blend-mode:multiply" d="M394.75,223.26c2.75,0,7.95-1.2,7.95-3.59s-6.31-4.48-11.28-4.48S389.91,223.26,394.75,223.26Z"></path><path fill="url(#aw)" d="M383.89,218l7.86,4.54c1.93,1.11,4.74.88,5.77-.15s.4-3.42-.95-4.64a50.4,50.4,0,0,1-4.31-4.53c-1.42-1.34-2.75-2.51-3.9-2.59C383.29,210.27,381.54,216.64,383.89,218Z"></path><path fill="#fcf7f9" d="M384.28,215.24a1.54,1.54,0,0,1-.61-1,3.45,3.45,0,0,0-.2.86,1.46,1.46,0,0,0,.51.66l.56.39a4,4,0,0,1,.14-.67Z" class="colorf7f7fc svgShape"></path><path fill="#ba3897" d="M385.67,214.55c2.11,1.3,7-.41,5.85-2.23a6.3,6.3,0,0,0-3.16-1.7,2.74,2.74,0,0,0-1.51.31C385.39,211.48,383.94,213.48,385.67,214.55Z" class="colorba6038 svgShape"></path><path fill="#ed5a8f" d="M391.4,214.62l.91-1.36c-.36-.68-.78-2.08-1.77-1.93s-3.18,1.92-2.5,3.17a1.58,1.58,0,0,0,1.92.89Z" class="colored995a svgShape"></path><path fill="#ffffff" d="M392 213.2c-.12.74-.92 1.72-2.77 2h0a.35.35 0 00-.28.4.34.34 0 00.4.28h0c2.21-.37 3.17-1.59 3.33-2.59h0a.35.35 0 00-.29-.4.35.35 0 00-.39.28zM393.07 214.52c-.12.74-.91 1.71-2.76 2h0a.35.35 0 00.11.69h0c2.21-.38 3.17-1.59 3.33-2.6h0a.34.34 0 00-.28-.4.35.35 0 00-.4.29zM394.11 215.76c-.12.74-.92 1.71-2.77 2h0a.35.35 0 00.12.68h0c2.2-.38 3.17-1.59 3.33-2.6h0a.34.34 0 00-.29-.39.33.33 0 00-.39.28z" class="colorfff svgShape"></path><path fill="url(#ax)" style="mix-blend-mode:multiply" d="M381.63,230.1c2.75,0,7.53-.67,7.53-2s-5.9-2.49-10.86-2.49S376.79,230.1,381.63,230.1Z"></path><path fill="#e26ac2" d="M371,219.29c-.41,1.58.35,4,.26,6.17.31.69.93.43,1,0a19.79,19.79,0,0,1,0-3.53A27.39,27.39,0,0,0,371,219.29Z" class="color6a6ae2 svgShape"></path><path fill="url(#o)" d="M375.85,228.69c1.32.88,6.55,2,7.48,1.06s-.42-3-2.24-4.09a11.34,11.34,0,0,1-4.35-4.42c-1.28-2.35-2.85-4.16-4.59-3.56s-1.26,3.85-.77,4.9C372,223.89,373.1,226.87,375.85,228.69Z"></path><path fill="#7941aa" d="M381,225.6h0a11.19,11.19,0,0,1-4.25-4.35,12.2,12.2,0,0,0-1.8-2.58c-2.17-2.15-3.17,1-1.26,3.86s3,3.86,4.87,4.36S381.84,226.19,381,225.6Z" class="color4141aa svgShape"></path><path fill="url(#ay)" style="mix-blend-mode:multiply" d="M378,232.74c2.75,0,7.54-.67,7.54-2s-5.9-2.49-10.87-2.49S373.14,232.74,378,232.74Z"></path><path fill="#e26ac2" d="M366.46,221.91c-.41,1.58.35,4,.26,6.18.31.68.93.42,1,0a19.67,19.67,0,0,1,0-3.52A28.54,28.54,0,0,0,366.46,221.91Z" class="color6a6ae2 svgShape"></path><path fill="url(#az)" d="M371.3,231.32c1.33.88,6.56,2,7.49,1.06s-.42-3-2.25-4.1a11.32,11.32,0,0,1-4.35-4.41c-1.28-2.35-2.85-4.17-4.58-3.57s-1.26,3.86-.78,4.9C367.43,226.51,368.55,229.5,371.3,231.32Z"></path><path fill="#7941aa" d="M376.44,228.22h0a11.26,11.26,0,0,1-4.25-4.35,11.7,11.7,0,0,0-1.8-2.58c-2.17-2.16-3.17,1-1.26,3.85s3,3.86,4.87,4.37S377.29,228.81,376.44,228.22Z" class="color4141aa svgShape"></path><path fill="url(#p)" style="mix-blend-mode:multiply" d="M384.14,202a86.59,86.59,0,0,0-8.95-5.92c-2.06-1.19-6.72-1.57-5.26-.73l5.16,3L361.78,206c-.65-.4-1.28-.77-1.87-1.12-2.06-1.19-6.72-1.57-5.26-.73l12.61,7.28a1.89,1.89,0,0,0,1.85.2h0l15.19-8.73.05,0h0C384.6,202.69,384.59,202.4,384.14,202Z"></path><path fill="url(#aA)" style="mix-blend-mode:multiply" d="M407.62,188.42a86.31,86.31,0,0,0-8.95-5.91c-2.07-1.2-6.72-1.58-5.27-.74l5.17,3-13.32,7.65c-.64-.39-1.27-.77-1.86-1.11-2.07-1.2-6.72-1.58-5.26-.74s10.75,6.21,12.61,7.29a1.9,1.9,0,0,0,1.85.19h0l15.19-8.73.05,0h0C408.07,189.11,408.07,188.81,407.62,188.42Z"></path><path fill="url(#aB)" style="mix-blend-mode:multiply" d="M360.11,215.88a86.85,86.85,0,0,0-8.95-5.91c-2.07-1.2-6.72-1.58-5.26-.73l5.16,3-13.31,7.65c-.65-.39-1.28-.77-1.87-1.11-2.06-1.2-6.72-1.57-5.26-.73l12.61,7.28a1.9,1.9,0,0,0,1.85.19h0l15.19-8.73.05,0h0C360.57,216.57,360.56,216.27,360.11,215.88Z"></path><path fill="url(#q)" d="M358.09,217.17c.14-.3-.55-1.4-1.7-2.29-1.78-1.37-7-4.77-10.25-6.66-.94-.54-1.58-.44-1.87-.08h0L330,216.37l13.79,9.07s14.26-8.23,14.28-8.27Z"></path><path fill="#9155c6" d="M343.23,225.31,330.62,218c-1.46-.85-.8-2.77,1.27-1.58,3.28,1.9,8.46,5.29,10.24,6.66C343.74,224.35,344.46,226,343.23,225.31Z" class="color5555c6 svgShape"></path><path fill="#e7c6d2" style="mix-blend-mode:multiply" d="M343.8,225.06l-6.09-3.89.34,1.15,5.18,3C343.79,225.63,344,225.46,343.8,225.06Z" class="colorc6cbe7 svgShape"></path><path fill="#7941aa" d="M351.85,216.11c.2.14.39.27.55.4l2.46-1.42-.55-.4Z" class="color4141aa svgShape"></path><path fill="url(#aC)" d="M382.12,203.29c.14-.3-.55-1.4-1.7-2.28-1.78-1.37-7-4.77-10.24-6.66-.95-.55-1.59-.44-1.88-.09h0L354,202.49l13.79,9.08s14.26-8.23,14.28-8.27Z"></path><path fill="#9155c6" d="M367.26,211.43l-12.61-7.28c-1.46-.84-.8-2.77,1.27-1.57,3.28,1.89,8.46,5.29,10.24,6.66C367.77,210.48,368.5,212.15,367.26,211.43Z" class="color5555c6 svgShape"></path><path fill="#e7c6d2" style="mix-blend-mode:multiply" d="M367.83,211.19l-6.09-3.9.35,1.15,5.17,3C367.82,211.76,368,211.58,367.83,211.19Z" class="colorc6cbe7 svgShape"></path><path fill="#ffffff" d="M375.88,202.24l.55.39,2.46-1.41-.55-.4Z" class="colorfff svgShape"></path><path fill="url(#aD)" d="M405.59,189.7c.15-.29-.54-1.39-1.69-2.28-1.78-1.37-7-4.77-10.25-6.66-.94-.54-1.58-.44-1.87-.08h0l-14.26,8.24,13.8,9.07s14.25-8.23,14.28-8.27h0Z"></path><path fill="#d6477b" d="M390.74,197.85l-12.61-7.28c-1.46-.85-.8-2.77,1.27-1.58,3.27,1.89,8.46,5.29,10.24,6.66C391.25,196.89,392,198.56,390.74,197.85Z" class="colord67747 svgShape"></path><path fill="#f4dce5" style="mix-blend-mode:multiply" d="M391.3,197.6l-6.09-3.89.35,1.15,5.18,3C391.3,198.17,391.45,198,391.3,197.6Z" class="colordce1f4 svgShape"></path><path fill="#ffffff" d="M390.09,194c.2.13.38.27.55.39l2.45-1.42-.55-.39Z" class="colorfff svgShape"></path><g clip-path="url(#aE)" fill="#000000" class="color000 svgShape"><polygon fill="#fcf7f9" points="432.87 154.65 430.71 153.4 452.46 140.85 454.62 142.09 432.87 154.65" class="colorf7f7fc svgShape"></polygon><polygon fill="#e4bdcb" points="432.87 157.04 432.87 154.65 454.62 142.09 454.62 144.48 432.87 157.04" class="colorbdc1e4 svgShape"></polygon><polygon fill="#9155c6" points="534.29 269.31 534.29 213.21 556.05 200.65 556.05 256.75 534.29 269.31" class="color5555c6 svgShape"></polygon><polygon fill="#fcf7f9" points="532.14 214.36 432.87 157.04 454.62 144.48 553.89 201.8 532.14 214.36" class="colorf7f7fc svgShape"></polygon><polygon fill="#fcf7f9" points="534.29 213.21 532.14 211.97 553.89 199.41 556.05 200.65 534.29 213.21" class="colorf7f7fc svgShape"></polygon><polygon fill="#f9f6f7" points="532.14 238.13 432.86 180.81 451.3 170.17 532.14 216.84 532.14 238.13" class="colorf6f6f9 svgShape"></polygon><polygon fill="#9155c6" points="432.86 180.81 451.3 170.17 432.86 159.53 432.86 180.81" class="color5555c6 svgShape"></polygon><polygon fill="url(#aF)" style="mix-blend-mode:multiply" points="432.86 180.81 451.3 170.17 469.74 180.81 432.86 180.81"></polygon><polygon fill="#9155c6" points="432.87 210.75 434.94 209.56 432.87 208.36 432.87 210.75" class="color5555c6 svgShape"></polygon><path fill="#f47fd4" d="M532.14,212v2.39L432.86,157v-2.39l-2.15-1.25v56.11l2.15,1.24v-2.39l99.28,57.32v2.39l2.15,1.24v-56.1Zm-99.28-52.44,99.28,57.31v21.29l-99.28-57.32Zm99.28,103.66-99.28-57.32V183.3l99.28,57.32Z" class="color7f7ff4 svgShape"></path><polygon fill="#e26ac2" points="465.96 224.98 432.87 205.88 432.87 183.3 465.96 202.41 465.96 224.98" class="color6a6ae2 svgShape"></polygon><path fill="url(#aG)" style="mix-blend-mode:multiply" d="M448.74,205.14a1.41,1.41,0,1,1,1.41,1.41A1.41,1.41,0,0,1,448.74,205.14Z"></path><path fill="#ffffff" d="M448,204.14a1.41,1.41,0,1,1,1.41,1.41A1.4,1.4,0,0,1,448,204.14Z" class="colorfff svgShape"></path><polygon fill="#f47fd4" points="499.05 244.09 465.96 224.98 465.96 202.41 499.05 221.51 499.05 244.09" class="color7f7ff4 svgShape"></polygon><path fill="url(#aH)" style="mix-blend-mode:multiply" d="M481.83,224.25a1.41,1.41,0,1,1,1.41,1.41A1.4,1.4,0,0,1,481.83,224.25Z"></path><path fill="#ffffff" d="M481.1,223.24a1.41,1.41,0,1,1,1.4,1.41A1.4,1.4,0,0,1,481.1,223.24Z" class="colorfff svgShape"></path><polygon fill="#e26ac2" points="532.14 263.19 499.05 244.09 499.05 221.51 532.14 240.62 532.14 263.19" class="color6a6ae2 svgShape"></polygon><path fill="url(#aI)" style="mix-blend-mode:multiply" d="M514.92,243.36a1.41,1.41,0,1,1,1.41,1.4A1.41,1.41,0,0,1,514.92,243.36Z"></path><path fill="#ffffff" d="M514.19,242.35a1.41,1.41,0,1,1,1.4,1.41A1.4,1.4,0,0,1,514.19,242.35Z" class="colorfff svgShape"></path><polygon fill="url(#aJ)" style="mix-blend-mode:multiply" points="556.05 254.2 556.05 256.75 534.29 269.31 582.23 269.31 556.05 254.2"></polygon><polygon fill="#e7c6d2" points="432.87 210.75 437 210.75 434.94 209.56 432.87 210.75" class="colorc6cbe7 svgShape"></polygon></g><polygon fill="#f6d0de" points="537.16 363.25 567.73 380.9 567.73 423.73 537.16 406.08 537.16 363.25" class="colord0d4f6 svgShape"></polygon><polygon fill="#fce0ea" points="567.73 380.9 537.16 363.25 567.73 345.6 567.73 380.9" class="colore0e4fc svgShape"></polygon><polygon fill="url(#aK)" style="mix-blend-mode:multiply" points="563.95 357.79 553.54 357.79 563.01 363.25 553.54 368.72 563.95 368.72 573.42 363.25 563.95 357.79"></polygon><polygon fill="#9155c6" points="553.54 357.36 544.06 351.89 553.54 346.42 563.01 351.89 553.54 357.36" class="color5555c6 svgShape"></polygon><polygon fill="#ed5a8f" points="549.1 354.8 548.4 354.39 557.87 348.92 558.57 349.33 549.1 354.8" class="colored995a svgShape"></polygon><polygon fill="#1c246b" points="553.54 368.72 563.01 363.25 563.01 351.89 553.54 357.36 553.54 368.72" class="color1e1c6b svgShape"></polygon><polygon fill="#63318f" points="553.54 368.72 544.06 363.25 544.06 351.89 553.54 357.36 553.54 368.72" class="color34318f svgShape"></polygon><polygon fill="#63318f" points="553.54 362.22 563.01 356.75 563.01 351.89 553.54 357.36 553.54 362.22" class="color34318f svgShape"></polygon><polygon fill="#7941aa" points="553.54 362.22 544.06 356.75 544.06 351.89 553.54 357.36 553.54 362.22" class="color4141aa svgShape"></polygon><polygon fill="#d6477b" points="549.1 366.16 548.4 365.76 548.4 354.39 549.1 354.8 549.1 366.16" class="colord67747 svgShape"></polygon><polygon fill="#ed5a8f" points="557.97 354.8 558.67 354.39 549.2 348.92 548.5 349.33 557.97 354.8" class="colored995a svgShape"></polygon><polygon fill="#ba3897" points="557.97 366.16 558.67 365.76 558.67 354.39 557.97 354.8 557.97 366.16" class="colorba6038 svgShape"></polygon><path fill="#f378a4" d="M556.88,346a1.06,1.06,0,0,0-1,0c-1,.52-1.89,2.59-2.35,4.25a2.64,2.64,0,0,0-1.65-1.61c-.44-.08-1.1,0-1.72,1.08-.79,1.31-.38,2-.07,2.35a2.21,2.21,0,0,0,1.61.56,4.4,4.4,0,0,0,2.11-.56c1.42-.82,3.74-3.52,3.7-5.06A1.12,1.12,0,0,0,556.88,346Zm-6.24,5.52c-.33-.33-.08-.93.18-1.38s.5-.71.83-.71h.07c.55.1,1.16,1.12,1.41,2.08A2.57,2.57,0,0,1,550.64,351.53Zm3.55-.73c.43-1.66,1.28-3.69,2-4.07a.32.32,0,0,1,.17-.05.35.35,0,0,1,.12,0,.36.36,0,0,1,.19.34C556.72,348,555.4,349.75,554.19,350.8Z" class="colorf3b378 svgShape"></path><g clip-path="url(#aL)" fill="#000000" class="color000 svgShape"><path fill="url(#aM)" style="mix-blend-mode:multiply" d="M491.38,194.53l-6-3.47H479.8l6,3.47Zm-13.94,4.84H483l8.37-4.84h-5.56Z"></path><polygon fill="#f47fd4" points="479.8 187.85 485.82 191.32 477.44 196.16 471.43 192.68 479.8 187.85" class="color7f7ff4 svgShape"></polygon><polygon fill="#9155c6" points="471.43 192.68 477.44 196.16 477.44 199.37 471.43 195.9 471.43 192.68" class="color5555c6 svgShape"></polygon><polygon fill="#63318f" points="477.44 196.16 485.82 191.32 485.82 194.53 477.44 199.37 477.44 196.16" class="color34318f svgShape"></polygon><polygon fill="url(#aN)" style="mix-blend-mode:multiply" points="524.11 206.61 524.11 206.61 524.11 206.61 512.46 199.88 497.45 199.88 509.1 206.61 509.1 206.61 497.45 213.34 512.46 213.34 524.11 206.61 524.11 206.61 524.11 206.61"></polygon><polygon fill="#ba3897" points="497.45 204.67 509.1 197.94 509.1 206.61 497.45 213.34 497.45 204.67" class="colorba6038 svgShape"></polygon><polygon fill="#ed5a8f" points="497.72 191.37 509.1 197.94 497.45 204.67 486.07 198.1 497.72 191.37" class="colored995a svgShape"></polygon><polygon fill="#d6477b" points="486.07 198.1 497.45 204.67 497.45 213.34 486.07 206.76 486.07 198.1" class="colord67747 svgShape"></polygon><polygon fill="#f779a7" points="494.18 208.02 489.34 205.22 489.34 203.42 494.18 206.22 494.18 208.02" class="colorf7c479 svgShape"></polygon><polygon fill="url(#aO)" style="mix-blend-mode:multiply" points="524.63 209.4 513.94 209.4 522.31 214.24 510.66 220.96 521.36 220.96 533 214.24 524.63 209.4"></polygon><polygon fill="#ed5a8f" points="513.94 203.23 522.31 208.06 510.66 214.79 502.29 209.95 513.94 203.23" class="colored995a svgShape"></polygon><polygon fill="#d6477b" points="502.29 209.95 510.66 214.79 510.66 220.96 502.29 216.13 502.29 209.95" class="colord67747 svgShape"></polygon><polygon fill="#ba3897" points="510.66 214.79 522.31 208.06 522.31 214.24 510.66 220.96 510.66 214.79" class="colorba6038 svgShape"></polygon></g><polygon fill="url(#aP)" style="mix-blend-mode:multiply" points="443.58 270.49 419.13 270.49 416.14 275.54 443.58 275.54 443.58 270.49"></polygon><polygon fill="url(#aQ)" style="mix-blend-mode:multiply" points="450.75 263.85 426.31 263.85 423.31 267.06 450.75 267.06 450.75 263.85"></polygon><polygon fill="#d6477b" points="417.35 249.41 407.53 255.09 406.9 239.62 416.73 233.95 417.35 249.41" class="colord67747 svgShape"></polygon><path fill="url(#aR)" style="mix-blend-mode:multiply" d="M414.64,249.1c.61-1.82,1.58-3.88,2.46-6l-.34-8.42-1.1-.09-4.05,2.33c-1.33,4-3.47,11.47-1.93,13.93a15.46,15.46,0,0,0,1.65,2.06l4.76-2.75A5.67,5.67,0,0,0,414.64,249.1Z"></path><polygon fill="#ed5a8f" points="407.53 255.09 405.36 253.83 405.95 239.07 406.44 239.35 406.9 239.62 407.53 255.09" class="colored995a svgShape"></polygon><polygon fill="#932b77" points="405.95 239.07 406.9 239.62 415.77 234.5 415.77 233.4 405.95 239.07" class="colora55232 svgShape"></polygon><path fill="#1c246b" d="M409.74,239.18v-3a5,5,0,0,1,2.26-3.91,1.29,1.29,0,0,1,2.14,1.23v3h0a.12.12,0,0,0,.11.12.12.12,0,0,0,.12-.12h0v-3a1.52,1.52,0,0,0-2.49-1.44,5.25,5.25,0,0,0-2.38,4.12v3h0a.12.12,0,0,0,.12.12.12.12,0,0,0,.12-.12Z" class="color1e1c6b svgShape"></path><polygon fill="#ba3897" points="415.77 233.4 415.77 234.5 416.73 233.95 415.77 233.4" class="colorba6038 svgShape"></polygon><path fill="#f6afc9" d="M416.2,212.62c0-2.76-3.81-1.62-3.36,2.57.55,5.2.8,7.67.47,9.5-.48,1.45-1.39,3.74-2,6.12-.15.5-.75.93-1,1.73a4.18,4.18,0,0,0,.1,1.8c.24,1.12.92.45.92.45a.51.51,0,0,0,.66.1.63.63,0,0,0,.81,0c.31-.28.49.52.93-.23a4.39,4.39,0,0,0-.07-3.34v-.09c.62-1.45,2.29-4.78,2.22-4.81C417.29,223.14,415.89,216.14,416.2,212.62Z" class="colorf6d3af svgShape"></path><path fill="url(#s)" d="M425.4,259.17c.92-.63,2.38.44,2.75,1.63a4.23,4.23,0,0,1-.36,1.38,34.13,34.13,0,0,1-2.07,4c-.53.59-2.66,1.43-3.69.55-.74-.95.73-1.52,1-2.47.35-1.23.2-2.22.55-3.15A7.36,7.36,0,0,1,425.4,259.17Z"></path><path fill="#0e1555" d="M428.06,260.57h0a4.22,4.22,0,0,1-.36,1.37,33.7,33.7,0,0,1-2.08,4c-.52.59-2.65,1.43-3.68.55l-.11-.16a1,1,0,0,0,.19.38c1,.88,3.16,0,3.69-.55a34.13,34.13,0,0,0,2.07-4,4.23,4.23,0,0,0,.36-1.38A1.09,1.09,0,0,0,428.06,260.57Z" class="color121244 svgShape"></path><path fill="#f6afc9" d="M422.86,260a19.07,19.07,0,0,1,2.32-1,1.14,1.14,0,0,0,.42.32l.08,0a.87.87,0,0,1,.78,1.37c-1,1.8-3.31,1.74-3.06.88C423.57,261,423.1,260.3,422.86,260Z" class="colorf6d3af svgShape"></path><path fill="#63318f" d="M423.36,262c-.07-.29-.16-.9.57-1s1.63.24,1.56.69C425.34,262.64,423.43,262.31,423.36,262Z" class="color34318f svgShape"></path><path fill="url(#aS)" d="M425.22,258.83c-.87-1.17-6.5-9-9.52-10,1-4.26,3.86-10,3-14.56h-6.43s-3.81,13.51-1.37,16.73c1.85,2.44,9.39,8.19,12.44,10.15C424.91,261.74,425.74,259.73,425.22,258.83Z"></path><path fill="#ffffff" d="M423.3 263.3a2.32 2.32 0 011.47.09.32.32 0 10.26-.58 3 3 0 00-1.93-.12.32.32 0 00.2.61zM423 264.41a2.42 2.42 0 011.47.1.32.32 0 00.26-.59 3 3 0 00-1.93-.11.31.31 0 00-.2.4A.31.31 0 00423 264.41z" class="colorfff svgShape"></path><path fill="url(#aT)" d="M420.75,270.22c1.1.18,1.42,2,.87,3.08a4.3,4.3,0,0,1-1.21.74,33.54,33.54,0,0,1-4.27,1.49c-.79.07-2.53-.22-2.68-1.57.14-.81.83-1,1.67-1.54,1.1-.66,2.05-1.6,2.93-2A7.39,7.39,0,0,1,420.75,270.22Z"></path><path fill="#0e1555" d="M416.16,275.18a35.41,35.41,0,0,0,4.4-1.54,4.62,4.62,0,0,0,1.21-.73,3.12,3.12,0,0,1-.15.39,4.3,4.3,0,0,1-1.21.74,33.54,33.54,0,0,1-4.27,1.49c-.79.07-2.53-.22-2.68-1.57a.19.19,0,0,0,0-.08C413.85,275,415.42,275.24,416.16,275.18Z" class="color121244 svgShape"></path><path fill="#f6afc9" d="M418.37,269a18.42,18.42,0,0,1,2.36.87,1.07,1.07,0,0,0,.09.52.43.43,0,0,0,0,.07c.33.33.68.9-.33,1.21-2,.62-3.64-.7-2.87-1.14C418.18,270.27,418.3,269.45,418.37,269Z" class="colorf6d3af svgShape"></path><path fill="#63318f" d="M417.33,270.83c.14-.19.48-.71,1.08-.28a1.43,1.43,0,0,1,.7,1.43c-.07.45-1.37.12-1.42,0S417.33,270.83,417.33,270.83Z" class="color34318f svgShape"></path><path fill="#ffffff" d="M416.73 271.39a2.64 2.64 0 011.18 1.14.35.35 0 00.47.17.36.36 0 00.17-.47 3.37 3.37 0 00-1.54-1.49.35.35 0 00-.46.19A.34.34 0 00416.73 271.39zM415.64 272.09a2.58 2.58 0 011.17 1.14.36.36 0 00.65-.31 3.37 3.37 0 00-1.54-1.49.36.36 0 00-.28.66z" class="colorfff svgShape"></path><path fill="url(#aU)" d="M417.94,234c0,6-.07,12.8-.07,18.07,0,6,0,12.36.07,17.42-.06,1.55,2.34,1.75,3.08.38.64-4.59,1.84-10.19,1.49-15.2,1.52-6.6,4.08-15.09,3.45-20.27C424.5,234.86,419.4,233.54,417.94,234Z"></path><path fill="url(#aV)" d="M423.89,225.71c-.27-4.69,3-14.07,2.37-14.59-2.19-1.75-3.56-2.08-7.07-2s-5.15.8-5.86,3.22-1.15,3-1.7,5.19c-.25,1,.53,4,.74,7.23a35,35,0,0,1-.44,10.38c.55.22.84.38,1.94.75a32.61,32.61,0,0,1,11.77,7c.32-2.19,1.05-5.34.7-8.47C426,230.9,424,228.06,423.89,225.71Z"></path><polygon fill="#d6477b" points="432.43 253.89 422.61 259.56 421.98 244.09 431.81 238.42 432.43 253.89" class="colord67747 svgShape"></polygon><polygon fill="#ed5a8f" points="422.61 259.56 420.44 258.3 421.03 243.54 421.52 243.83 421.98 244.09 422.61 259.56" class="colored995a svgShape"></polygon><polygon fill="#932b77" points="421.03 243.54 421.98 244.09 430.85 238.97 430.85 237.87 421.03 243.54" class="colora55232 svgShape"></polygon><polygon fill="#efdae2" points="431.82 253.28 429.91 254.38 429.89 253.85 431.79 252.75 431.82 253.28" class="colordadfef svgShape"></polygon><polygon fill="#efdae2" points="431.77 252.21 430.87 252.73 430.85 252.19 431.75 251.67 431.77 252.21" class="colordadfef svgShape"></polygon><path fill="#1c246b" d="M424.82,243.66v-3a5,5,0,0,1,2.26-3.91,1.29,1.29,0,0,1,2.13,1.23v3h0a.12.12,0,0,0,.12.12.12.12,0,0,0,.12-.12h0v-3a1.52,1.52,0,0,0-2.49-1.44,5.27,5.27,0,0,0-2.38,4.12v3h0a.13.13,0,0,0,.12.12.12.12,0,0,0,.12-.12Z" class="color1e1c6b svgShape"></path><polygon fill="#ba3897" points="430.85 237.87 430.85 238.97 431.81 238.42 430.85 237.87" class="colorba6038 svgShape"></polygon><path fill="#f6afc9" d="M430 225.61c-.11-1.35-1.77-11.56-3.12-13.9a5.15 5.15 0 00-2.42-1.82c-1.27.08-2.58 1.82-2.15 4a4.06 4.06 0 001.8 2.92c1.16 2.46 2.18 7.62 2.71 9.4.14 1.22-.35 6.5-.48 8.06-.06.82-1.32 1.9-.93 3.76.24 1.13.93.46.93.46a.51.51 0 00.65.1.66.66 0 00.82 0c.31-.27.48.52.93-.23a4.39 4.39 0 00-.08-3.34C428.47 231.61 430.14 228 430 225.61zM420.56 204.44c-.06-1.08-3.75 1.07-3.67 2.49.07 1.15.22 2.32-.22 2.47-1.06.77.93 2 6.5 0C422 209.19 420.76 207.93 420.56 204.44z" class="colorf6d3af svgShape"></path><path fill="#f6afc9" d="M421.45,202.94l-1.11-2.78h-7v4.24c0,2.34,1.58,4.24,3.52,4.24s3.41-1.79,3.5-4h.49Z" class="colorf6d3af svgShape"></path><path fill="#eba3bd" d="M419.71,206.78a3.41,3.41,0,0,1-2.74,1.85,1,1,0,0,1-.22.72,3.09,3.09,0,0,0,.6-.08A3.36,3.36,0,0,0,419.71,206.78Z" class="colorebc5a3 svgShape"></path><path fill="#63318f" d="M417.28,197.21h-.06c-3.84.1-4.13,3-3.92,3.44,1.22.44,2-.39,2.75-.32a4,4,0,0,1,2.49,1c.66.86.45,2.22,1.08,2.19.27,0,.36-.93.76-.95a.68.68,0,0,1,.65.82c0,.71-.72,1.13-.62,1.48.16.56,1.57-.45,1.54-2.46S420.59,197.08,417.28,197.21Z" class="color34318f svgShape"></path><path fill="#63318f" d="M418.23,197.28c4.29,1,3.94,4.22,5.52,5.28.94.63,3.05-.56,4.28,1.57,1.42,2.46-.87,3.35.63,4.39a3.87,3.87,0,0,1,.15,6.15c-2.5,2-5.64.24-5.28-2.61.25-2.05-.36-3.11-2.08-2.45-1.29.5-1.79-.52-1.21-1.83-2.87.28.14-5.19-4.19-7.45C416.21,199.21,418.23,197.28,418.23,197.28Z" class="color34318f svgShape"></path><polygon fill="url(#t)" style="mix-blend-mode:multiply" points="446.37 328.93 438.41 324.34 454.88 324.34 451.98 322.66 435.51 322.66 426.32 317.36 422.97 317.36 443.02 328.93 441.35 329.9 444.69 329.9 446.37 328.93"></polygon><polygon fill="url(#aW)" style="mix-blend-mode:multiply" points="491.12 303.09 483.16 298.5 499.63 298.5 496.73 296.82 480.26 296.82 471.07 291.52 467.73 291.52 487.78 303.09 486.11 304.06 489.45 304.06 491.12 303.09"></polygon><polygon fill="#7941aa" points="443.29 270.98 450.45 275.11 450.45 269.83 443.29 265.7 443.29 270.98" class="color4141aa svgShape"></polygon><path fill="#1c246b" d="M446.14,266.21l.06,0v-.87l1.63.94v.87l.06,0s7.58,5.9,8.82,7.62v.46l-19.39-11.2v-.46C438.55,263.35,446.14,266.21,446.14,266.21Z" class="color1e1c6b svgShape"></path><path fill="#9155c6" d="M440.06,263.84l3.23,1.29v1.72a7.91,7.91,0,0,0,3.58,6.2c2,1.14,3.58.21,3.58-2.07v-1.73l3.23,2.45a10.76,10.76,0,0,1,4.86,8.42v3.94l-4.85-2.8v16l-13.64-7.88v-16l-4.86-2.8v-3.94C435.19,263.54,437,262.69,440.06,263.84Z" class="color5555c6 svgShape"></path><polygon fill="#f4dce5" style="mix-blend-mode:multiply" points="453.69 281.25 453.69 276.55 455 282.01 453.69 281.25" class="colordce1f4 svgShape"></polygon><polygon fill="#f4dce5" style="mix-blend-mode:multiply" points="440.05 273.38 440.05 268.67 438.74 272.62 440.05 273.38" class="colordce1f4 svgShape"></polygon><polygon fill="#ffffff" points="444.63 276.38 443.2 275.56 443.2 273.91 444.63 274.74 444.63 276.38" class="colorfff svgShape"></polygon><polygon fill="#d6477b" points="437.78 274.17 444.94 278.3 444.94 273.01 437.78 268.88 437.78 274.17" class="colord67747 svgShape"></polygon><path fill="#1c246b" d="M440.63,269.4l.06,0v-.87l1.63.94v.87l.06,0s7.59,5.9,8.82,7.62v.46l-19.39-11.2v-.45C433,266.53,440.63,269.4,440.63,269.4Z" class="color1e1c6b svgShape"></path><path fill="#ed5a8f" d="M434.55,267l3.23,1.29V270a7.91,7.91,0,0,0,3.58,6.2c2,1.14,3.58.21,3.58-2.07v-1.73l3.23,2.45A10.73,10.73,0,0,1,453,283.3v3.94l-4.85-2.81v16l-13.64-7.88v-16l-4.85-2.8v-3.94C429.69,266.72,431.45,265.87,434.55,267Z" class="colored995a svgShape"></path><polygon fill="#f4dce5" style="mix-blend-mode:multiply" points="448.18 284.43 448.18 279.73 449.49 285.19 448.18 284.43" class="colordce1f4 svgShape"></polygon><polygon fill="#f4dce5" style="mix-blend-mode:multiply" points="434.54 276.56 434.54 271.85 433.23 275.8 434.54 276.56" class="colordce1f4 svgShape"></polygon><polygon fill="#ffffff" points="439.12 279.56 437.69 278.74 437.69 277.1 439.12 277.92 439.12 279.56" class="colorfff svgShape"></polygon><polygon fill="#f6d0de" points="486.11 304.06 466.06 292.48 466.06 290.55 486.11 302.13 486.11 304.06" class="colord0d4f6 svgShape"></polygon><polygon fill="#f9f6f7" points="478.59 295.86 476.92 296.82 486.11 302.13 487.78 301.17 478.59 295.86" class="colorf6f6f9 svgShape"></polygon><polygon fill="#f9f6f7" points="467.73 289.59 466.06 290.55 475.25 295.86 476.92 294.9 467.73 289.59" class="colorf6f6f9 svgShape"></polygon><polygon fill="#e4bdcb" points="487.78 301.17 486.11 302.13 486.11 304.06 487.78 303.09 487.78 301.17" class="colorbdc1e4 svgShape"></polygon><polygon fill="#f6d0de" points="441.35 329.9 421.3 318.32 421.3 316.39 441.35 327.97 441.35 329.9" class="colord0d4f6 svgShape"></polygon><polygon fill="#f9f6f7" points="433.83 321.7 432.16 322.66 441.35 327.97 443.02 327 433.83 321.7" class="colorf6f6f9 svgShape"></polygon><polygon fill="#f9f6f7" points="422.97 315.43 421.3 316.39 430.49 321.7 432.16 320.73 422.97 315.43" class="colorf6f6f9 svgShape"></polygon><polygon fill="#e4bdcb" points="443.02 327 441.35 327.97 441.35 329.9 443.02 328.93 443.02 327" class="colorbdc1e4 svgShape"></polygon><path fill="#f6d0de" d="M476.92,250.39v46.43l-1.67-1V249.42a2.67,2.67,0,0,0-.11-.78C476.17,248.41,476.92,249.08,476.92,250.39Z" class="colord0d4f6 svgShape"></path><path fill="url(#aX)" d="M434.67,268l38.07-22a2.84,2.84,0,0,1,3.1-.18h0l1.47.84a3,3,0,0,0-2.9.32l-38.07,22a9.25,9.25,0,0,0-4.18,7.23v46.44l-1.67-1V275.26A9.23,9.23,0,0,1,434.67,268Z"></path><polygon fill="#f9f6f7" points="476.92 290.63 433.83 315.5 433.83 313.58 475.25 289.67 476.92 290.63" class="colorf6f6f9 svgShape"></polygon><path fill="#e4bdcb" d="M432.16,276.22v46.44l1.67-1v-4.27l43.09-24.87v4.26l1.67-1V249.42c0-2.66-1.87-3.74-4.18-2.41l-38.07,22A9.25,9.25,0,0,0,432.16,276.22Zm1.67-1a5.55,5.55,0,0,1,2.51-4.34l38.07-22c1.39-.8,2.51-.15,2.51,1.45v40.24l-43.09,24.88Z" class="colorbdc1e4 svgShape"></path><path fill="#fd367e" d="M477.47,246.79l-.05,0,.06,0Z" class="colord56374 svgShape"></path><path fill="#1c246b" d="M441.29 269.05a2.23 2.23 0 01.8-2 1.34 1.34 0 00.55-1.19 2.05 2.05 0 00-1.09-1.56.56.56 0 00-.61.1h0a.23.23 0 01-.32 0 .24.24 0 010-.33h0a1 1 0 011.08-.19 2.49 2.49 0 011.38 1.94 1.78 1.78 0 01-.68 1.55 1.79 1.79 0 00-.67 1.63h0a.23.23 0 01-.21.25.23.23 0 01-.24-.21zM446.8 265.87a2.24 2.24 0 01.79-2 1.3 1.3 0 00.55-1.19 2 2 0 00-1.09-1.56.53.53 0 00-.6.1h0a.22.22 0 01-.32 0 .21.21 0 010-.31h0a1 1 0 011.07-.2 2.45 2.45 0 011.38 1.94 1.75 1.75 0 01-.67 1.55 1.76 1.76 0 00-.67 1.63h0a.23.23 0 01-.21.25.22.22 0 01-.24-.21z" class="color1e1c6b svgShape"></path><polygon fill="url(#aY)" style="mix-blend-mode:multiply" points="487.1 323.6 466.1 323.6 464.73 327.7 487.1 327.7 487.1 323.6"></polygon><polygon fill="url(#aZ)" style="mix-blend-mode:multiply" points="498.2 317.11 477.21 317.11 475.84 321.22 498.2 321.22 498.2 317.11"></polygon><path fill="url(#u)" d="M478.53,319.84c0-3.52-2.23-3.63-2.23-3.63a9.32,9.32,0,0,1-3.18-.81c-1.94-.81-4.67-.5-3.15,2.32a.53.53,0,0,0,.06.1,1.34,1.34,0,0,0,.49.44l4.89,2.86C476.15,321.55,478.51,320.57,478.53,319.84Z"></path><path fill="#0e1555" d="M478.52,319.53c0,.72-2.38,1.68-3.11,1.26l-4.89-2.86a4.73,4.73,0,0,1-.69-.51l.14.3a.53.53,0,0,0,.06.1,1.34,1.34,0,0,0,.49.44l4.89,2.86c.69.4,2.81-.43,3.09-1.14a.78.78,0,0,0,0-.14C478.53,319.73,478.52,319.63,478.52,319.53Z" class="color121244 svgShape"></path><path fill="#ffffff" d="M477.62,315.75a20.81,20.81,0,0,0-2.6.51,1.12,1.12,0,0,1-.18.53l-.06.07c-.4.28-.8.72.15,1.31a1.3,1.3,0,0,0,1.7-.12,1.53,1.53,0,0,1,.56-.63,1.55,1.55,0,0,1,.52-.22.2.2,0,0,1,0-.05S477.86,315.75,477.62,315.75Z" class="colorfff svgShape"></path><path fill="#1c246b" d="M477.66,281.26l-9.94.18c.83,6.64,2.48,12.67,3.58,19.1,1.19,6.25,2.53,10.64,3.69,15.83.43,1,2.38.61,2.78-.33.31-4.78.66-10.62-.76-16.14C477.25,293.94,477.8,287.28,477.66,281.26Z" class="color1e1c6b svgShape"></path><path fill="url(#ba)" d="M467.4,326.32c0-3.53-2.24-3.63-2.24-3.63a9.24,9.24,0,0,1-3.17-.81c-1.94-.81-4.68-.5-3.15,2.32,0,0,0,.07.05.1a1.48,1.48,0,0,0,.5.44l4.88,2.86C465,328,467.38,327.05,467.4,326.32Z"></path><path fill="#0e1555" d="M467.39,326c-.05.72-2.38,1.68-3.12,1.26l-4.88-2.86a5.38,5.38,0,0,1-.69-.5c.05.09.09.19.14.29s0,.07.05.1a1.48,1.48,0,0,0,.5.44l4.88,2.86c.7.4,2.82-.44,3.1-1.14a.78.78,0,0,0,0-.14C467.4,326.21,467.39,326.11,467.39,326Z" class="color121244 svgShape"></path><path fill="#ffffff" d="M466.49,322.23a20.81,20.81,0,0,0-2.6.51,1.27,1.27,0,0,1-.18.53l-.06.07c-.4.28-.81.71.14,1.31a1.31,1.31,0,0,0,1.71-.12,1.58,1.58,0,0,1,.55-.63,1.45,1.45,0,0,1,.53-.22v-.05S466.73,322.23,466.49,322.23Z" class="colorfff svgShape"></path><path fill="url(#bb)" d="M470.65,297.05c.61-2.86,7.57-3.21,7.11-14.43-2.18-.32-13.2,4.85-15.39,4.53-.27,6.68.38,12.9.42,19.42.14,6.36.75,10.91,1,16.23.26,1,2.24,1,2.79.12,1.08-4.67,2.39-10.37,1.89-16.05C469.17,303.72,470,300.39,470.65,297.05Z"></path><path fill="url(#bc)" d="M472.72,260.84c7.78,5.19,8.71,15.51,4.5,22.05C477.22,282.89,478.12,268.39,472.72,260.84Z"></path><path fill="url(#bd)" d="M473.08,289c-4.73,2.66-9.68,2.66-11.37-.6.63-6.08,0-20.47.29-21.93a18.88,18.88,0,0,1,3.4-3.76c1.53-1.39,2.56-2.72,3.34-2.88,6.47-1.32,9.62,10.21,9.08,22.51A8.93,8.93,0,0,1,473.08,289Z"></path><path fill="#f6afc9" d="M472.33,260.55c-1.4-1-1.19-1.68-1-3.06a6.8,6.8,0,0,0,.43-2.38c0-3.08-2-5.73-4.36-5.57-4.84.33-4,2.88-4,6,0,2.85,1.29,4.81,3.45,5.14,0,.47-.13.74-.72,1.33a5.93,5.93,0,0,0,4.8.09C471.94,261.61,473,261.23,472.33,260.55Z" class="colorf6d3af svgShape"></path><path fill="#1c246b" d="M471.13,249.34c-.84-.81-1.82,0-2.31-.29l-.26-.12h0c-.64-.39-.33-.67-.92-1s-1.16.13-1.54,0h0c-.9-.28-1.71-.4-2.07-.07a2.44,2.44,0,0,0-.46.61h0c-.31.51-1.36-.15-1.29.95s.44,1.38.61,3a2.45,2.45,0,0,0,0,.27.09.09,0,0,0,0,.05h0a2.48,2.48,0,0,0,1,1.81c.5.5.49,0,.51-.17.05-.38.16-.71.38-.7s.68.13.91,1.12c.16.71-.32.56-.27.75.64,2.91,1.73,2.69,3,3a3.79,3.79,0,0,0,2.92-.29c.29-1.11.41-1.77.55-2.29a8.76,8.76,0,0,0,0-3.16h0C471.49,251.44,472,250.14,471.13,249.34Z" class="color1e1c6b svgShape"></path><path fill="#f6afc9" d="M450.38,276.93a5.47,5.47,0,0,1-.43-3.67c.31-.67.22-.72.37-1,.26-.45.73.29.37,1.36s.82,1.58.82,1.58l.73.74Z" class="colorf6d3af svgShape"></path><polygon fill="#f47fd4" points="452.6 274.14 450.82 275.17 449.94 271.94 451.72 270.91 452.6 274.14" class="color7f7ff4 svgShape"></polygon><path fill="#f6afc9" d="M454.78,277.44a2.65,2.65,0,0,0-1.93-1.86c-.6-.4-.78-2.24-1.46-2.19s.12,1.83.12,1.83-1.35,1.21-1.13,1.71S452,278.2,453,278.4,454.78,277.44,454.78,277.44Z" class="colorf6d3af svgShape"></path><path fill="url(#be)" d="M467.62,267.36c-2.05-3-5.46-3.06-5.89.05-.29,2.17.22,6.47-.17,9.7a18.37,18.37,0,0,1-7.1-.95,1.91,1.91,0,0,0-1.47,2.48c2.6,1.8,8,3.93,11.16,3.1A22.84,22.84,0,0,0,467.62,267.36Z"></path><polygon fill="url(#bf)" style="mix-blend-mode:multiply" points="513.73 367.82 505.77 363.23 522.24 363.23 519.34 361.55 502.87 361.55 493.68 356.25 490.34 356.25 510.39 367.82 508.72 368.79 512.06 368.79 513.73 367.82"></polygon><polygon fill="url(#bg)" style="mix-blend-mode:multiply" points="558.49 341.98 550.53 337.39 567 337.39 564.1 335.71 547.63 335.71 538.44 330.4 535.09 330.4 555.14 341.98 553.47 342.95 556.82 342.95 558.49 341.98"></polygon><polygon fill="#f6d0de" points="553.47 342.95 533.43 331.37 533.43 329.44 553.47 341.02 553.47 342.95" class="colord0d4f6 svgShape"></polygon><polygon fill="#f9f6f7" points="545.96 334.75 544.28 335.71 553.47 341.02 555.14 340.05 545.96 334.75" class="colorf6f6f9 svgShape"></polygon><polygon fill="#f9f6f7" points="535.1 328.48 533.43 329.44 542.61 334.75 544.28 333.78 535.1 328.48" class="colorf6f6f9 svgShape"></polygon><polygon fill="#e4bdcb" points="555.14 340.05 553.47 341.02 553.47 342.95 555.14 341.98 555.14 340.05" class="colorbdc1e4 svgShape"></polygon><polygon fill="#f6d0de" points="508.72 368.79 488.67 357.21 488.67 355.28 508.72 366.86 508.72 368.79" class="colord0d4f6 svgShape"></polygon><polygon fill="#f9f6f7" points="501.2 360.59 499.53 361.55 508.72 366.86 510.39 365.89 501.2 360.59" class="colorf6f6f9 svgShape"></polygon><polygon fill="#f9f6f7" points="490.34 354.32 488.67 355.28 497.86 360.59 499.53 359.62 490.34 354.32" class="colorf6f6f9 svgShape"></polygon><polygon fill="#e4bdcb" points="510.39 365.89 508.72 366.86 508.72 368.79 510.39 367.82 510.39 365.89" class="colorbdc1e4 svgShape"></polygon><path fill="#f6d0de" d="M544.28,289.27v46.44l-1.67-1V288.31a2.68,2.68,0,0,0-.1-.78C543.53,287.3,544.28,288,544.28,289.27Z" class="colord0d4f6 svgShape"></path><path fill="url(#bh)" d="M502,306.92l38.08-22a2.82,2.82,0,0,1,3.1-.18h0l1.46.84a3,3,0,0,0-2.89.32l-38.08,22a9.24,9.24,0,0,0-4.17,7.23v46.44l-1.67-1V314.15A9.22,9.22,0,0,1,502,306.92Z"></path><polygon fill="#f9f6f7" points="544.28 329.52 501.2 354.39 501.2 352.47 542.61 328.56 544.28 329.52" class="colorf6f6f9 svgShape"></polygon><path fill="#e4bdcb" d="M499.53,315.11v46.44l1.67-1v-4.27l43.08-24.87v4.26l1.68-1V288.31c0-2.66-1.88-3.74-4.18-2.41l-38.08,22A9.24,9.24,0,0,0,499.53,315.11Zm1.67-1a5.54,5.54,0,0,1,2.5-4.34l38.08-22c1.38-.8,2.5-.15,2.5,1.44v40.25L501.2,354.4Z" class="colorbdc1e4 svgShape"></path><path fill="#fd367e" d="M544.84,285.68l-.06,0,.06,0Z" class="colord56374 svgShape"></path><path fill="#63318f" d="M527.47,304.77c2.14,1.23,3.87.18,3.87-2.34v-1.28c0,2.53-1.73,3.05-3.87,1.81a7.71,7.71,0,0,1-3.87-6.28V298A8.67,8.67,0,0,0,527.47,304.77Z" class="color34318f svgShape"></path><path fill="#1c246b" d="M526.62,297.78l.06,0v-.87l1.63.94v.87l.05,0s7.59,5.89,8.82,7.61v.46L517.8,295.67v-.46C519,294.91,526.62,297.78,526.62,297.78Z" class="color1e1c6b svgShape"></path><path fill="#7941aa" d="M521.15,301.18a7.68,7.68,0,0,0,1.4-4.84l1.05.34V298a8.67,8.67,0,0,0,3.87,6.81c2.14,1.23,3.87.18,3.87-2.34v-1.28l1,.86a17.38,17.38,0,0,0,1.4,6.46s-1.6,5.09-1.59,7.49l-9.45-5.45C522.76,308.12,521.15,301.18,521.15,301.18Z" class="color4141aa svgShape"></path><path fill="#7941aa" d="M522.74,310.58v-.07l9.45,5.45V316c0,2.68,2.66,13.82,4.43,19.53l-9.15-5.28L518.32,325C520.08,321.34,522.74,313.26,522.74,310.58Z" class="color4141aa svgShape"></path><polygon fill="#63318f" points="532.31 315.58 522.62 309.99 522.62 311.04 532.31 316.63 532.31 315.58" class="color34318f svgShape"></polygon><path fill="#1c246b" d="M527.27,297.43a2.24,2.24,0,0,1,.8-2,1.33,1.33,0,0,0,.55-1.2,2,2,0,0,0-1.09-1.56.53.53,0,0,0-.6.11h0a.23.23,0,0,1-.32,0,.22.22,0,0,1,0-.32h0a1,1,0,0,1,1.07-.2,2.45,2.45,0,0,1,1.38,1.94,1.77,1.77,0,0,1-.68,1.56,1.77,1.77,0,0,0-.66,1.63h0a.23.23,0,0,1-.21.24.23.23,0,0,1-.25-.21Z" class="color1e1c6b svgShape"></path><polygon fill="#e4bdcb" points="521.16 299.73 526 296.94 526 295.01 521.16 297.8 521.16 299.73" class="colorbdc1e4 svgShape"></polygon><polygon fill="#fcf7f9" points="521.16 297.8 526 295.01 524.15 294.14 519.32 296.94 521.16 297.8" class="colorf7f7fc svgShape"></polygon><path fill="#d6477b" d="M518.05,310.21c2.14,1.23,3.88.18,3.88-2.35v-1.27c0,2.52-1.74,3-3.88,1.81a7.75,7.75,0,0,1-3.87-6.28v1.27A8.7,8.7,0,0,0,518.05,310.21Z" class="colord67747 svgShape"></path><path fill="#1c246b" d="M517.2,303.21l.06,0v-.87l1.63.94v.87l.06,0s7.59,5.9,8.82,7.62v.45L508.38,301.1v-.46C509.61,300.34,517.2,303.21,517.2,303.21Z" class="color1e1c6b svgShape"></path><path fill="#ed5a8f" d="M511.74,306.62a7.7,7.7,0,0,0,1.4-4.84l1,.34v1.27a8.7,8.7,0,0,0,3.87,6.82c2.14,1.23,3.88.18,3.88-2.35v-1.27l1,.85a17.23,17.23,0,0,0,1.4,6.47s-1.6,5.09-1.59,7.49l-9.45-5.46C513.34,313.56,511.74,306.62,511.74,306.62Z" class="colored995a svgShape"></path><path fill="#ed5a8f" d="M513.33,316v-.08l9.45,5.46v.07c0,2.68,2.66,13.83,4.42,19.54l-9.15-5.29-9.15-5.28C510.67,326.77,513.33,318.69,513.33,316Z" class="colored995a svgShape"></path><polygon fill="#d6477b" points="522.9 321.02 513.21 315.43 513.21 316.47 522.9 322.06 522.9 321.02" class="colord67747 svgShape"></polygon><path fill="#1c246b" d="M517.86,302.87a2.24,2.24,0,0,1,.8-2,1.33,1.33,0,0,0,.55-1.19,2.05,2.05,0,0,0-1.09-1.56.54.54,0,0,0-.61.1h0a.22.22,0,0,1-.32,0,.23.23,0,0,1,0-.32h0a1,1,0,0,1,1.08-.2,2.48,2.48,0,0,1,1.38,1.95,1.78,1.78,0,0,1-.68,1.55,1.79,1.79,0,0,0-.67,1.63h0a.21.21,0,0,1-.2.24.22.22,0,0,1-.25-.2Z" class="color1e1c6b svgShape"></path><polygon fill="#e4bdcb" points="511.75 305.17 516.59 302.37 516.59 300.44 511.75 303.23 511.75 305.17" class="colorbdc1e4 svgShape"></polygon><polygon fill="#fcf7f9" points="511.75 303.23 516.59 300.44 514.74 299.58 509.91 302.37 511.75 303.23" class="colorf7f7fc svgShape"></polygon><path fill="#63318f" d="M320,153.74c0-8.93,6.27-19.78,14-24.25s14-.84,14,8.09-6.27,19.78-14,24.25S320,162.67,320,153.74Z" class="color34318f svgShape"></path><path fill="url(#bi)" d="M340.65,126.64c-2.54-1.5-6.06-1.31-9.95.94-7.74,4.47-14,15.32-14,24.25,0,4.66,1.72,7.86,4.45,9.23v0l2.84,1.63c-2.45-1.49-4-4.59-4-9,0-8.93,6.27-19.78,14-24.25,3.86-2.23,7.35-2.44,9.89-1l-3.24-1.87Zm3.26,1.88.06,0h0ZM324.44,163v0a1.63,1.63,0,0,1-.19-.09Z"></path><path fill="#ffffff" d="M344.23,139c0-3.28-1.09-5.62-2.87-6.83-1.94-.94-4.51-.71-7.35.92-6,3.48-10.89,11.92-10.89,18.87,0,3.28,1.09,5.62,2.87,6.83,1.94.94,4.52.71,7.35-.93C339.36,154.38,344.23,145.94,344.23,139Z" class="colorfff svgShape"></path><path fill="url(#bj)" d="M341.36,132.16c1.78,1.21,2.87,3.55,2.87,6.83,0,6.95-4.87,15.39-10.89,18.86-2.83,1.64-5.41,1.87-7.35.93,2,1.35,4.84,1.29,8-.54,6-3.48,10.89-11.92,10.89-18.87C344.9,135.71,343.53,133.21,341.36,132.16Z"></path><path fill="url(#bk)" d="M339.84,148.12l-6.11-3.53V137c0-.49-.34-.68-.76-.44a1.67,1.67,0,0,0-.76,1.31v8a.67.67,0,0,0,.06.3.38.38,0,0,0,.16.19l6.34,3.66c.29.17.77-.1,1.07-.62S340.13,148.29,339.84,148.12Z"></path><polygon fill="url(#bl)" points="635.83 494.91 635.83 561.51 689.74 561.51 689.74 463.79 635.83 494.91"></polygon><polygon fill="url(#bm)" points="635.83 494.91 566.03 454.61 566.03 561.51 635.83 561.51 635.83 494.91"></polygon><polygon fill="#f9f2f5" points="635.83 414.31 566.03 454.61 635.83 494.91 689.74 463.79 689.74 445.43 635.83 414.31" class="colorf2f4f9 svgShape"></polygon></g></svg></g></svg>