<svg id="SvgjsSvg1001" width="360" height="360" xmlns="http://www.w3.org/2000/svg" version="1.1" xmlns:xlink="http://www.w3.org/1999/xlink" xmlns:svgjs="http://svgjs.com/svgjs"><defs id="SvgjsDefs1002"></defs><g id="SvgjsG1008" transform="matrix(1,0,0,1,0,0)"><svg xmlns="http://www.w3.org/2000/svg" xmlns:xlink="http://www.w3.org/1999/xlink" viewBox="0 0 735.985 540.41" width="360" height="360"><defs><linearGradient id="D" x1="84.875" x2="123.459" y1="254.273" y2="254.273" gradientUnits="userSpaceOnUse"><stop offset="0" stop-color="#cea5c3" class="stopColora5aace svgShape"></stop><stop offset="1" stop-color="#e4bdcb" class="stopColorbdc1e4 svgShape"></stop></linearGradient><linearGradient id="j" x1="99.621" x2="179.025" y1="402.946" y2="402.946" gradientUnits="userSpaceOnUse"><stop offset=".453" stop-color="#e3c6d0" class="stopColorc6cae3 svgShape"></stop><stop offset="1" stop-color="#ffffff" class="stopColorfff svgShape"></stop></linearGradient><linearGradient id="a" x1="88.734" x2="151.897" y1="383.814" y2="383.814" gradientUnits="userSpaceOnUse"><stop offset="0" stop-color="#ed5a8f" class="stopColored995a svgShape"></stop><stop offset="1" stop-color="#d6477b" class="stopColord67747 svgShape"></stop></linearGradient><linearGradient id="l" x1="130.608" x2="140.121" y1="391.692" y2="391.692" xlink:href="#a"></linearGradient><linearGradient id="m" x1="109.142" x2="130.944" y1="400.237" y2="400.237" xlink:href="#a"></linearGradient><linearGradient id="n" x1="151.43" x2="613.121" y1="362.246" y2="362.246" gradientUnits="userSpaceOnUse"><stop offset="0" stop-color="#e3c6d0" class="stopColorc6cae3 svgShape"></stop><stop offset=".242" stop-color="#e6ccd5" class="stopColorcccfe6 svgShape"></stop><stop offset=".552" stop-color="#eedce3" class="stopColordcdeee svgShape"></stop><stop offset=".9" stop-color="#fbf6f8" class="stopColorf6f7fb svgShape"></stop><stop offset="1" stop-color="#ffffff" class="stopColorfff svgShape"></stop></linearGradient><linearGradient id="f" x1="350.779" x2="426.74" y1="518.655" y2="518.655" gradientUnits="userSpaceOnUse"><stop offset="0" stop-color="#f0d1dc" class="stopColord1d6f0 svgShape"></stop><stop offset=".26" stop-color="#f5e1e8" class="stopColore1e4f5 svgShape"></stop><stop offset=".711" stop-color="#fcf7f9" class="stopColorf7f8fc svgShape"></stop><stop offset="1" stop-color="#ffffff" class="stopColorfff svgShape"></stop></linearGradient><linearGradient id="o" x1="388.875" x2="423.378" y1="499.4" y2="499.4" gradientTransform="matrix(-1 0 0 1 802.081 0)" gradientUnits="userSpaceOnUse"><stop offset="0" stop-color="#e4bdcb" class="stopColorbdc1e4 svgShape"></stop><stop offset="1" stop-color="#f6d0de" class="stopColord0d4f6 svgShape"></stop></linearGradient><linearGradient id="p" x1="382.961" x2="429.294" y1="506.618" y2="506.618" gradientTransform="matrix(-1 0 0 1 802.081 0)" gradientUnits="userSpaceOnUse"><stop offset="0" stop-color="#f6d0de" class="stopColord0d4f6 svgShape"></stop><stop offset=".771" stop-color="#e4bdcb" class="stopColorbdc1e4 svgShape"></stop></linearGradient><linearGradient id="q" x1="427.189" x2="450.353" y1="495.116" y2="535.237" gradientTransform="matrix(-1 0 0 1 802.081 0)" gradientUnits="userSpaceOnUse"><stop offset=".492" stop-color="#f378a4" class="stopColorf3b378 svgShape"></stop><stop offset="1" stop-color="#d6477b" class="stopColord67747 svgShape"></stop></linearGradient><linearGradient id="b" x1="612.709" x2="641.081" y1="375.251" y2="375.251" gradientUnits="userSpaceOnUse"><stop offset="0" stop-color="#e7c6d2" class="stopColorc6cbe7 svgShape"></stop><stop offset=".81" stop-color="#faf4f6" class="stopColorf4f5fa svgShape"></stop><stop offset="1" stop-color="#ffffff" class="stopColorfff svgShape"></stop></linearGradient><linearGradient id="r" x1="614.368" x2="631.311" y1="370.545" y2="370.545" gradientUnits="userSpaceOnUse"><stop offset=".595" stop-color="#e4bdcb" class="stopColorbdc1e4 svgShape"></stop><stop offset=".623" stop-color="#e7c0ce" class="stopColorc0c4e7 svgShape"></stop><stop offset=".821" stop-color="#f6d0de" class="stopColord0d4f6 svgShape"></stop></linearGradient><linearGradient id="s" x1="608.654" x2="637.025" y1="376.14" y2="376.14" gradientUnits="userSpaceOnUse"><stop offset=".179" stop-color="#f6d0de" class="stopColord0d4f6 svgShape"></stop><stop offset=".511" stop-color="#e7c0ce" class="stopColorc0c4e7 svgShape"></stop><stop offset=".558" stop-color="#e4bdcb" class="stopColorbdc1e4 svgShape"></stop></linearGradient><linearGradient id="t" x1="4.043" x2="32.927" y1="421.315" y2="421.315" xlink:href="#b"></linearGradient><linearGradient id="c" x1="540.88" x2="583.121" y1="400.578" y2="400.578" gradientTransform="translate(152.864)" gradientUnits="userSpaceOnUse"><stop offset="0" stop-color="#efd3dd" class="stopColord3d7ef svgShape"></stop><stop offset=".142" stop-color="#f3dde5" class="stopColordde0f3 svgShape"></stop><stop offset=".562" stop-color="#fcf6f8" class="stopColorf6f7fc svgShape"></stop><stop offset=".817" stop-color="#ffffff" class="stopColorfff svgShape"></stop></linearGradient><linearGradient id="u" x1="-93.459" x2="-51.218" y1="179.189" y2="179.189" xlink:href="#c"></linearGradient><linearGradient id="d" x1="-127.601" x2="-227.993" y1="312.01" y2="312.01" gradientTransform="matrix(1.1093 0 0 -1 357.08 624.02)" gradientUnits="userSpaceOnUse"><stop offset="0" stop-color="#e7c6d2" class="stopColorc6cbe7 svgShape"></stop><stop offset="1" stop-color="#ffffff" class="stopColorfff svgShape"></stop></linearGradient><linearGradient id="v" x1="-163.239" x2="-263.631" y1="272.965" y2="272.965" gradientTransform="matrix(1.1093 0 0 -1 436.147 545.93)" xlink:href="#d"></linearGradient><linearGradient id="w" x1="544.647" x2="653.765" y1="323.431" y2="323.431" xlink:href="#d"></linearGradient><linearGradient id="x" x1="160.303" x2="308.138" y1="479.564" y2="479.564" xlink:href="#d"></linearGradient><linearGradient id="y" x1="551.423" x2="590.055" y1="340.368" y2="273.455" gradientUnits="userSpaceOnUse"><stop offset=".38" stop-color="#e26ac2" class="stopColor6a6ae2 svgShape"></stop><stop offset=".586" stop-color="#7941aa" class="stopColor4141aa svgShape"></stop></linearGradient><linearGradient id="z" x1="508.094" x2="557.275" y1="328.968" y2="243.783" gradientUnits="userSpaceOnUse"><stop offset=".414" stop-color="#f6d0de" class="stopColord0d4f6 svgShape"></stop><stop offset=".62" stop-color="#fcf7f9" class="stopColorf7f7fc svgShape"></stop></linearGradient><linearGradient id="A" x1="551.817" x2="594.709" y1="256.534" y2="256.534" gradientUnits="userSpaceOnUse"><stop offset="0" stop-color="#e7c6d2" class="stopColorc6cbe7 svgShape"></stop><stop offset="1" stop-color="#f7f2f4" class="stopColorf2f2f7 svgShape"></stop></linearGradient><linearGradient id="B" x1="184.596" x2="149.596" y1="265.044" y2="246.044" gradientUnits="userSpaceOnUse"><stop offset="0" stop-color="#7941aa" class="stopColor4141aa svgShape"></stop><stop offset="1" stop-color="#9155c6" class="stopColor5555c6 svgShape"></stop></linearGradient><linearGradient id="C" x1="143.701" x2="143.701" y1="233.322" y2="193.282" gradientUnits="userSpaceOnUse"><stop offset="0" stop-color="#9155c6" class="stopColor5555c6 svgShape"></stop><stop offset="1" stop-color="#f47fd4" class="stopColor7f7ff4 svgShape"></stop></linearGradient><linearGradient id="h" x1="54.985" x2="153.349" y1="297.496" y2="297.496" gradientUnits="userSpaceOnUse"><stop offset=".396" stop-color="#f6d0de" class="stopColord0d4f6 svgShape"></stop><stop offset=".552" stop-color="#e7c0ce" class="stopColorc0c4e7 svgShape"></stop><stop offset=".574" stop-color="#e4bdcb" class="stopColorbdc1e4 svgShape"></stop></linearGradient><linearGradient id="k" x1="81.429" x2="159.203" y1="409.157" y2="409.157" gradientUnits="userSpaceOnUse"><stop offset="0" stop-color="#ed5a8f" class="stopColored995a svgShape"></stop><stop offset="1" stop-color="#ba3897" class="stopColorba6038 svgShape"></stop></linearGradient><linearGradient id="g" x1="-889.991" x2="-840.809" y1="249.026" y2="163.84" gradientTransform="matrix(-1 0 0 1 -294.46 0)" gradientUnits="userSpaceOnUse"><stop offset=".414" stop-color="#e4bdcb" class="stopColorbdc1e4 svgShape"></stop><stop offset=".62" stop-color="#fcf7f9" class="stopColorf7f7fc svgShape"></stop></linearGradient><linearGradient id="e" x1="178.025" x2="191.473" y1="455.961" y2="479.255" gradientUnits="userSpaceOnUse"><stop offset=".38" stop-color="#fcf7f9" class="stopColorf7f7fc svgShape"></stop><stop offset=".586" stop-color="#e4bdcb" class="stopColorbdc1e4 svgShape"></stop></linearGradient><linearGradient id="E" x1="178.025" x2="191.473" y1="433.608" y2="456.902" xlink:href="#e"></linearGradient><linearGradient id="F" x1="197.383" x2="210.832" y1="467.138" y2="490.432" xlink:href="#e"></linearGradient><linearGradient id="G" x1="216.742" x2="230.191" y1="478.315" y2="501.609" xlink:href="#e"></linearGradient><linearGradient id="H" x1="197.383" x2="210.832" y1="444.784" y2="468.079" xlink:href="#e"></linearGradient><linearGradient id="I" x1="216.742" x2="230.191" y1="455.961" y2="479.255" xlink:href="#e"></linearGradient><linearGradient id="J" x1="178.025" x2="191.473" y1="411.254" y2="434.548" xlink:href="#e"></linearGradient><linearGradient id="K" x1="197.383" x2="210.832" y1="422.431" y2="445.725" xlink:href="#e"></linearGradient><linearGradient id="L" x1="216.742" x2="230.191" y1="433.608" y2="456.902" xlink:href="#e"></linearGradient><linearGradient id="M" x1="164.669" x2="215.996" y1="319.879" y2="319.879" xlink:href="#f"></linearGradient><linearGradient id="i" x1="144.739" x2="184.6" y1="296.515" y2="296.515" gradientUnits="userSpaceOnUse"><stop offset="0" stop-color="#f4dce5" class="stopColordce1f4 svgShape"></stop><stop offset="1" stop-color="#ffffff" class="stopColorfff svgShape"></stop></linearGradient><linearGradient id="N" x1="282.062" x2="303.707" y1="47.289" y2="47.289" xlink:href="#d"></linearGradient><linearGradient id="O" x1="353.296" x2="537.133" y1="46.932" y2="365.347" gradientUnits="userSpaceOnUse"><stop offset=".576" stop-color="#f47fd4" class="stopColor7f7ff4 svgShape"></stop><stop offset=".612" stop-color="#0e1555" class="stopColor1e1c6b svgShape"></stop></linearGradient><linearGradient id="P" x1="141.433" x2="515.114" y1="402.326" y2="402.326" gradientUnits="userSpaceOnUse"><stop offset=".562" stop-color="#9155c6" class="stopColor5555c6 svgShape"></stop><stop offset=".612" stop-color="#0e1555" class="stopColor1e1c6b svgShape"></stop></linearGradient><linearGradient id="Q" x1="320.1" x2="340.9" y1="210.623" y2="210.623" gradientTransform="matrix(.866 .5 -1 .5774 117.184 28.535)" gradientUnits="userSpaceOnUse"><stop offset="0" stop-color="#f7f2f4" class="stopColorf2f2f7 svgShape"></stop><stop offset="1" stop-color="#ffffff" class="stopColorfff svgShape"></stop></linearGradient><linearGradient id="R" x1="-554.523" x2="-654.915" y1="479.08" y2="479.08" gradientTransform="matrix(1.1093 0 0 -1 1304.25 958.16)" xlink:href="#d"></linearGradient><linearGradient id="S" x1="477.648" x2="586.766" y1="476.459" y2="476.459" xlink:href="#d"></linearGradient><linearGradient id="T" x1="-814.727" x2="-765.546" y1="481.996" y2="396.81" xlink:href="#g"></linearGradient><linearGradient id="U" x1="497.893" x2="556.576" y1="515.896" y2="515.896" xlink:href="#f"></linearGradient><linearGradient id="V" x1="263.686" x2="322.368" y1="511.441" y2="511.441" xlink:href="#f"></linearGradient><linearGradient id="W" x1="528.57" x2="626.933" y1="466.834" y2="466.834" xlink:href="#h"></linearGradient><linearGradient id="X" x1="328.807" x2="427.17" y1="117.47" y2="117.47" xlink:href="#h"></linearGradient><linearGradient id="Y" x1="328.807" x2="427.17" y1="93.429" y2="93.429" xlink:href="#h"></linearGradient><linearGradient id="Z" x1="328.807" x2="427.17" y1="69.696" y2="69.696" xlink:href="#h"></linearGradient><linearGradient id="aa" x1="485.072" x2="510.715" y1="479.732" y2="479.732" xlink:href="#i"></linearGradient></defs><g style="isolation:isolate" fill="#000000" class="color000 svgShape"><path fill="url(#j)" style="mix-blend-mode:multiply" d="M167.3011,386.67429c-8.3006-4.7918-19.3348-6.9991-30.1717-6.67641H120.14v2.785a45.04808,45.04808,0,0,0-8.9903,3.89141c-15.4481,8.9848-15.3589,23.5443.1894,32.5259a45.29225,45.29225,0,0,0,8.8009,3.814v2.9105h20.3773c9.7984-.1649,19.5147-2.388,26.9701-6.71981C182.9409,410.21859,182.8621,395.65909,167.3011,386.67429Z"></path><path fill="#f779a7" d="M81.4286,392.39029c-.0016-5.7451,3.7943-11.4912,11.38861-15.8758,7.59429-4.3831,17.54569-6.577,27.49879-6.577,9.9515,0,19.9021,2.1939,27.4956,6.577,7.59261,4.3846,11.3902,10.129,11.3918,15.8758.0016,5.7444-3.79519,11.4928-11.3918,15.87659-7.5918,4.38391-17.5418,6.57541-27.4933,6.57541-9.9523,0-19.9037-2.1915-27.498-6.57541C85.2253,403.88309,81.43021,398.13469,81.4286,392.39029Z" class="colorf7c479 svgShape"></path><path fill="url(#k)" d="M147.8116,408.26688c-7.5918,4.38391-17.5418,6.57541-27.4933,6.57541-9.9523,0-19.9037-2.1915-27.498-6.57541-7.595-4.38379-11.39009-10.13219-11.3917-15.87659v11.084c.00161,5.7452,3.7967,11.48959,11.3917,15.8742,7.5943,4.3855,17.5457,6.5762,27.498,6.5762,9.9515,0,19.9015-2.1891,27.4933-6.57381,7.59661-4.38459,11.3934-10.13139,11.3918-15.87819v-11.0824C159.205,398.13469,155.40821,403.88309,147.8116,408.26688Z"></path><path fill="#f378a4" d="M97.9871,405.283c6.1657,3.56,14.2485,5.3428,22.3312,5.3428,8.082,0,16.1631-1.7828,22.329-5.3428,5.6891-3.2829,8.7488-7.5113,9.1868-11.8099-.438-4.301-3.4977-8.5279-9.1868-11.81321-6.1674-3.56149-14.2486-5.34189-22.3329-5.34119-8.0811-.0007-16.1631,1.7797-22.3321,5.34119-5.6876,3.28531-8.7464,7.51061-9.1868,11.81C89.2359,397.76939,92.2947,401.99769,97.9871,405.283Z" class="colorf3b378 svgShape"></path><path fill="url(#a)" d="M97.9823,381.65988c6.169-3.56149,14.251-5.34189,22.3321-5.34119,8.0843-.0007,16.1655,1.7797,22.3329,5.34119,5.6891,3.28531,8.7488,7.51221,9.1868,11.81321a10.3989,10.3989,0,0,0,.06311-1.0828c0-4.66641-3.08331-9.3312-9.24991-12.892-6.1674-3.5599-14.2486-5.3426-22.3329-5.3426-8.0811,0-16.1631,1.7827-22.3321,5.3426-6.1658,3.5608-9.24909,8.22559-9.2483,12.892a10.51511,10.51511,0,0,0,.0615,1.07959C89.2359,389.17049,92.2947,384.94519,97.9823,381.65988Z"></path><polygon fill="#932b77" points="134.182 382.002 134.267 381.953 134.267 379.791 132.309 380.921 134.182 382.002" class="colorba6038 svgShape"></polygon><polygon fill="#fd367e" points="99.704 396.116 95.54 393.713 95.54 395.875 97.831 397.197 99.704 396.116" class="colord67747 svgShape"></polygon><polygon fill="#fd367e" points="122.965 379.8 121.301 378.839 121.301 380.76 122.965 379.8" class="colord67747 svgShape"></polygon><path fill="#932b77" d="M138.3888,384.57129a5.354,5.354,0,0,1,1.2347,1.4494l.8444-.4875.0001-2.16231Z" class="colorba6038 svgShape"></path><path fill="url(#l)" d="M140.1215,387.74959l-1.0682,1.9311.45291.0865a6.40012,6.40012,0,0,1-2.26831,2.0643,14.09525,14.09525,0,0,1-6.6296,1.6633,4.68041,4.68041,0,0,1,.3003,2.1402,13.93928,13.93928,0,0,0,6.3293-1.64111c1.96231-1.133,2.901-2.62659,2.8605-4.11369l.0186.0036Z"></path><polygon fill="#932b77" points="120.103 385.726 121.975 386.807 126.666 384.099 126.666 381.936 120.103 385.726" class="colorba6038 svgShape"></polygon><path fill="#fd367e" d="M133.5407,385.90559l-6.875-3.9692v2.1622l6.875,3.96929a3.167,3.167,0,0,1,.9502.81211C135.2409,387.89719,134.9316,386.70859,133.5407,385.90559Z" class="colord67747 svgShape"></path><path fill="url(#m)" d="M129.8731,397.19959l.5703.11929a8.25441,8.25441,0,0,1-3.47219,3.45841c-4.86081,2.8064-12.51361,3.0281-17.82931.6797v2.1624c5.3157,2.3483,12.9685,2.12649,17.82931-.6798,2.63959-1.5239,3.93469-3.52271,3.939-5.523l.01409.003.0195-2.1719Z"></path><polygon fill="#fd367e" points="103.899 400.798 103.899 402.961 107.091 404.803 107.091 402.641 103.899 400.798" class="colord67747 svgShape"></polygon><polygon fill="#932b77" points="107.091 402.641 107.091 404.803 109.142 403.619 109.142 401.457 107.091 402.641" class="colorba6038 svgShape"></polygon><polygon fill="#fd367e" points="102.847 397.931 102.847 400.093 103.984 400.75 105.856 399.669 102.847 397.931" class="colord67747 svgShape"></polygon><polygon fill="#fd367e" points="97.747 397.246 97.747 399.408 100.89 401.223 100.89 399.061 97.747 397.246" class="colord67747 svgShape"></polygon><polygon fill="#932b77" points="100.89 399.061 100.89 401.223 102.847 400.093 102.847 397.931 100.89 399.061" class="colorba6038 svgShape"></polygon><polygon fill="#932b77" points="104.605 394.673 106.478 395.754 116.402 390.024 116.402 387.862 104.605 394.673" class="colorba6038 svgShape"></polygon><path fill="#fd367e" d="M123.2766,391.83149l-6.8749-3.9692v2.1622l6.8749,3.9693a4.88762,4.88762,0,0,1,2.2154,2.3204C126.1118,394.75159,125.3794,393.04549,123.2766,391.83149Z" class="colord67747 svgShape"></path><path fill="#f47aa6" d="M126.97121,400.77729c3.418-1.97341,4.63059-4.74441,3.63709-7.2825a14.09757,14.09757,0,0,0,6.6296-1.6632c3.4169-1.9728,3.79631-5.0409,1.1509-7.2603l2.0792-1.20041-3.1916-1.84259-1.9579,1.1304-3.0095-1.7375,1.958-1.1304-3.1433-1.8148-1.9579,1.1304-4.1635-2.4038-3.7008,2.1367,1.6634.9604-22.0604,12.7365-1.6634-.96031-3.7008,2.13671,4.1634,2.4037-1.957,1.1299,3.1433,1.8148,1.957-1.1299,3.0094,1.7375-1.957,1.1299,3.1916,1.8426,2.0509-1.184C114.4577,403.80539,122.1104,403.58369,126.97121,400.77729Zm6.56949-14.8717c1.8084,1.0441,1.807,2.7439-.0036,3.78929a7.25935,7.25935,0,0,1-6.5596,0l-6.8749-3.96929,6.5631-3.7892Zm-22.0604,12.7366-6.875-3.96931,11.7964-6.81059,6.875,3.9692c3.25,1.87639,3.2473,4.9307-.0063,6.8091A13.049,13.049,0,0,1,111.4803,398.64219Z" class="colorf4cf7a svgShape"></path><g data-name="Shadow from laptop" fill="#000000" class="color000 svgShape"><path fill="url(#n)" style="mix-blend-mode:multiply" d="M613.12058,261.70369l-11.62137-6.7096c-3.46523-2.0009-11.96772-3.6365-18.89972-3.6365H306.11659c-6.93038,0-152.08859,90.8149-152.08859,90.8149-3.4636,2.0015-3.4636,5.2735,0,7.2752l211.63539,122.1867a12.91335,12.91335,0,0,0,6.33982,1.5003h5.50338l148.9905-86.02,6.15-3.5515h80.47349Z"></path></g><g fill="#000000" class="color000 svgShape"><path fill="url(#f)" style="mix-blend-mode:multiply" d="M422.836,499.14759a20.51531,20.51531,0,0,0-12.397-2.056,20.51563,20.51563,0,0,0-12.3971,2.056l-19.6459,11.3426c-3.91778,2.262-4.8843,5.5913-2.9045,8.3815a20.48638,20.48638,0,0,0-2.8532,1.3187l-19.64608,11.34249c-2.74332,1.58391-2.84232,3.00771-.81932,4.00451l-.0208.0032,5.7113,3.2345c.0443.0265.0913.0523.1383.0783l.0962.05449.0088-.004c1.7764.93091,5.3497,1.50641,10.3853,1.50641,10.4118,0,23.1168-2.445,28.32222-5.4503l19.64588-11.3426c2.7338-1.5783,2.8419-2.9978.8405-3.9941l.0204-.0026-5.1326-2.791-.006.009a2.81562,2.81562,0,0,0-.4631-.3714l11.1173-6.4186C428.04189,507.04349,428.04189,502.15329,422.836,499.14759Zm-40.44778,32.38529c-2.64652,1.528-8.77342,2.79261-14.23272,3.00151l18.8978-10.9107a23.042,23.042,0,0,0,3.7405-.1764,23.11422,23.11422,0,0,0,5.4989.0578Zm30.35168-23.89939-12.3251,7.1159c-1.0817.01149-2.184.0491-3.2993.1083-.33328.0019-.7207.0193-1.1939.0621-2.6622.2409-6.4418.6444-9.5936,1.1317-.0504-1.136.6667-2.2812,2.1647-3.146l19.6459-11.34261a8.95639,8.95639,0,0,1,2.3003-.89349,8.95681,8.95681,0,0,1,2.30032.89349C415.63839,503.23669,415.63839,505.96009,412.73989,507.63349Z"></path><path fill="#fcf7f9" d="M376.69169,511.45949c-5.2052-3.0052-5.2052-7.8954.0001-10.9007l19.6459-11.3426c5.2053-3.0052,13.6753-3.0052,18.8806,0,5.206,3.00569,5.206,7.8959.0007,10.9011l-19.646,11.34259C390.36769,514.46519,381.89769,514.46519,376.69169,511.45949Zm4.1834-8.4854c-2.8985,1.6734-2.8985,4.39679,0,6.0702a11.63748,11.63748,0,0,0,10.5146.0004l19.646-11.3426c2.89852-1.6734,2.89852-4.3968-.0007-6.0707a11.63746,11.63746,0,0,0-10.514,0Z" class="colorf7f7fc svgShape"></path><path fill="#d62d6a" d="M419.11809,494.60949h.0026v.0318C419.12069,494.63069,419.11829,494.62009,419.11809,494.60949Z" class="colord6952d svgShape"></path><path fill="url(#o)" d="M380.87509,502.97409l19.6459-11.3427a11.63746,11.63746,0,0,1,10.514,0c2.5643,1.4806,2.8561,3.7809.8846,5.4509a6.01077,6.01077,0,0,0-.8846-.62041,11.63753,11.63753,0,0,0-10.514,0l-19.6459,11.34261a5.9874,5.9874,0,0,0-.88488.6192C378.01969,506.75388,378.31179,504.454,380.87509,502.97409Z"></path><path fill="url(#p)" d="M376.69169,511.45949c5.206,3.0057,13.6761,3.0057,18.8813.00039l19.646-11.34259c2.5913-1.496,3.8906-3.45941,3.9017-5.4247v4.6467h-.0109c.07142,2.0264-1.2187,4.06559-3.8908,5.6085l-19.646,11.3425c-5.2052,3.0053-13.6753,3.0053-18.8813-.0003-2.6591-1.5354-3.9511-3.5624-3.8932-5.579h-.0106v-4.7018C372.78789,507.98309,374.08909,509.95688,376.69169,511.45949Z"></path><path fill="url(#q)" d="M354.86839,510.74259,374.51429,499.4c2.6523-1.5312,5.0486-1.6407,6.7652-.5912l.00472-.0025,3.80808,2.2072-.0122.0093c-1.6826-.818-3.9204-.6291-6.3825.7924l-19.6459,11.3426c-5.2054,3.0053-9.4403,10.3406-9.4403,16.3518,0,2.9304,1.0116,5.0049,2.6465,6.0218l-.0011.0092-3.983-2.2986-.00158-.0056c-1.75222-.9684-2.84412-3.0941-2.84412-6.142C345.42809,521.08319,349.66309,513.74788,354.86839,510.74259Z"></path><path fill="#ed5a8f" d="M379.712,508.16279a5.58858,5.58858,0,0,0,1.1631.8815,9.49083,9.49083,0,0,0,3.06212,1.0447c.00748-.1363.01738-.2733.01738-.4075,0-2.9607-1.8459-4.3635-4.2776-3.4917a5.90868,5.90868,0,0,1,.0943,1.0765A7.82551,7.82551,0,0,1,379.712,508.16279Zm-25.8229,20.004c.4593,2.5445,2.5977,3.4433,5.1623,1.9628l13.3421-7.703,6.3041-3.63971a8.47168,8.47168,0,0,0,1.4372-1.06609,15.5759,15.5759,0,0,1-3.4431-1.4308,11.21573,11.21573,0,0,1-1.0628-.70211,8.16413,8.16413,0,0,1-1.1146.78391l-19.6459,11.3425A5.93424,5.93424,0,0,1,353.88909,528.16679Z" class="colored995a svgShape"></path><path fill="#932b77" d="M359.05169,513.15779l19.6459-11.3426c5.2053-3.0052,9.4403-.5601,9.4403,5.4511a15.00547,15.00547,0,0,1-.3115,2.9084,12.71937,12.71937,0,0,1-3.88918-.0857c.00748-.1363.01738-.2733.01738-.4075,0-3.3475-2.3586-4.7093-5.257-3.0358l-19.6459,11.3425a11.63762,11.63762,0,0,0-5.2571,9.1062c0,3.3469,2.35862,4.7086,5.2571,3.0351l19.6459-11.3425a8.47243,8.47243,0,0,0,1.4372-1.0662,20.91143,20.91143,0,0,0,4.0157.7298,18.0833,18.0833,0,0,1-5.4529,5.1668L359.05169,534.96c-5.2054,3.0052-9.4403.5602-9.4403-5.4504C349.61139,523.49839,353.84629,516.16309,359.05169,513.15779Z" class="colorba6038 svgShape"></path></g><g fill="#000000" class="color000 svgShape"><path fill="url(#b)" style="mix-blend-mode:multiply" d="M615.82008,381.64488c-4.1482-2.39489-4.1485-6.292,0-8.68709l7.1028-4.1008a16.65256,16.65256,0,0,1,15.0466,0c4.1483,2.395,4.1486,6.292.0001,8.6871l-7.1029,4.1009A16.65287,16.65287,0,0,1,615.82008,381.64488Zm18.1068-10.45389a7.70439,7.70439,0,0,0-6.9614,0l-7.1028,4.1008c-1.9193,1.10809-1.9193,2.911,0,4.01909a7.70411,7.70411,0,0,0,6.9614.00011l7.1029-4.1009C635.84628,374.102,635.84628,372.29909,633.92688,371.191Z"></path><path fill="#fcf7f9" d="M611.76488,377.27588c-4.1483-2.395-4.1486-6.292-.0001-8.68719l7.1029-4.10081a16.65324,16.65324,0,0,1,15.0466,0c4.1482,2.395,4.1485,6.292,0,8.68721l-7.1028,4.10079A16.65253,16.65253,0,0,1,611.76488,377.27588Zm18.1068-10.454a7.70452,7.70452,0,0,0-6.9614,0l-7.1029,4.10081c-1.9193,1.10819-1.9193,2.9111.0001,4.01919a7.70439,7.70439,0,0,0,6.9614,0l7.1028-4.10079C631.791,369.733,631.791,367.93009,629.87168,366.82188Z" class="colorf7f7fc svgShape"></path><path fill="url(#r)" d="M629.87168,366.82188a7.70452,7.70452,0,0,0-6.9614,0l-7.1028,4.10081c-1.9194,1.10819-1.9194,2.9111,0,4.01919.10373.05991.2232.10391.3336.15731l6.7692-3.9082a7.7512,7.7512,0,0,1,6.6277-.1572l.3337-.1927C631.791,369.733,631.791,367.93009,629.87168,366.82188Z"></path><path fill="url(#s)" d="M633.91428,373.17509l-7.1028,4.10079a16.65253,16.65253,0,0,1-15.0466,0c-2.0514-1.18439-3.0845-2.73619-3.1071-4.292l-.0042,4.25161.0059-.0058c-.032,1.5969.99973,3.1995,3.1054,4.4153a16.65321,16.65321,0,0,0,15.0466,0l7.1028-4.1008c2.0668-1.19331,3.1025-2.7594,3.10993-4.3267l.00067.0008v-4.3788C637.02138,370.40988,635.985,371.97959,633.91428,373.17509Z"></path><polygon fill="url(#t)" style="mix-blend-mode:multiply" points="28.884 413.994 21.317 413.994 25.36 416.328 4.043 428.636 11.61 428.636 32.927 416.328 28.884 413.994"></polygon><polygon fill="#fcf7f9" points="4.043 424.266 0 421.932 17.274 411.959 14.355 410.273 18.397 407.939 25.36 411.959 4.043 424.266" class="colorf7f7fc svgShape"></polygon><polygon fill="#f6d0de" points="4.043 428.636 0 426.302 0 421.932 4.043 424.266 4.043 428.636" class="colord0d4f6 svgShape"></polygon><polygon fill="#f6d0de" points="14.355 413.645 14.355 410.273 17.274 411.959 14.355 413.645" class="colord0d4f6 svgShape"></polygon><polygon fill="#e4bdcb" points="25.36 416.328 4.043 428.636 4.043 424.266 25.36 411.959 25.36 416.328" class="colorbdc1e4 svgShape"></polygon></g><g fill="#000000" class="color000 svgShape"><polygon fill="url(#c)" style="mix-blend-mode:multiply" points="693.744 391.796 708.952 400.577 693.744 409.359 735.985 400.577 693.744 391.796"></polygon><polygon fill="#fcf7f9" points="693.744 374.026 693.744 409.359 678.534 400.578 693.744 374.026" class="colorf7f7fc svgShape"></polygon><polygon fill="#f6d0de" points="693.744 374.026 693.744 409.359 708.952 400.578 693.744 374.026" class="colord0d4f6 svgShape"></polygon><polygon fill="url(#u)" style="mix-blend-mode:multiply" points="59.404 170.408 74.612 179.189 59.404 187.97 101.646 179.189 59.404 170.408"></polygon><polygon fill="#fcf7f9" points="59.404 152.638 59.404 187.97 44.195 179.19 59.404 152.638" class="colorf7f7fc svgShape"></polygon><polygon fill="#f6d0de" points="59.404 152.638 59.404 187.97 74.612 179.19 59.404 152.638" class="colord0d4f6 svgShape"></polygon></g><g data-name="Back blocks" fill="#000000" class="color000 svgShape"><rect style="mix-blend-mode:multiply" width="111.365" height="57.422" x="104.167" y="283.299" fill="url(#d)" transform="rotate(180 159.85 312.01)"></rect><rect style="mix-blend-mode:multiply" width="111.365" height="61.956" x="143.701" y="241.987" fill="url(#v)" transform="rotate(180 199.383 272.965)"></rect><path fill="url(#w)" style="mix-blend-mode:multiply" d="M653.76461,299.40109a34.84614,34.84614,0,0,0-9.8747-3.1181,71.57588,71.57588,0,0,0-13.03863-1.2916h-76.76c-4.2182,0-7.1823.4936-8.5644,1.2916s-1.1825,1.9004.9266,3.1181v48.0605c-2.1091,1.2178-2.3087,2.3202-.9266,3.1182s4.3462,1.2915,8.5644,1.2915h76.76a71.567,71.567,0,0,0,13.03863-1.2916,34.8397,34.8397,0,0,0,9.8747-3.1181Z"></path><path fill="url(#x)" style="mix-blend-mode:multiply" d="M259.546,441.23909a71.56568,71.56568,0,0,0-13.0386-1.2917h-76.76c-4.21819,0-7.18219.4936-8.5644,1.2916s-1.1825,1.9004.9267,3.1181v48.0606c-2.1092,1.2177-2.3088,2.3201-.9267,3.1181s4.34621,1.2916,8.5644,1.2916h11.7211v6.7671c-2.1092,1.2177-2.3088,2.3201-.9267,3.1181s4.3462,1.2916,8.56441,1.2916h11.72108v6.7671c-2.1092,1.2177-2.3088,2.3201-.9267,3.1182,1.3822.7979,4.3462,1.2915,8.5644,1.2915h76.76a71.57442,71.57442,0,0,0,13.0386-1.2916,34.84806,34.84806,0,0,0,9.8748-3.1181v-48.0606C291.79959,453.84959,263.69249,442.037,259.546,441.23909Z"></path><path fill="#e4bdcb" d="M589.30789,327.886l-38.3803,22.1588c-2.1091,1.2177-4.0185,1.333-5.4007.535s-2.2371-2.5092-2.2371-4.9446v-44.3174a16.88263,16.88263,0,0,1,7.6378-13.2291l38.3803-22.15881c2.1091-1.21769,4.0185-1.333,5.40069-.53509s2.2371,2.5093,2.2371,4.9447v44.31739a16.88194,16.88194,0,0,1-7.63779,13.22911Z" class="colorbdc1e4 svgShape"></path><path fill="url(#y)" d="M585.67521,324.11909l-31.11482,17.9642c-1.7099.9872-3.2579,1.08059-4.3784.4337s-1.8136-2.0342-1.8136-4.0086v-35.9281a13.68639,13.68639,0,0,1,6.192-10.7247l31.11482-17.9642c1.70978-.9872,3.25778-1.0806,4.37828-.4337s1.8136,2.03419,1.8136,4.0086v35.9281a13.686,13.686,0,0,1-6.19188,10.7247Z"></path><path fill="url(#z)" d="M543.28979,345.63519v-44.3175a16.88266,16.88266,0,0,1,7.6378-13.229l38.3803-22.1589c2.1091-1.2176,4.0186-1.33291,5.40069-.535L544.433,236.36819c-1.3822-.798-3.2916-.6827-5.4007.535l-38.3803,22.1589a16.88215,16.88215,0,0,0-7.63778,13.229v44.3174c0,2.43539.85488,4.1467,2.23708,4.9447l50.2756,29.0266C544.14469,349.78179,543.28979,348.07059,543.28979,345.63519Z"></path><path fill="url(#A)" style="mix-blend-mode:multiply" d="M553.62421,266.98439c-2.10922,1.2177-2.30882,2.3201-.92672,3.1181s4.3462,1.2916,8.5644,1.2916h18.5816l9.4644-5.4643c2.1091-1.2176,4.0186-1.33291,5.40069-.535l-41.08437-23.72Z"></path><path fill="#fcf7f9" d="M143.7006,180.0301,90.045,211.00819l53.6559,30.9782,53.6555-30.9781Zm.0002,53.29169-38.6484-22.3136,38.6482-22.31359,38.6484,22.31369Z" class="colorf7f7fc svgShape"></path><path fill="#e4bdcb" d="M143.7006,241.98659v61.9561l53.6558-30.9783v-61.9561Zm46.1521,26.6456-38.6484,22.31369V246.31879l38.6484-22.3136Z" class="colorbdc1e4 svgShape"></path><path fill="#f6d0de" d="M90.0448,211.00829v61.9561l53.6558,30.9783v-61.9561Zm46.152,79.9375-38.6483-22.3136v-44.6271l38.6483,22.3137Z" class="colord0d4f6 svgShape"></path><polygon fill="#cea5c3" points="109.025 213.302 143.701 193.282 143.701 188.695 105.052 211.008 109.025 213.302" class="colora5aace svgShape"></polygon><polygon fill="#cea5c3" points="101.522 226.299 101.522 266.339 97.548 268.632 97.548 224.005 101.522 226.299" class="colora5aace svgShape"></polygon><polygon fill="#fcf7f9" points="97.549 268.632 136.197 290.946 136.197 286.359 101.522 266.339 97.549 268.632" class="colorf7f7fc svgShape"></polygon><polygon fill="#e26ac2" points="101.522 226.299 101.522 266.339 136.197 286.359 136.197 246.319 101.522 226.299" class="color6a6ae2 svgShape"></polygon><polygon fill="#f6d0de" points="178.377 213.302 143.701 193.282 143.701 188.695 182.349 211.008 178.377 213.302" class="colord0d4f6 svgShape"></polygon><polygon fill="#f6d0de" points="185.88 226.299 185.88 266.339 189.853 268.632 189.853 224.005 185.88 226.299" class="colord0d4f6 svgShape"></polygon><polygon fill="#fcf7f9" points="189.853 268.632 151.205 290.946 151.205 286.359 185.88 266.339 189.853 268.632" class="colorf7f7fc svgShape"></polygon><polygon fill="url(#B)" points="185.88 226.299 185.88 266.339 151.205 286.359 151.205 246.319 185.88 226.299"></polygon><polygon fill="url(#C)" points="109.025 213.302 143.701 193.282 178.377 213.302 143.701 233.322 109.025 213.302"></polygon><polygon fill="#f4e1e8" style="mix-blend-mode:multiply" points="109.026 213.302 143.701 193.282 147.674 195.575 112.998 215.595 109.026 213.302" class="colore1e5f4 svgShape"></polygon><polygon fill="#f4e1e8" style="mix-blend-mode:multiply" points="147.674 195.575 143.701 188.695 143.701 193.282 147.674 195.575" class="colore1e5f4 svgShape"></polygon><path fill="#fcf7f9" d="M96.5293,280.84109,58.149,258.68219c-2.1091-1.2177-3.1637-2.8137-3.1637-4.4097s1.0545-3.192,3.1637-4.4097l38.38-22.1587a16.88218,16.88218,0,0,1,15.2756.0001l38.3802,22.1588c2.1091,1.2177,3.1637,2.8137,3.1637,4.4097s-1.0545,3.192-3.1636,4.4097l-38.3801,22.1587a16.88238,16.88238,0,0,1-15.2755,0Z" class="colorf7f7fc svgShape"></path><path fill="url(#h)" d="M150.1848,258.68229l-38.3799,22.1588a16.88218,16.88218,0,0,1-15.2756-.0001L58.149,258.68219c-2.1091-1.2177-3.1637-2.8137-3.1637-4.4097v58.0529c0,1.596,1.0546,3.192,3.1637,4.4097L96.5293,338.894a16.88259,16.88259,0,0,0,15.2756,0l38.3799-22.1587c2.1092-1.2178,3.1637-2.8137,3.1637-4.4098v-58.0529C153.3485,255.86859,152.294,257.46469,150.1848,258.68229Z"></path><ellipse cx="104.167" cy="254.273" fill="url(#D)" rx="19.292" ry="11.138"></ellipse><polygon fill="#fcf7f9" points="260.103 87.194 206.448 56.216 260.103 25.238 313.759 56.216 260.103 87.194" class="colorf7f7fc svgShape"></polygon><polygon fill="#f6d0de" points="260.103 149.15 206.448 118.172 206.448 56.216 260.103 87.194 260.103 149.15" class="colord0d4f6 svgShape"></polygon><polygon fill="#e4bdcb" points="260.103 149.15 313.759 118.172 313.759 56.216 260.103 87.194 260.103 149.15" class="colorbdc1e4 svgShape"></polygon><g style="mix-blend-mode:multiply" fill="#000000" class="color000 svgShape"><polygon fill="#f4dce5" points="260.103 35.615 255.813 33.138 260.103 30.661 264.394 33.138 260.103 35.615" class="colordce1f4 svgShape"></polygon><polygon fill="#f4dce5" points="270.096 41.384 265.806 38.907 270.096 36.43 274.387 38.907 270.096 41.384" class="colordce1f4 svgShape"></polygon><polygon fill="#f4dce5" points="280.09 47.154 275.799 44.677 280.09 42.2 284.38 44.677 280.09 47.154" class="colordce1f4 svgShape"></polygon><polygon fill="#f4dce5" points="290.083 52.924 285.792 50.447 290.083 47.969 294.373 50.447 290.083 52.924" class="colordce1f4 svgShape"></polygon><polygon fill="#f4dce5" points="300.076 58.693 295.785 56.216 300.076 53.739 304.367 56.216 300.076 58.693" class="colordce1f4 svgShape"></polygon><polygon fill="#f4dce5" points="250.11 41.384 245.819 38.907 250.11 36.43 254.4 38.907 250.11 41.384" class="colordce1f4 svgShape"></polygon><polygon fill="#f4dce5" points="260.103 47.154 255.813 44.677 260.103 42.2 264.394 44.677 260.103 47.154" class="colordce1f4 svgShape"></polygon><polygon fill="#f4dce5" points="270.096 52.924 265.806 50.446 270.096 47.969 274.387 50.447 270.096 52.924" class="colordce1f4 svgShape"></polygon><polygon fill="#f4dce5" points="280.09 58.693 275.799 56.216 280.09 53.739 284.38 56.216 280.09 58.693" class="colordce1f4 svgShape"></polygon><polygon fill="#f4dce5" points="290.083 64.463 285.792 61.986 290.083 59.509 294.373 61.986 290.083 64.463" class="colordce1f4 svgShape"></polygon><polygon fill="#f4dce5" points="240.117 47.154 235.826 44.677 240.117 42.2 244.407 44.677 240.117 47.154" class="colordce1f4 svgShape"></polygon><polygon fill="#f4dce5" points="250.11 52.924 245.819 50.446 250.11 47.969 254.401 50.446 250.11 52.924" class="colordce1f4 svgShape"></polygon><polygon fill="#f4dce5" points="260.103 58.693 255.813 56.216 260.103 53.739 264.394 56.216 260.103 58.693" class="colordce1f4 svgShape"></polygon><polygon fill="#f4dce5" points="270.096 64.463 265.806 61.986 270.096 59.509 274.387 61.986 270.096 64.463" class="colordce1f4 svgShape"></polygon><polygon fill="#f4dce5" points="280.09 70.232 275.799 67.755 280.09 65.278 284.38 67.755 280.09 70.232" class="colordce1f4 svgShape"></polygon><polygon fill="#f4dce5" points="230.124 52.924 225.833 50.446 230.124 47.969 234.414 50.446 230.124 52.924" class="colordce1f4 svgShape"></polygon><polygon fill="#f4dce5" points="240.117 58.693 235.826 56.216 240.117 53.739 244.407 56.216 240.117 58.693" class="colordce1f4 svgShape"></polygon><polygon fill="#f4dce5" points="250.11 64.463 245.82 61.986 250.11 59.508 254.401 61.986 250.11 64.463" class="colordce1f4 svgShape"></polygon><polygon fill="#f4dce5" points="260.103 70.232 255.813 67.755 260.103 65.278 264.394 67.755 260.103 70.232" class="colordce1f4 svgShape"></polygon><polygon fill="#f4dce5" points="270.097 76.002 265.806 73.525 270.097 71.048 274.387 73.525 270.097 76.002" class="colordce1f4 svgShape"></polygon><polygon fill="#f4dce5" points="220.13 58.693 215.84 56.216 220.13 53.739 224.421 56.216 220.13 58.693" class="colordce1f4 svgShape"></polygon><polygon fill="#f4dce5" points="230.124 64.463 225.833 61.986 230.124 59.508 234.414 61.986 230.124 64.463" class="colordce1f4 svgShape"></polygon><polygon fill="#f4dce5" points="240.117 70.232 235.826 67.755 240.117 65.278 244.407 67.755 240.117 70.232" class="colordce1f4 svgShape"></polygon><polygon fill="#f4dce5" points="250.11 76.002 245.82 73.525 250.11 71.048 254.401 73.525 250.11 76.002" class="colordce1f4 svgShape"></polygon><polygon fill="#f4dce5" points="260.103 81.772 255.813 79.294 260.103 76.817 264.394 79.294 260.103 81.772" class="colordce1f4 svgShape"></polygon><polygon fill="#f4dce5" points="215.434 71.781 211.144 69.304 211.144 64.35 215.434 66.827 215.434 71.781" class="colordce1f4 svgShape"></polygon><polygon fill="#f4dce5" points="225.427 77.551 221.137 75.074 221.137 70.12 225.427 72.597 225.427 77.551" class="colordce1f4 svgShape"></polygon><polygon fill="#f4dce5" points="235.421 83.321 231.13 80.843 231.13 75.889 235.421 78.366 235.421 83.321" class="colordce1f4 svgShape"></polygon><polygon fill="#f4dce5" points="245.414 89.09 241.123 86.613 241.123 81.659 245.414 84.136 245.414 89.09" class="colordce1f4 svgShape"></polygon><polygon fill="#f4dce5" points="255.407 94.86 251.117 92.383 251.117 87.428 255.407 89.906 255.407 94.86" class="colordce1f4 svgShape"></polygon><polygon fill="#f4dce5" points="215.434 83.321 211.144 80.843 211.144 75.889 215.434 78.366 215.434 83.321" class="colordce1f4 svgShape"></polygon><polygon fill="#f4dce5" points="225.427 89.09 221.137 86.613 221.137 81.659 225.427 84.136 225.427 89.09" class="colordce1f4 svgShape"></polygon><polygon fill="#f4dce5" points="235.421 94.86 231.13 92.383 231.13 87.428 235.421 89.905 235.421 94.86" class="colordce1f4 svgShape"></polygon><polygon fill="#f4dce5" points="245.414 100.629 241.123 98.152 241.123 93.198 245.414 95.675 245.414 100.629" class="colordce1f4 svgShape"></polygon><polygon fill="#f4dce5" points="255.407 106.399 251.117 103.922 251.117 98.967 255.407 101.445 255.407 106.399" class="colordce1f4 svgShape"></polygon><polygon fill="#f4dce5" points="215.434 94.86 211.144 92.383 211.144 87.428 215.434 89.905 215.434 94.86" class="colordce1f4 svgShape"></polygon><polygon fill="#f4dce5" points="225.427 100.629 221.137 98.152 221.137 93.198 225.427 95.675 225.427 100.629" class="colordce1f4 svgShape"></polygon><polygon fill="#f4dce5" points="235.421 106.399 231.13 103.922 231.13 98.967 235.421 101.445 235.421 106.399" class="colordce1f4 svgShape"></polygon><polygon fill="#f4dce5" points="245.414 112.168 241.123 109.691 241.123 104.737 245.414 107.214 245.414 112.168" class="colordce1f4 svgShape"></polygon><polygon fill="#f4dce5" points="255.407 117.938 251.117 115.461 251.117 110.507 255.407 112.984 255.407 117.938" class="colordce1f4 svgShape"></polygon><polygon fill="#f4dce5" points="215.434 106.399 211.144 103.922 211.144 98.967 215.434 101.445 215.434 106.399" class="colordce1f4 svgShape"></polygon><polygon fill="#f4dce5" points="225.427 112.168 221.137 109.691 221.137 104.737 225.427 107.214 225.427 112.168" class="colordce1f4 svgShape"></polygon><polygon fill="#f4dce5" points="235.421 117.938 231.13 115.461 231.13 110.507 235.421 112.984 235.421 117.938" class="colordce1f4 svgShape"></polygon><polygon fill="#f4dce5" points="245.414 123.708 241.123 121.23 241.123 116.276 245.414 118.753 245.414 123.708" class="colordce1f4 svgShape"></polygon><polygon fill="#f4dce5" points="255.407 129.477 251.117 127 251.117 122.046 255.407 124.523 255.407 129.477" class="colordce1f4 svgShape"></polygon><polygon fill="#f4dce5" points="215.434 117.938 211.144 115.461 211.144 110.506 215.434 112.984 215.434 117.938" class="colordce1f4 svgShape"></polygon><polygon fill="#f4dce5" points="225.427 123.707 221.137 121.23 221.137 116.276 225.427 118.753 225.427 123.707" class="colordce1f4 svgShape"></polygon><polygon fill="#f4dce5" points="235.421 129.477 231.13 127 231.13 122.046 235.421 124.523 235.421 129.477" class="colordce1f4 svgShape"></polygon><polygon fill="#f4dce5" points="245.414 135.247 241.123 132.77 241.123 127.815 245.414 130.292 245.414 135.247" class="colordce1f4 svgShape"></polygon><polygon fill="#f4dce5" points="255.407 141.016 251.117 138.539 251.117 133.585 255.407 136.062 255.407 141.016" class="colordce1f4 svgShape"></polygon><polygon fill="#f4dce5" points="304.773 71.781 309.063 69.304 309.063 64.35 304.773 66.827 304.773 71.781" class="colordce1f4 svgShape"></polygon><polygon fill="#f4dce5" points="294.779 77.551 299.07 75.074 299.07 70.12 294.779 72.597 294.779 77.551" class="colordce1f4 svgShape"></polygon><polygon fill="#f4dce5" points="284.786 83.321 289.077 80.843 289.077 75.889 284.786 78.366 284.786 83.321" class="colordce1f4 svgShape"></polygon><polygon fill="#f4dce5" points="274.793 89.09 279.083 86.613 279.083 81.659 274.793 84.136 274.793 89.09" class="colordce1f4 svgShape"></polygon><polygon fill="#f4dce5" points="264.8 94.86 269.09 92.383 269.09 87.428 264.8 89.906 264.8 94.86" class="colordce1f4 svgShape"></polygon><polygon fill="#f4dce5" points="304.773 83.321 309.063 80.843 309.063 75.889 304.773 78.366 304.773 83.321" class="colordce1f4 svgShape"></polygon><polygon fill="#f4dce5" points="294.779 89.09 299.07 86.613 299.07 81.659 294.779 84.136 294.779 89.09" class="colordce1f4 svgShape"></polygon><polygon fill="#f4dce5" points="284.786 94.86 289.077 92.383 289.077 87.428 284.786 89.905 284.786 94.86" class="colordce1f4 svgShape"></polygon><polygon fill="#f4dce5" points="274.793 100.629 279.083 98.152 279.083 93.198 274.793 95.675 274.793 100.629" class="colordce1f4 svgShape"></polygon><polygon fill="#f4dce5" points="264.8 106.399 269.09 103.922 269.09 98.967 264.8 101.445 264.8 106.399" class="colordce1f4 svgShape"></polygon><polygon fill="#f4dce5" points="304.773 94.86 309.063 92.383 309.063 87.428 304.773 89.905 304.773 94.86" class="colordce1f4 svgShape"></polygon><polygon fill="#f4dce5" points="294.779 100.629 299.07 98.152 299.07 93.198 294.779 95.675 294.779 100.629" class="colordce1f4 svgShape"></polygon><polygon fill="#f4dce5" points="284.786 106.399 289.077 103.922 289.077 98.967 284.786 101.445 284.786 106.399" class="colordce1f4 svgShape"></polygon><polygon fill="#f4dce5" points="274.793 112.168 279.083 109.691 279.083 104.737 274.793 107.214 274.793 112.168" class="colordce1f4 svgShape"></polygon><polygon fill="#f4dce5" points="264.8 117.938 269.09 115.461 269.09 110.507 264.8 112.984 264.8 117.938" class="colordce1f4 svgShape"></polygon><polygon fill="#f4dce5" points="304.773 106.399 309.063 103.922 309.063 98.967 304.773 101.445 304.773 106.399" class="colordce1f4 svgShape"></polygon><polygon fill="#f4dce5" points="294.779 112.168 299.07 109.691 299.07 104.737 294.779 107.214 294.779 112.168" class="colordce1f4 svgShape"></polygon><polygon fill="#f4dce5" points="284.786 117.938 289.077 115.461 289.077 110.507 284.786 112.984 284.786 117.938" class="colordce1f4 svgShape"></polygon><polygon fill="#f4dce5" points="274.793 123.708 279.083 121.23 279.083 116.276 274.793 118.753 274.793 123.708" class="colordce1f4 svgShape"></polygon><polygon fill="#f4dce5" points="264.8 129.477 269.09 127 269.09 122.046 264.8 124.523 264.8 129.477" class="colordce1f4 svgShape"></polygon><polygon fill="#f4dce5" points="304.773 117.938 309.063 115.461 309.063 110.506 304.773 112.984 304.773 117.938" class="colordce1f4 svgShape"></polygon><polygon fill="#f4dce5" points="294.779 123.707 299.07 121.23 299.07 116.276 294.779 118.753 294.779 123.707" class="colordce1f4 svgShape"></polygon><polygon fill="#f4dce5" points="284.786 129.477 289.077 127 289.077 122.046 284.786 124.523 284.786 129.477" class="colordce1f4 svgShape"></polygon><polygon fill="#f4dce5" points="274.793 135.247 279.083 132.77 279.083 127.815 274.793 130.292 274.793 135.247" class="colordce1f4 svgShape"></polygon><polygon fill="#f4dce5" points="264.8 141.016 269.09 138.539 269.09 133.585 264.8 136.062 264.8 141.016" class="colordce1f4 svgShape"></polygon></g><path fill="#f6d0de" d="M514.31721,247.94369l38.38028,22.1588c2.1091,1.2177,4.0186,1.333,5.40072.535s2.23708-2.5092,2.23708-4.94461V221.37549a16.88249,16.88249,0,0,0-7.6378-13.2291L514.31721,185.9876c-2.10912-1.21772-4.01852-1.333-5.40072-.535s-2.2371,2.5092-2.2371,4.9446v44.31749a16.88261,16.88261,0,0,0,7.63782,13.229Z" class="colord0d4f6 svgShape"></path><path fill="url(#g)" d="M560.33529,265.69288V221.37549a16.88192,16.88192,0,0,0-7.6378-13.2291l-38.3802-22.15879c-2.1092-1.21772-4.0186-1.333-5.4008-.535l50.2756-29.02672c1.3822-.79788,3.2917-.68258,5.4007.535l38.38029,22.15892a16.88266,16.88266,0,0,1,7.6378,13.229v44.31749c0,2.4353-.8549,4.14659-2.2371,4.94459l-50.27549,29.02661C559.48039,269.83959,560.33529,268.12829,560.33529,265.69288Z"></path><polygon fill="#e4bdcb" points="512.403 231.548 554.612 255.917 554.612 262.194 512.403 237.825 512.403 231.548" class="colorbdc1e4 svgShape"></polygon><polygon fill="#e4bdcb" points="512.403 219.188 554.612 243.557 554.612 249.834 512.403 225.465 512.403 219.188" class="colorbdc1e4 svgShape"></polygon><polygon fill="#e4bdcb" points="512.403 206.827 554.612 231.197 554.612 237.474 512.403 213.104 512.403 206.827" class="colorbdc1e4 svgShape"></polygon><polygon fill="#e4bdcb" points="512.403 194.467 554.612 218.837 554.612 225.114 512.403 200.744 512.403 194.467" class="colorbdc1e4 svgShape"></polygon><path fill="url(#e)" d="M213.24909,451.15369a5.18722,5.18722,0,0,0-1.7905-1.8936l-9.8679-5.6973a1.77821,1.77821,0,0,0-1.7904-.1738l-50.27569,29.0266a1.77841,1.77841,0,0,1,1.7905.1739l9.8679,5.6972a5.62453,5.62453,0,0,1,2.53521,4.3911v11.3944a1.77837,1.77837,0,0,1-.74471,1.6375l50.27559-29.0267a1.77825,1.77825,0,0,0,.7447-1.6375v-11.3943A5.18793,5.18793,0,0,0,213.24909,451.15369Z"></path><path fill="url(#E)" d="M213.24909,428.80019a5.188,5.188,0,0,0-1.7905-1.8936l-9.8679-5.6972a1.77824,1.77824,0,0,0-1.7904-.1739l-50.27569,29.0267a1.77836,1.77836,0,0,1,1.7905.1738l9.8679,5.6972a5.62449,5.62449,0,0,1,2.53521,4.3911v11.3944a1.77838,1.77838,0,0,1-.74471,1.6375l50.27559-29.0266a1.77836,1.77836,0,0,0,.7447-1.6375v-11.3944A5.18793,5.18793,0,0,0,213.24909,428.80019Z"></path><path fill="url(#F)" d="M232.60789,462.33049a5.18733,5.18733,0,0,0-1.7905-1.89361l-9.8679-5.69729a1.77821,1.77821,0,0,0-1.7904-.1738l-50.27569,29.0266a1.77844,1.77844,0,0,1,1.7905.1739l9.8679,5.6972a5.62449,5.62449,0,0,1,2.5352,4.3911V505.249a1.77836,1.77836,0,0,1-.7447,1.6375l50.27559-29.0267a1.77825,1.77825,0,0,0,.7447-1.6375V464.828A5.1879,5.1879,0,0,0,232.60789,462.33049Z"></path><path fill="url(#G)" d="M251.96669,473.50729a5.18717,5.18717,0,0,0-1.79048-1.8936l-9.86792-5.6973a1.77845,1.77845,0,0,0-1.7904-.1738l-50.27568,29.0266a1.77843,1.77843,0,0,1,1.79049.1739l9.86789,5.6972a5.62449,5.62449,0,0,1,2.5352,4.3911v11.3944a1.77836,1.77836,0,0,1-.7447,1.6375l50.2756-29.0267a1.77814,1.77814,0,0,0,.7447-1.6374v-11.3944A5.18771,5.18771,0,0,0,251.96669,473.50729Z"></path><path fill="url(#H)" d="M232.60789,439.977a5.18793,5.18793,0,0,0-1.7905-1.8936l-9.8679-5.6972a1.77826,1.77826,0,0,0-1.7904-.1739L168.8834,461.239a1.77839,1.77839,0,0,1,1.7905.1738l9.8679,5.6972a5.62449,5.62449,0,0,1,2.5352,4.3911v11.3944a1.77836,1.77836,0,0,1-.7447,1.6375l50.27559-29.0266a1.77838,1.77838,0,0,0,.7447-1.63751V442.47449A5.1879,5.1879,0,0,0,232.60789,439.977Z"></path><path fill="url(#H)" d="M232.60789,439.977a5.18793,5.18793,0,0,0-1.7905-1.8936l-9.8679-5.6972a1.77826,1.77826,0,0,0-1.7904-.1739L168.8834,461.239a1.77839,1.77839,0,0,1,1.7905.1738l9.8679,5.6972a5.62449,5.62449,0,0,1,2.5352,4.3911v11.3944a1.77836,1.77836,0,0,1-.7447,1.6375l50.27559-29.0266a1.77838,1.77838,0,0,0,.7447-1.63751V442.47449A5.1879,5.1879,0,0,0,232.60789,439.977Z"></path><path fill="url(#I)" d="M251.96669,451.15379a5.188,5.188,0,0,0-1.79048-1.8936l-9.86792-5.6972a1.77848,1.77848,0,0,0-1.7904-.1739l-50.27568,29.0267a1.77837,1.77837,0,0,1,1.79049.1738l9.86789,5.6972a5.62449,5.62449,0,0,1,2.5352,4.39109v11.39441a1.77836,1.77836,0,0,1-.7447,1.6375l50.2756-29.0266a1.77833,1.77833,0,0,0,.7447-1.6375v-11.3944A5.188,5.188,0,0,0,251.96669,451.15379Z"></path><path fill="#f6d0de" d="M163.71821 460.32429a5.62449 5.62449 0 00-2.53521-4.3911l-9.8679-5.6972a1.54723 1.54723 0 00-2.5352 1.4637v11.3944a5.6241 5.6241 0 002.5352 4.391l9.8679 5.6973a1.54722 1.54722 0 002.53521-1.4637zM183.077 471.50109a5.62449 5.62449 0 00-2.5352-4.3911l-9.8679-5.6972a1.54721 1.54721 0 00-2.5352 1.4637v11.39439a5.62448 5.62448 0 002.5352 4.39111l9.8679 5.6972a1.54721 1.54721 0 002.5352-1.4637zM202.43579 482.67788a5.62449 5.62449 0 00-2.5352-4.39109l-9.86789-5.6972a1.54721 1.54721 0 00-2.5352 1.4637v11.3944a5.62456 5.62456 0 002.5352 4.3911l9.86789 5.6972a1.54721 1.54721 0 002.5352-1.4637zM163.71821 482.67779a5.62453 5.62453 0 00-2.53521-4.3911l-9.8679-5.6972a1.54723 1.54723 0 00-2.5352 1.4637v11.3943a5.62407 5.62407 0 002.5352 4.3911l9.8679 5.6972a1.54716 1.54716 0 002.53521-1.4636zM183.077 493.85459a5.62449 5.62449 0 00-2.5352-4.3911l-9.8679-5.6972a1.54721 1.54721 0 00-2.5352 1.4637v11.3943a5.62407 5.62407 0 002.5352 4.3911l9.8679 5.6972a1.54716 1.54716 0 002.5352-1.4636zM202.43579 505.03139a5.62449 5.62449 0 00-2.5352-4.3911l-9.86789-5.6972a1.54721 1.54721 0 00-2.5352 1.4637v11.3943a5.62414 5.62414 0 002.5352 4.3911l9.86789 5.6973a1.54721 1.54721 0 002.5352-1.4637z" class="colord0d4f6 svgShape"></path><path fill="url(#J)" d="M213.24909,406.44679a5.18746,5.18746,0,0,0-1.7905-1.8937l-9.8679-5.69721a1.77852,1.77852,0,0,0-1.7904-.17389l-50.27569,29.0267a1.77838,1.77838,0,0,1,1.7905.1738l9.8679,5.6973a5.62412,5.62412,0,0,1,2.53521,4.39109v11.39431a1.77837,1.77837,0,0,1-.74471,1.6375l50.27559-29.0266a1.77836,1.77836,0,0,0,.7447-1.6375v-11.3944A5.18757,5.18757,0,0,0,213.24909,406.44679Z"></path><path fill="#f6d0de" d="M183.077,449.14759a5.6241,5.6241,0,0,0-2.5352-4.391l-9.8679-5.6973a1.54721,1.54721,0,0,0-2.5352,1.4637v11.3944a5.62449,5.62449,0,0,0,2.5352,4.3911l9.8679,5.6972a1.54721,1.54721,0,0,0,2.5352-1.4637Z" class="colord0d4f6 svgShape"></path><path fill="url(#K)" d="M232.60789,417.62359a5.18765,5.18765,0,0,0-1.7905-1.89371l-9.8679-5.69719a1.7785,1.7785,0,0,0-1.7904-.1739l-50.27569,29.0267a1.77839,1.77839,0,0,1,1.7905.1738l9.8679,5.6973a5.62407,5.62407,0,0,1,2.5352,4.3911V460.542a1.77836,1.77836,0,0,1-.7447,1.6375l50.27559-29.02661a1.77833,1.77833,0,0,0,.7447-1.63749V420.121A5.18757,5.18757,0,0,0,232.60789,417.62359Z"></path><path fill="#f6d0de" d="M202.43579,460.32439a5.6241,5.6241,0,0,0-2.5352-4.391l-9.86789-5.6973a1.54721,1.54721,0,0,0-2.5352,1.4637v11.3944a5.62456,5.62456,0,0,0,2.5352,4.3911l9.86789,5.6972a1.54721,1.54721,0,0,0,2.5352-1.4637Z" class="colord0d4f6 svgShape"></path><path fill="url(#L)" d="M251.96669,428.80039a5.1875,5.1875,0,0,0-1.79048-1.8937l-9.86792-5.6972a1.7785,1.7785,0,0,0-1.7904-.1739l-50.27568,29.0267a1.77837,1.77837,0,0,1,1.79049.1738l9.86789,5.6973a5.62407,5.62407,0,0,1,2.5352,4.3911v11.39439a1.7783,1.7783,0,0,1-.7447,1.63741l50.2756-29.0266a1.77832,1.77832,0,0,0,.7447-1.6375v-11.3944A5.18735,5.18735,0,0,0,251.96669,428.80039Z"></path><path fill="#f6d0de" d="M163.71821 482.67779a5.62424 5.62424 0 00-2.53521-4.3911l-9.8679-5.6972c-1.3943-.8051-2.5352-.1464-2.5352 1.4637v11.3943a5.6245 5.6245 0 002.5352 4.3911l9.8679 5.6972c1.3944.80509 2.53521.1464 2.53521-1.4636zM163.71821 460.32429a5.62455 5.62455 0 00-2.53521-4.3911l-9.8679-5.6972c-1.3943-.805-2.5352-.1464-2.5352 1.4637v11.3944a5.62447 5.62447 0 002.5352 4.391l9.8679 5.6973c1.3944.805 2.53521.1464 2.53521-1.4637zM183.077 471.50109a5.62451 5.62451 0 00-2.5352-4.3911l-9.8679-5.6972c-1.3943-.805-2.5352-.1464-2.5352 1.4637v11.39439a5.62484 5.62484 0 002.5352 4.39111l9.8679 5.6972c1.39441.805 2.5352.1464 2.5352-1.4637zM163.71821 437.97079a5.62414 5.62414 0 00-2.53521-4.391l-9.8679-5.6973a1.54723 1.54723 0 00-2.5352 1.4637v11.3944a5.62449 5.62449 0 002.5352 4.3911l9.8679 5.69719a1.54721 1.54721 0 002.53521-1.46369zM183.077 493.85459a5.6242 5.6242 0 00-2.5352-4.3911l-9.8679-5.6972c-1.3943-.8051-2.5352-.14641-2.5352 1.4637v11.3943a5.6245 5.6245 0 002.5352 4.3911l9.8679 5.6972c1.39441.8051 2.5352.1464 2.5352-1.4636zM183.077 449.14759a5.62417 5.62417 0 00-2.5352-4.391l-9.8679-5.6973c-1.3943-.805-2.5352-.1463-2.5352 1.4637v11.3944a5.62465 5.62465 0 002.5352 4.3911l9.8679 5.6972c1.39441.805 2.5352.1464 2.5352-1.4637zM202.43579 505.03139a5.62423 5.62423 0 00-2.5352-4.3911l-9.86789-5.6972c-1.3943-.8051-2.5352-.1464-2.5352 1.4637v11.3943a5.6245 5.6245 0 002.5352 4.3911l9.86789 5.6973c1.3944.805 2.5352.1463 2.5352-1.4637zM202.43579 482.67788a5.6245 5.6245 0 00-2.5352-4.39109l-9.86789-5.6972c-1.3943-.805-2.5352-.1464-2.5352 1.4637v11.3944a5.62481 5.62481 0 002.5352 4.3911l9.86789 5.6972c1.3944.805 2.5352.1464 2.5352-1.4637zM202.43579 460.32439a5.6242 5.6242 0 00-2.5352-4.391l-9.86789-5.6973c-1.3943-.805-2.5352-.1463-2.5352 1.4637v11.3944a5.62465 5.62465 0 002.5352 4.3911l9.86789 5.6972c1.3944.805 2.5352.14639 2.5352-1.4637z" class="colord0d4f6 svgShape"></path><polygon fill="url(#M)" style="mix-blend-mode:multiply" points="196.068 308.371 164.669 308.371 184.6 319.881 164.669 331.386 196.068 331.386 215.996 319.881 196.068 308.371"></polygon><polygon fill="#e2bbc9" points="164.669 331.386 184.6 319.881 184.6 296.516 164.669 308.018 164.669 331.386" class="colorbbbfe2 svgShape"></polygon><polygon fill="#f4cedc" points="164.669 331.386 144.739 319.881 144.739 296.516 164.669 308.018 164.669 331.386" class="colorced2f4 svgShape"></polygon><polygon fill="url(#i)" points="164.669 308.018 144.739 296.516 164.669 285.012 184.6 296.516 164.669 308.018"></polygon><polygon fill="#9155c6" points="282.062 50.413 301.993 38.907 301.993 15.542 282.062 27.044 282.062 50.413" class="color5555c6 svgShape"></polygon><polygon fill="#f47fd4" points="282.062 50.413 262.132 38.907 262.132 15.542 282.062 27.044 282.062 50.413" class="color7f7ff4 svgShape"></polygon><polygon fill="#f378a4" points="282.062 27.044 262.132 15.542 282.062 4.039 301.993 15.542 282.062 27.044" class="colorf3b378 svgShape"></polygon><polygon fill="url(#N)" style="mix-blend-mode:multiply" points="282.062 50.413 303.707 50.413 292.885 44.165 282.062 50.413"></polygon><polygon fill="#e2bbc9" points="458.244 135.356 478.174 123.85 478.174 100.485 458.244 111.987 458.244 135.356" class="colorbbbfe2 svgShape"></polygon><polygon fill="#f4cedc" points="458.244 135.356 438.313 123.85 438.313 100.485 458.244 111.987 458.244 135.356" class="colorced2f4 svgShape"></polygon><polygon fill="#faf5f7" points="458.244 111.987 438.313 100.485 458.244 88.981 478.174 100.485 458.244 111.987" class="colorf5f5fa svgShape"></polygon></g><g fill="#000000" class="color000 svgShape"><path fill="#4e1184" d="M518.07909,373.34639c0,4.0016-2.8363,5.63749-6.3014,3.6376l-211.6338-122.1867a13.97177,13.97177,0,0,1-6.3-10.912V84.2577c0-4.0013,2.8332-5.63782,6.3-3.6374L511.77769,202.807a13.97946,13.97946,0,0,1,6.3014,10.9123Z" class="color4141aa svgShape"></path><path fill="url(#O)" d="M516.53409,200.06169,304.89879,77.8745c-1.7557-1.01262-3.34558-1.0901-4.4915-.4034v-.0036l-4.5267,2.6252.0129.002a4.53179,4.53179,0,0,1,4.2504.5256L511.77769,202.807a13.97946,13.97946,0,0,1,6.3014,10.9123v159.6271c0,1.9856-.7007,3.3887-1.8275,4.0542v.0016l4.5234-2.6257-.01278-.0015c1.26738-.60011,2.07178-2.0495,2.07178-4.1739V210.974A13.98058,13.98058,0,0,0,516.53409,200.06169Z"></path><polygon fill="#ffffff" points="511.778 367.204 300.144 245.018 300.144 87.895 511.778 210.082 511.778 367.204" class="colorfff svgShape"></polygon><path fill="#f7f2f4" d="M368.26669,462.60509a13.97044,13.97044,0,0,1-12.5999,0L144.0314,340.41829c-3.4635-1.9999-3.4635-5.2736,0-7.2751l144.25329-83.2839a13.97958,13.97958,0,0,1,12.5998,0l211.6354,122.1879c3.4652,1.9999,3.4652,5.272,0,7.2735Z" class="colorf2f2f7 svgShape"></path><polygon fill="#f4dce5" points="301.106 267.188 290.757 261.212 295.932 258.224 306.281 264.199 301.106 267.188" class="colordce1f4 svgShape"></polygon><polygon fill="#f4dce5" points="318.538 277.253 308.187 271.276 313.361 268.288 323.712 274.263 318.538 277.253" class="colordce1f4 svgShape"></polygon><polygon fill="#f4dce5" points="335.969 287.315 325.62 281.339 330.794 278.351 341.145 284.329 335.969 287.315" class="colordce1f4 svgShape"></polygon><polygon fill="#f4dce5" points="353.399 297.38 343.051 291.406 348.227 288.416 358.575 294.392 353.399 297.38" class="colordce1f4 svgShape"></polygon><polygon fill="#f4dce5" points="370.832 307.444 360.482 301.468 365.658 298.482 376.008 304.457 370.832 307.444" class="colordce1f4 svgShape"></polygon><polygon fill="#f4dce5" points="388.264 317.509 377.915 311.533 383.088 308.545 393.441 314.519 388.264 317.509" class="colordce1f4 svgShape"></polygon><polygon fill="#f4dce5" points="405.696 327.574 395.348 321.598 400.523 318.609 410.87 324.585 405.696 327.574" class="colordce1f4 svgShape"></polygon><polygon fill="#f4dce5" points="423.129 337.636 412.778 331.662 417.954 328.672 428.303 334.65 423.129 337.636" class="colordce1f4 svgShape"></polygon><polygon fill="#f4dce5" points="440.56 347.701 430.211 341.727 435.385 338.738 445.736 344.713 440.56 347.701" class="colordce1f4 svgShape"></polygon><polygon fill="#f4dce5" points="457.991 357.765 447.642 351.789 452.818 348.803 463.168 354.777 457.991 357.765" class="colordce1f4 svgShape"></polygon><polygon fill="#f4dce5" points="475.424 367.83 465.075 361.854 470.25 358.866 480.6 364.842 475.424 367.83" class="colordce1f4 svgShape"></polygon><polygon fill="#f4dce5" points="492.857 377.895 482.505 371.918 487.681 368.93 498.032 374.907 492.857 377.895" class="colordce1f4 svgShape"></polygon><polygon fill="#f4dce5" points="291.932 282.019 273.324 271.276 283.673 265.3 302.281 276.044 291.932 282.019" class="colordce1f4 svgShape"></polygon><polygon fill="#f4dce5" points="282.306 295.754 256.616 280.921 266.968 274.946 292.656 289.78 282.306 295.754" class="colordce1f4 svgShape"></polygon><polygon fill="#f4dce5" points="271.955 309.907 239.185 290.986 249.534 285.012 282.302 303.932 271.955 309.907" class="colordce1f4 svgShape"></polygon><polygon fill="#f4dce5" points="236.698 313.908 218.09 303.166 232.103 295.076 250.71 305.817 236.698 313.908" class="colordce1f4 svgShape"></polygon><polygon fill="#f4dce5" points="262.388 328.741 243.78 317.998 257.791 309.907 276.4 320.65 262.388 328.741" class="colordce1f4 svgShape"></polygon><polygon fill="#f4dce5" points="288.077 343.572 269.47 332.83 283.482 324.74 302.09 335.483 288.077 343.572" class="colordce1f4 svgShape"></polygon><polygon fill="#f4dce5" points="376.653 394.714 358.047 383.967 372.057 375.879 390.668 386.623 376.653 394.714" class="colordce1f4 svgShape"></polygon><polygon fill="#f4dce5" points="420.19 419.85 383.693 398.776 397.706 390.687 434.203 411.759 420.19 419.85" class="colordce1f4 svgShape"></polygon><polygon fill="#f4dce5" points="351.006 379.905 295.161 347.661 309.172 339.572 365.02 371.816 351.006 379.905" class="colordce1f4 svgShape"></polygon><polygon fill="#f4dce5" points="314.243 294.9 299.014 286.108 309.361 280.133 324.592 288.924 314.243 294.9" class="colordce1f4 svgShape"></polygon><polygon fill="#f4dce5" points="304.616 308.635 289.386 299.843 299.737 293.866 314.965 302.657 304.616 308.635" class="colordce1f4 svgShape"></polygon><polygon fill="#f4dce5" points="294.743 322.513 279.514 313.721 289.865 307.746 305.093 316.539 294.743 322.513" class="colordce1f4 svgShape"></polygon><polygon fill="#f4dce5" points="317.053 335.392 301.825 326.601 312.174 320.625 327.403 329.418 317.053 335.392" class="colordce1f4 svgShape"></polygon><polygon fill="#f4dce5" points="339.361 348.273 324.134 339.481 334.483 333.507 349.712 342.298 339.361 348.273" class="colordce1f4 svgShape"></polygon><polygon fill="#f4dce5" points="361.673 361.155 346.444 352.364 356.794 346.386 372.021 355.179 361.673 361.155" class="colordce1f4 svgShape"></polygon><polygon fill="#f4dce5" points="383.982 374.036 368.755 365.243 379.104 359.267 394.331 368.06 383.982 374.036" class="colordce1f4 svgShape"></polygon><polygon fill="#f4dce5" points="406.291 386.915 391.064 378.124 401.413 372.146 416.642 380.939 406.291 386.915" class="colordce1f4 svgShape"></polygon><polygon fill="#f4dce5" points="441.762 407.395 413.373 391.003 423.722 385.028 452.111 401.419 441.762 407.395" class="colordce1f4 svgShape"></polygon><polygon fill="#f4dce5" points="326.927 321.514 311.698 312.724 322.049 306.748 337.276 315.539 326.927 321.514" class="colordce1f4 svgShape"></polygon><polygon fill="#f4dce5" points="349.236 334.396 334.007 325.603 344.358 319.627 359.587 328.42 349.236 334.396" class="colordce1f4 svgShape"></polygon><polygon fill="#f4dce5" points="371.543 347.277 356.316 338.485 366.667 332.508 381.896 341.301 371.543 347.277" class="colordce1f4 svgShape"></polygon><polygon fill="#f4dce5" points="393.856 360.158 378.627 351.366 388.978 345.389 404.205 354.18 393.856 360.158" class="colordce1f4 svgShape"></polygon><polygon fill="#f4dce5" points="416.166 373.038 400.936 364.245 411.289 358.269 426.517 367.062 416.166 373.038" class="colordce1f4 svgShape"></polygon><polygon fill="#f4dce5" points="458.716 397.606 423.247 377.126 433.598 371.15 469.068 391.628 458.716 397.606" class="colordce1f4 svgShape"></polygon><polygon fill="#f4dce5" points="336.551 307.781 321.323 298.989 331.674 293.013 346.901 301.806 336.551 307.781" class="colordce1f4 svgShape"></polygon><polygon fill="#f4dce5" points="358.862 320.66 343.634 311.868 353.983 305.894 369.212 314.684 358.862 320.66" class="colordce1f4 svgShape"></polygon><polygon fill="#f4dce5" points="381.17 333.541 365.944 324.749 376.292 318.776 391.521 327.566 381.17 333.541" class="colordce1f4 svgShape"></polygon><polygon fill="#f4dce5" points="403.48 346.423 388.252 337.63 398.601 331.654 413.83 340.447 403.48 346.423" class="colordce1f4 svgShape"></polygon><polygon fill="#f4dce5" points="425.791 359.302 410.562 350.511 420.912 344.536 436.142 353.326 425.791 359.302" class="colordce1f4 svgShape"></polygon><polygon fill="#f4dce5" points="448.1 372.183 432.873 363.391 443.222 357.417 458.451 366.208 448.1 372.183" class="colordce1f4 svgShape"></polygon><polygon fill="#f4dce5" points="475.424 387.957 455.184 376.272 465.533 370.296 485.774 381.983 475.424 387.957" class="colordce1f4 svgShape"></polygon><polygon fill="#e26ac2" points="485.298 362.13 318.06 265.574 323.085 262.675 490.321 359.23 485.298 362.13" class="color6a6ae2 svgShape"></polygon><polygon fill="#f4dce5" points="351.003 392.382 265.664 343.109 212.635 373.726 297.973 422.997 351.003 392.382" class="colordce1f4 svgShape"></polygon><path fill="url(#P)" d="M512.51989,379.32069l-144.2532,83.2844a14.14191,14.14191,0,0,1-10.2153.97679c-.0239-.00629-2.067-.79319-2.3846-.97679L144.0314,340.41829a7.3509,7.3509,0,0,1-.6687-.4373l-.0319-.024h0c-.0558-.0415-.1037-.0845-.1564-.12611-.123-.09569-.241-.19309-.3495-.29369-.056-.0494-.1086-.1021-.1613-.1532a4.84287,4.84287,0,0,1-.3623-.3959c-.0144-.0159-.0304-.0334-.04309-.0493-.008-.0113-.01761-.0225-.02561-.0321a4.47057,4.47057,0,0,1-.3271-.48681,3.2673,3.2673,0,0,1-.4614-1.51309h-.0111v3.0502h.0239c-.0191,1.3312.8269,2.66389,2.5745,3.6744L355.66679,465.818c5.0502,2.5044,12.2647,2.016,14.4131,1.5468,2.1467-.47091,4.0764-1.0088,6.3285-1.5005l136.1115-78.5821c1.7524-1.0136,2.616-2.3495,2.5937-3.6838v-7.8753C515.09909,377.02709,514.23409,378.32959,512.51989,379.32069Z"></path><polygon fill="url(#Q)" style="mix-blend-mode:multiply" points="182.213 331.894 145.96 332.03 203.336 298.903 239.59 298.768 182.213 331.894"></polygon></g><g data-name="Shapes on screen" fill="#000000" class="color000 svgShape"><polygon fill="#f6d0de" points="374.173 145.045 360.117 136.93 360.117 133.585 374.173 141.7 374.173 145.045" class="colord0d4f6 svgShape"></polygon><polygon fill="#f6d0de" points="483.661 208.258 381.672 149.374 381.672 146.03 483.661 204.913 483.661 208.258" class="colord0d4f6 svgShape"></polygon><polygon fill="#e4bdcb" points="384.171 159.927 360.117 146.038 360.117 142.694 384.171 156.582 384.171 159.927" class="colorbdc1e4 svgShape"></polygon><polygon fill="#e4bdcb" points="483.661 217.367 391.67 164.256 391.67 160.911 483.661 214.022 483.661 217.367" class="colorbdc1e4 svgShape"></polygon><polygon fill="#ed5a8f" points="369.437 160.528 360.117 155.147 360.117 151.802 369.437 157.183 369.437 160.528" class="colored995a svgShape"></polygon><polygon fill="#f47fd4" points="483.661 226.475 376.935 164.857 376.935 161.513 483.661 223.13 483.661 226.475" class="color7f7ff4 svgShape"></polygon><polygon fill="#e4bdcb" points="390.867 182.01 360.117 164.256 360.117 160.911 390.867 178.665 390.867 182.01" class="colorbdc1e4 svgShape"></polygon><polygon fill="#f378a4" points="483.661 235.584 398.366 186.339 398.366 182.994 483.661 232.239 483.661 235.584" class="colorf3b378 svgShape"></polygon><polygon fill="#f6d0de" points="374.173 181.48 360.117 173.364 360.117 170.02 374.173 178.135 374.173 181.48" class="colord0d4f6 svgShape"></polygon><polygon fill="#f6d0de" points="483.661 244.693 381.672 185.809 381.672 182.464 483.661 241.348 483.661 244.693" class="colord0d4f6 svgShape"></polygon><polygon fill="#f47fd4" points="370.19 188.289 360.117 182.473 360.117 179.128 370.19 184.944 370.19 188.289" class="color7f7ff4 svgShape"></polygon><polygon fill="#f47fd4" points="483.661 253.801 377.689 192.619 377.689 189.274 483.661 250.456 483.661 253.801" class="color7f7ff4 svgShape"></polygon><polygon fill="#e4bdcb" points="374.173 199.697 360.117 191.582 360.117 188.237 374.173 196.352 374.173 199.697" class="colorbdc1e4 svgShape"></polygon><polygon fill="#e4bdcb" points="479.47 260.491 377.481 201.607 377.481 198.262 479.47 257.146 479.47 260.491" class="colorbdc1e4 svgShape"></polygon><polygon fill="#f6d0de" points="374.173 208.806 360.117 200.69 360.117 197.346 374.173 205.461 374.173 208.806" class="colord0d4f6 svgShape"></polygon><polygon fill="#f6d0de" points="483.661 272.019 381.672 213.135 381.672 209.79 483.661 268.674 483.661 272.019" class="colord0d4f6 svgShape"></polygon><polygon fill="#f6d0de" points="378.721 220.54 364.664 212.425 364.664 209.08 378.721 217.195 378.721 220.54" class="colord0d4f6 svgShape"></polygon><polygon fill="#f6d0de" points="483.661 281.127 381.672 222.244 381.672 218.899 483.661 277.782 483.661 281.127" class="colord0d4f6 svgShape"></polygon><polygon fill="#f378a4" points="369.212 224.159 360.117 218.908 360.117 215.563 369.212 220.814 369.212 224.159" class="colorf3b378 svgShape"></polygon><polygon fill="#f47fd4" points="478.829 287.447 371.879 225.699 371.879 222.354 478.829 284.102 478.829 287.447" class="color7f7ff4 svgShape"></polygon><polygon fill="#e4bdcb" points="374.173 236.132 360.117 228.017 360.117 224.672 374.173 232.787 374.173 236.132" class="colorbdc1e4 svgShape"></polygon><polygon fill="#e4bdcb" points="443.073 275.912 381.672 240.461 381.672 237.116 443.073 272.567 443.073 275.912" class="colorbdc1e4 svgShape"></polygon><polygon fill="#f47fd4" points="374.173 245.241 360.117 237.125 360.117 233.78 374.173 241.896 374.173 245.241" class="color7f7ff4 svgShape"></polygon><polygon fill="#f47fd4" points="483.661 308.453 381.672 249.57 381.672 246.225 483.661 305.109 483.661 308.453" class="color7f7ff4 svgShape"></polygon><polygon fill="#ed5a8f" points="370.19 251.964 360.117 246.234 360.117 242.889 370.19 248.619 370.19 251.964" class="colored995a svgShape"></polygon><polygon fill="#ed5a8f" points="467.139 308.01 377.689 256.293 377.689 252.948 467.139 304.665 467.139 308.01" class="colored995a svgShape"></polygon><polygon fill="#f6d0de" points="374.173 263.458 360.117 255.343 360.117 251.998 374.173 260.113 374.173 263.458" class="colord0d4f6 svgShape"></polygon><polygon fill="#f6d0de" points="483.661 326.671 381.672 267.787 381.672 264.442 483.661 323.326 483.661 326.671" class="colord0d4f6 svgShape"></polygon><polygon fill="#e4bdcb" points="374.173 272.567 360.117 264.451 360.117 261.106 374.173 269.222 374.173 272.567" class="colorbdc1e4 svgShape"></polygon><polygon fill="#e4bdcb" points="472.79 329.503 381.672 276.896 381.672 273.551 472.79 326.158 472.79 329.503" class="colorbdc1e4 svgShape"></polygon><polygon fill="#e4bdcb" points="384.171 287.432 360.117 273.56 360.117 270.215 384.171 284.087 384.171 287.432" class="colorbdc1e4 svgShape"></polygon><polygon fill="#e4bdcb" points="448.968 324.859 391.67 291.761 391.67 288.416 448.968 321.514 448.968 324.859" class="colorbdc1e4 svgShape"></polygon><path fill="#f378a4" d="M344.70679,157.8595l-31.8-18.3598c-2.2225-1.2831-4.0242-4.7256-4.0242-7.689V128.222c0-2.9634,1.8017-4.3254,4.0242-3.0423l31.8,18.3598c2.2225,1.2831,4.0242,4.7256,4.0242,7.689v3.5887C348.731,157.7806,346.92929,159.1426,344.70679,157.8595Z" class="colorf3b378 svgShape"></path><path fill="#f47fd4" d="M344.70679,180.0957l-31.8-18.3597c-2.2225-1.2832-4.0242-4.7257-4.0242-7.689v-3.5888c0-2.96332,1.8017-4.3254,4.0242-3.0422l31.8,18.3597c2.2225,1.28318,4.0242,4.7257,4.0242,7.6891v3.5887C348.731,180.01688,346.92929,181.37888,344.70679,180.0957Z" class="color7f7ff4 svgShape"></path><path fill="#f6d0de" d="M328.62339,186.033c-2.389,1.37988-4.6001,2.3353-8.02718.3567l-8.02772-4.63482v18.86731c0,11.71269,10.06472,28.1833,16.0549,34.00969,5.991,1.09091,16.0563-3.75759,16.0563-15.47029v-18.8673s-4.7063-2.71719-8.0288-4.63541C333.31759,193.7344,331.18509,190.4701,328.62339,186.033Z" class="colord0d4f6 svgShape"></path><path fill="#fcf7f9" d="M321.16649 137.1085c0-1.1228.7882-1.5779 1.7606-1.0165a3.89146 3.89146 0 011.7605 3.0494c0 1.1227-.7882 1.5778-1.7605 1.0164A3.89112 3.89112 0 01321.16649 137.1085zM327.04621 140.5031c0-1.1227.78828-1.5778 1.76058-1.0164a3.89124 3.89124 0 011.7606 3.0494c0 1.1227-.78818 1.57778-1.7606 1.0164A3.89157 3.89157 0 01327.04621 140.5031zM332.926 143.8978c0-1.1227.78822-1.5778 1.7606-1.0165a3.89161 3.89161 0 011.7605 3.0494c0 1.1228-.7882 1.5779-1.7605 1.0165A3.89135 3.89135 0 01332.926 143.8978z" class="colorf7f7fc svgShape"></path></g><g data-name="Front blocks" fill="#000000" class="color000 svgShape"><rect style="mix-blend-mode:multiply" width="111.365" height="61.956" x="577.752" y="448.102" fill="url(#R)" transform="rotate(180 633.435 479.08)"></rect><path fill="url(#S)" style="mix-blend-mode:multiply" d="M586.76629,452.42869a34.85142,34.85142,0,0,0-9.8748-3.118,71.57424,71.57424,0,0,0-13.0386-1.2916H487.093c-4.2183,0-7.1823.4936-8.5645,1.2915-1.3821.7981-1.1824,1.9005.92672,3.1181v48.0606c-2.10912,1.2177-2.30882,2.3201-.92672,3.1182,1.3822.7979,4.3462,1.2915,8.5645,1.2915h76.7599a71.57424,71.57424,0,0,0,13.0386-1.2916,34.84784,34.84784,0,0,0,9.8748-3.1181Z"></path><path fill="#f6d0de" d="M439.05379,480.91359l38.3803,22.1589c2.10912,1.2177,4.0186,1.3329,5.4007.535s2.2371-2.5093,2.2371-4.9447v-44.3174a16.88224,16.88224,0,0,0-7.6378-13.229l-38.3803-22.1589c-2.1091-1.2177-4.0185-1.333-5.4007-.535s-2.2371,2.5092-2.2371,4.9447v44.3174a16.88224,16.88224,0,0,0,7.6378,13.229Z" class="colord0d4f6 svgShape"></path><path fill="url(#T)" d="M485.07189,498.66279v-44.3174a16.88153,16.88153,0,0,0-7.6378-13.229l-38.3802-22.1589c-2.1092-1.2177-4.0186-1.333-5.4008-.535l50.2756-29.0267c1.3822-.79791,3.2917-.6826,5.4007.535l38.3803,22.1589a16.88266,16.88266,0,0,1,7.6378,13.229v44.3175c0,2.4354-.8549,4.1466-2.2371,4.9446l-50.2755,29.0267C484.217,502.80949,485.07189,501.09819,485.07189,498.66279Z"></path><g style="mix-blend-mode:multiply" fill="#000000" class="color000 svgShape"><path fill="#f4dce5" d="M490.77721,442.23209a15.61261,15.61261,0,0,0-5.40082-5.70121L446.99621,414.372c-2.10912-1.2177-4.01852-1.333-5.40082-.535l-2.4093,1.391c1.3824-.798,3.2917-.6826,5.4007.535l38.3803,22.15889a16.8827,16.8827,0,0,1,7.6378,13.229v44.31751c0,2.4353-.8549,4.1466-2.2371,4.9446h0l2.40942-1.391c1.38208-.798,2.237-2.5093,2.237-4.9447V449.75988A15.61373,15.61373,0,0,0,490.77721,442.23209Z" class="colordce1f4 svgShape"></path><path fill="#f4dce5" d="M497.23049,438.50629a15.61229,15.61229,0,0,0-5.4008-5.7012l-38.3802-22.1589c-2.1091-1.2177-4.0186-1.333-5.4008-.535l-2.4093,1.391c1.3824-.798,3.2917-.6826,5.4007.535l38.3802,22.1589a16.8825,16.8825,0,0,1,7.63792,13.229v44.3174c0,2.43539-.85492,4.1467-2.23712,4.9447h0l2.4094-1.3911c1.3821-.7979,2.237-2.50921,2.237-4.9446v-44.3174A15.61352,15.61352,0,0,0,497.23049,438.50629Z" class="colordce1f4 svgShape"></path><path fill="#f4dce5" d="M503.68369,434.78049a15.61316,15.61316,0,0,0-5.4007-5.7013l-38.3803-22.1588c-2.109-1.2177-4.01848-1.333-5.4007-.535l-2.4093,1.3909c1.3823-.7979,3.2917-.6826,5.4007.5351l38.3802,22.1589a16.88153,16.88153,0,0,1,7.6378,13.229v44.3174c0,2.4354-.8549,4.1467-2.237,4.9447h0l2.4093-1.3911c1.3822-.7979,2.2371-2.5092,2.2371-4.9446v-44.3175A15.6122,15.6122,0,0,0,503.68369,434.78049Z" class="colordce1f4 svgShape"></path><path fill="#f4dce5" d="M510.137,431.05469a15.61316,15.61316,0,0,0-5.4007-5.7013l-38.3803-22.1588c-2.109-1.21771-4.0185-1.333-5.4007-.5351l-2.4093,1.391c1.3823-.7979,3.2917-.68261,5.4007.5351l38.3802,22.1589a16.88153,16.88153,0,0,1,7.6378,13.229v44.31739c0,2.43541-.8549,4.14671-2.237,4.94471h0l2.4093-1.3911c1.38222-.7979,2.2371-2.5092,2.2371-4.94461V438.58239A15.6117,15.6117,0,0,0,510.137,431.05469Z" class="colordce1f4 svgShape"></path><path fill="#f4dce5" d="M516.59029,427.32888a15.61218,15.61218,0,0,0-5.4007-5.70129l-38.3803-22.1589c-2.109-1.2176-4.0185-1.3329-5.4007-.535l-2.4093,1.391c1.3823-.7979,3.2916-.6826,5.4007.5351l38.38022,22.1589a16.88154,16.88154,0,0,1,7.63778,13.229v44.3174c0,2.4354-.8549,4.1467-2.237,4.9446h0l2.4093-1.391c1.3822-.798,2.2371-2.5092,2.2371-4.9446v-44.3175A15.612,15.612,0,0,0,516.59029,427.32888Z" class="colordce1f4 svgShape"></path><path fill="#f4dce5" d="M523.04359,423.60309a15.61238,15.61238,0,0,0-5.4007-5.7013l-38.3803-22.15891c-2.1091-1.21759-4.0185-1.33289-5.4007-.535l-2.4093,1.391c1.3823-.798,3.29162-.68259,5.4007.53511l38.3802,22.1588a16.88192,16.88192,0,0,1,7.6378,13.22909v44.31741c0,2.4354-.8549,4.1467-2.237,4.94459h0l2.4093-1.391c1.3822-.798,2.2371-2.50929,2.2371-4.94459v-44.3175A15.61192,15.61192,0,0,0,523.04359,423.60309Z" class="colordce1f4 svgShape"></path><path fill="#f4dce5" d="M529.49689,419.87729a15.61331,15.61331,0,0,0-5.40068-5.7013l-38.38032-22.1589c-2.1091-1.2176-4.0185-1.333-5.40068-.535l-2.40932,1.391c1.38232-.798,3.2916-.6826,5.4006.5351l38.3803,22.1588a16.88266,16.88266,0,0,1,7.6378,13.229v44.3175c0,2.43539-.8549,4.1467-2.2371,4.9446h0l2.4094-1.391c1.3822-.798,2.2371-2.5093,2.2371-4.9447V427.405A15.61192,15.61192,0,0,0,529.49689,419.87729Z" class="colordce1f4 svgShape"></path></g><polygon fill="url(#U)" style="mix-blend-mode:multiply" points="533.792 502.739 497.893 502.739 520.68 515.898 497.893 529.052 533.792 529.052 556.576 515.898 533.792 502.739"></polygon><polygon fill="#9155c6" points="497.893 529.052 520.68 515.898 520.68 489.184 497.893 502.335 497.893 529.052" class="color5555c6 svgShape"></polygon><polygon fill="#f47fd4" points="497.893 529.052 475.107 515.898 475.107 489.184 497.893 502.335 497.893 529.052" class="color7f7ff4 svgShape"></polygon><polygon fill="#f378a4" points="497.893 502.335 475.107 489.184 497.893 476.032 520.68 489.184 497.893 502.335" class="colorf3b378 svgShape"></polygon><polygon fill="url(#V)" style="mix-blend-mode:multiply" points="299.585 498.284 263.686 498.284 286.473 511.443 263.686 524.597 299.585 524.597 322.368 511.443 299.585 498.284"></polygon><polygon fill="#e2bbc9" points="263.686 524.597 286.473 511.443 286.473 484.729 263.686 497.88 263.686 524.597" class="colorbbbfe2 svgShape"></polygon><polygon fill="#f4cedc" points="263.686 524.597 240.899 511.443 240.899 484.729 263.686 497.88 263.686 524.597" class="colorced2f4 svgShape"></polygon><polygon fill="#faf5f7" points="263.686 497.88 240.899 484.729 263.686 471.577 286.473 484.729 263.686 497.88" class="colorf5f5fa svgShape"></polygon><path fill="#fcf7f9" d="M570.11421,450.17888,531.734,428.02c-2.1091-1.2177-3.1637-2.8137-3.1637-4.4097s1.0545-3.192,3.1636-4.4097l38.38-22.15871a16.88222,16.88222,0,0,1,15.2756.00011l38.38029,22.1588c2.1091,1.2177,3.1637,2.8137,3.1637,4.4097s-1.0545,3.192-3.1637,4.4097l-38.38,22.15869a16.88246,16.88246,0,0,1-15.27558,0Z" class="colorf7f7fc svgShape"></path><path fill="url(#W)" d="M623.76978,428.02009l-38.38,22.15879a16.88209,16.88209,0,0,1-15.27558-.00009L531.734,428.02c-2.1092-1.2177-3.1637-2.8137-3.1637-4.4097v58.0529c0,1.596,1.0545,3.192,3.1637,4.40969l38.38022,22.15891a16.88255,16.88255,0,0,0,15.27558,0l38.38-22.1587c2.1091-1.2178,3.1637-2.8137,3.1637-4.4098v-58.0529C626.93348,425.20639,625.87888,426.80249,623.76978,428.02009Z"></path><polygon fill="#f4dce5" points="577.752 418.135 587.235 423.61 577.752 429.085 568.269 423.61 577.752 418.135" class="colordce1f4 svgShape"></polygon><polygon fill="#f4dce5" points="593.081 426.986 602.565 432.461 593.081 437.936 583.598 432.461 593.081 426.986" class="colordce1f4 svgShape"></polygon><polygon fill="#f4dce5" points="608.411 418.135 617.894 423.61 608.411 429.086 598.928 423.61 608.411 418.135" class="colordce1f4 svgShape"></polygon><polygon fill="#f4dce5" points="577.752 435.836 587.235 441.311 577.752 446.787 568.269 441.311 577.752 435.836" class="colordce1f4 svgShape"></polygon><polygon fill="#f4dce5" points="562.422 409.285 571.905 414.76 562.422 420.235 552.939 414.76 562.422 409.285" class="colordce1f4 svgShape"></polygon><polygon fill="#f4dce5" points="593.081 409.285 602.565 414.76 593.081 420.235 583.598 414.76 593.081 409.285" class="colordce1f4 svgShape"></polygon><polygon fill="#f4dce5" points="577.752 400.434 587.235 405.909 577.752 411.384 568.269 405.909 577.752 400.434" class="colordce1f4 svgShape"></polygon><polygon fill="#f4dce5" points="547.093 418.135 556.576 423.61 547.093 429.085 537.609 423.61 547.093 418.135" class="colordce1f4 svgShape"></polygon><polygon fill="#f4dce5" points="562.422 426.986 571.905 432.461 562.422 437.936 552.939 432.461 562.422 426.986" class="colordce1f4 svgShape"></polygon><path fill="#f7f2f4" style="mix-blend-mode:multiply" d="M531.734,486.07288l32.4629,18.74251.1447.0836-35.7713-70.55911v47.32331C528.57029,483.25919,529.62479,484.85519,531.734,486.07288Z" class="colorf2f2f7 svgShape"></path><path fill="#fcf7f9" d="M370.35079,124.5488l-38.3803-22.15892c-2.1091-1.21768-3.1637-2.81358-3.1637-4.40958s1.0545-3.192,3.1636-4.4097l38.3801-22.15872a16.88172,16.88172,0,0,1,15.2755,0l38.3803,22.15892c2.1091,1.2176,3.1637,2.8136,3.1637,4.4096s-1.0545,3.192-3.1637,4.4097l-38.38,22.1587a16.88155,16.88155,0,0,1-15.2755,0Z" class="colorf7f7fc svgShape"></path><path fill="#f2d3de" style="mix-blend-mode:multiply" d="M424.00629,93.5707,385.626,71.41188a12.87827,12.87827,0,0,0-3.1222-1.24908,12.88142,12.88142,0,0,0-3.1221,1.24908L341.00159,93.5707c-2.1091,1.2176-3.1636,2.8136-3.1636,4.4096s1.0546,3.1919,3.1637,4.40958L379.382,124.5488a12.87441,12.87441,0,0,0,3.12222,1.24908,12.874,12.874,0,0,0,3.12208-1.24908l38.38-22.1587c2.1092-1.2177,3.1637-2.8136,3.1637-4.4097S426.11539,94.7884,424.00629,93.5707Z" class="colord3d8f2 svgShape"></path><path fill="url(#X)" d="M424.00629,102.3901l-38.3799,22.1587a16.88176,16.88176,0,0,1-15.2756,0L331.97049,102.39c-2.1091-1.2178-3.1637-2.8137-3.1637-4.4097v10.5843c0,1.596,1.0546,3.192,3.1637,4.4097l38.3803,22.1589a16.88259,16.88259,0,0,0,15.2756,0l38.3799-22.1587c2.1092-1.2177,3.1637-2.8137,3.1637-4.4098V97.9804C427.17,99.5764,426.11549,101.1724,424.00629,102.3901Z"></path><path fill="#fcf7f9" d="M370.35079,89.0185l-38.3803-22.1589c-2.1091-1.21772-3.1637-2.81372-3.1637-4.4096s1.0545-3.192,3.1636-4.4097l38.3801-22.1587a16.88155,16.88155,0,0,1,15.2755,0l38.3803,22.1588c2.1091,1.2177,3.1637,2.8137,3.1637,4.4097s-1.0545,3.192-3.1637,4.4097l-38.38,22.1587a16.88155,16.88155,0,0,1-15.2755,0Z" class="colorf7f7fc svgShape"></path><path fill="#f2d3de" style="mix-blend-mode:multiply" d="M424.00629,58.0404,385.626,35.8816a12.87434,12.87434,0,0,0-3.1221-1.2491,12.87575,12.87575,0,0,0-3.1222,1.2491l-38.38,22.1587c-2.1092,1.2177-3.1637,2.8137-3.1637,4.4097s1.0547,3.19188,3.1637,4.4096L379.382,89.0185a12.87525,12.87525,0,0,0,3.12222,1.2491,12.87887,12.87887,0,0,0,3.12208-1.2491l38.38-22.1587c2.1092-1.2177,3.1637-2.8137,3.1637-4.4097S426.11539,59.2581,424.00629,58.0404Z" class="colord3d8f2 svgShape"></path><path fill="url(#Y)" d="M424.00629,66.8598l-38.3799,22.1587a16.88176,16.88176,0,0,1-15.2756,0l-38.3803-22.1588c-2.1091-1.21782-3.1637-2.8137-3.1637-4.4097V96.0132c0,1.596,1.0546,3.192,3.1637,4.40968l38.3803,22.15892a16.88259,16.88259,0,0,0,15.2756,0l38.3799-22.1587c2.1092-1.2177,3.1637-2.8137,3.1637-4.4098V62.4501C427.17,64.0461,426.11549,65.6421,424.00629,66.8598Z"></path><path fill="#fcf7f9" d="M370.35079,77.0802l-38.3803-22.1588c-2.1091-1.2177-3.1637-2.8137-3.1637-4.4097s1.0545-3.192,3.1636-4.4097l38.3801-22.1587a16.88155,16.88155,0,0,1,15.2755,0l38.3803,22.1589c2.1091,1.21768,3.1637,2.8136,3.1637,4.4096s-1.0545,3.192-3.1637,4.4097l-38.38,22.1587a16.88155,16.88155,0,0,1-15.2755,0Z" class="colorf7f7fc svgShape"></path><path fill="url(#Z)" d="M424.00629,54.9215l-38.3799,22.1588a16.88218,16.88218,0,0,1-15.2756-.0001l-38.3803-22.1588c-2.1091-1.2177-3.1637-2.8137-3.1637-4.4097v9.9738c0,1.596,1.0546,3.192,3.1637,4.4097l38.3803,22.1589a16.88259,16.88259,0,0,0,15.2756,0l38.3799-22.1587c2.1092-1.2178,3.1637-2.8137,3.1637-4.4098V50.5118C427.17,52.1078,426.11549,53.70388,424.00629,54.9215Z"></path><polygon fill="#f4dce5" style="mix-blend-mode:multiply" points="331.97 54.922 333.798 55.977 333.798 65.95 331.97 64.895 331.97 54.922" class="colordce1f4 svgShape"></polygon><polygon fill="#f4dce5" style="mix-blend-mode:multiply" points="331.97 66.864 333.798 67.92 333.798 101.478 331.97 100.423 331.97 66.864" class="colordce1f4 svgShape"></polygon><polygon fill="#f4dce5" style="mix-blend-mode:multiply" points="331.97 102.392 333.798 103.448 333.798 114.029 331.97 112.974 331.97 102.392" class="colordce1f4 svgShape"></polygon><polygon fill="#f4dce5" style="mix-blend-mode:multiply" points="368.523 76.025 370.351 77.08 370.351 87.054 368.523 85.999 368.523 76.025" class="colordce1f4 svgShape"></polygon><polygon fill="#f4dce5" style="mix-blend-mode:multiply" points="368.523 87.968 370.351 89.023 370.351 122.582 368.523 121.527 368.523 87.968" class="colordce1f4 svgShape"></polygon><polygon fill="#f4dce5" style="mix-blend-mode:multiply" points="368.523 123.496 370.351 124.551 370.351 135.133 368.523 134.078 368.523 123.496" class="colordce1f4 svgShape"></polygon><polygon fill="#f4dce5" style="mix-blend-mode:multiply" points="424.004 54.922 422.176 55.977 422.176 65.95 424.004 64.895 424.004 54.922" class="colordce1f4 svgShape"></polygon><polygon fill="#f4dce5" style="mix-blend-mode:multiply" points="424.004 66.864 422.176 67.92 422.176 101.478 424.004 100.423 424.004 66.864" class="colordce1f4 svgShape"></polygon><polygon fill="#f4dce5" style="mix-blend-mode:multiply" points="424.004 102.392 422.176 103.448 422.176 114.029 424.004 112.974 424.004 102.392" class="colordce1f4 svgShape"></polygon><polygon fill="#f4dce5" style="mix-blend-mode:multiply" points="387.451 76.025 385.624 77.08 385.624 87.054 387.451 85.999 387.451 76.025" class="colordce1f4 svgShape"></polygon><polygon fill="#f4dce5" style="mix-blend-mode:multiply" points="387.451 87.968 385.624 89.023 385.624 122.582 387.451 121.527 387.451 87.968" class="colordce1f4 svgShape"></polygon><polygon fill="#f4dce5" style="mix-blend-mode:multiply" points="387.451 123.496 385.624 124.551 385.624 135.133 387.451 134.078 387.451 123.496" class="colordce1f4 svgShape"></polygon><polygon fill="url(#aa)" style="mix-blend-mode:multiply" points="485.072 483.433 510.715 483.433 497.893 476.032 485.072 483.433"></polygon><polygon fill="#f7f2f4" style="mix-blend-mode:multiply" points="254.303 519.181 240.899 492.741 240.899 511.443 254.303 519.181" class="colorf2f2f7 svgShape"></polygon></g><g data-name="Thin line blocks" fill="#000000" class="color000 svgShape"><polygon fill="none" stroke="#e26ac2" stroke-linecap="round" stroke-linejoin="round" points="630.058 262.706 585.103 236.752 630.058 210.797 675.012 236.752 630.058 262.706" class="colorStroke6a6ae2 svgStroke"></polygon><path fill="#e26ac2" d="M630.05758,315.11488a.49738.49738,0,0,1-.25-.06739l-44.95409-25.9541a.49951.49951,0,0,1-.25-.4326v-51.9092a.5.5,0,1,1,1,0v51.6202l44.45409,25.666,44.45513-25.666v-51.6202a.5.5,0,1,1,1,0v51.9092a.49947.49947,0,0,1-.25.4326l-44.95513,25.9541A.49684.49684,0,0,1,630.05758,315.11488Z" class="color6a6ae2 svgShape"></path><path fill="#e26ac2" d="M630.05758,315.11488a.49973.49973,0,0,1-.5-.5V262.70579a.5.5,0,0,1,1,0v51.90909A.49966.49966,0,0,1,630.05758,315.11488Z" class="color6a6ae2 svgShape"></path><circle cx="630.058" cy="210.797" r="2.408" fill="#e26ac2" class="color6a6ae2 svgShape"></circle><circle cx="585.103" cy="236.752" r="2.408" fill="#e26ac2" class="color6a6ae2 svgShape"></circle><circle cx="585.103" cy="288.66" r="2.408" fill="#e26ac2" class="color6a6ae2 svgShape"></circle><circle cx="630.058" cy="314.615" r="2.408" fill="#e26ac2" transform="rotate(-67.5 630.058 314.615)" class="color6a6ae2 svgShape"></circle><circle cx="630.058" cy="262.706" r="2.408" fill="#e26ac2" class="color6a6ae2 svgShape"></circle><circle cx="675.013" cy="236.752" r="2.408" fill="#e26ac2" class="color6a6ae2 svgShape"></circle><circle cx="675.013" cy="288.66" r="2.408" fill="#e26ac2" class="color6a6ae2 svgShape"></circle><polygon fill="none" stroke="#9155c6" stroke-linecap="round" stroke-linejoin="round" points="38.894 319.324 7.275 301.069 38.893 282.814 70.512 301.069 38.894 319.324" class="colorStroke5555c6 svgStroke"></polygon><path fill="#9155c6" d="M38.8936,356.33369a.49651.49651,0,0,1-.25-.0674L7.0249,338.01139a.49854.49854,0,0,1-.25-.4326V301.069a.5.5,0,0,1,1,0v36.2207l31.1187,17.9668,31.11861-17.9668V301.069a.5.5,0,0,1,1,0v36.5098a.49856.49856,0,0,1-.25.4326L39.1436,356.26629A.49705.49705,0,0,1,38.8936,356.33369Z" class="color5555c6 svgShape"></path><path fill="#9155c6" d="M38.8936,356.33369a.49974.49974,0,0,1-.5-.5V319.32388a.5.5,0,0,1,1,0v36.50981A.4998.4998,0,0,1,38.8936,356.33369Z" class="color5555c6 svgShape"></path><circle cx="38.894" cy="282.814" r="2.408" fill="#9155c6" class="color5555c6 svgShape"></circle><circle cx="7.275" cy="301.069" r="2.408" fill="#9155c6" class="color5555c6 svgShape"></circle><circle cx="7.275" cy="337.579" r="2.408" fill="#9155c6" class="color5555c6 svgShape"></circle><circle cx="38.894" cy="355.834" r="2.408" fill="#9155c6" class="color5555c6 svgShape"></circle><circle cx="38.894" cy="319.324" r="2.408" fill="#9155c6" class="color5555c6 svgShape"></circle><path fill="#9155c6" d="M68.1043 301.069a2.408 2.408 0 112.40791 2.40789A2.4079 2.4079 0 0168.1043 301.069zM68.1043 337.57869a2.408 2.408 0 112.40791 2.4079A2.408 2.408 0 0168.1043 337.57869z" class="color5555c6 svgShape"></path><polygon fill="none" stroke="#9155c6" stroke-linecap="round" stroke-linejoin="round" points="438.605 33.138 411.992 17.773 438.605 2.408 465.218 17.773 438.605 33.138" class="colorStroke5555c6 svgStroke"></polygon><path fill="#9155c6" d="M438.60549,64.36788a.50243.50243,0,0,1-.25-.06688L411.74221,48.9357a.50084.50084,0,0,1-.25-.4331v-30.73a.5.5,0,0,1,1,0V48.2141l26.11328,15.0766,26.1123-15.0766V17.7726a.5.5,0,0,1,1,0v30.73a.50088.50088,0,0,1-.25.4331L438.85549,64.301A.503.503,0,0,1,438.60549,64.36788Z" class="color5555c6 svgShape"></path><path fill="#9155c6" d="M438.60549 64.36788a.49972.49972 0 01-.5-.5v-30.73a.5.5 0 111 0v30.73A.49979.49979 0 01438.60549 64.36788zM436.197 2.40788a2.4079 2.4079 0 112.4079 2.40792A2.40789 2.40789 0 01436.197 2.40788z" class="color5555c6 svgShape"></path><circle cx="411.992" cy="17.773" r="2.408" fill="#9155c6" transform="rotate(-83.064 411.992 17.773)" class="color5555c6 svgShape"></circle><circle cx="411.992" cy="48.503" r="2.408" fill="#9155c6" class="color5555c6 svgShape"></circle><circle cx="438.605" cy="63.868" r="2.408" fill="#9155c6" class="color5555c6 svgShape"></circle><path fill="#9155c6" d="M436.19721 33.13788a2.40789 2.40789 0 112.40788 2.40792A2.40789 2.40789 0 01436.19721 33.13788zM462.81 17.77288a2.4079 2.4079 0 112.4079 2.40792A2.408 2.408 0 01462.81 17.77288z" class="color5555c6 svgShape"></path><circle cx="465.218" cy="48.503" r="2.408" fill="#9155c6" class="color5555c6 svgShape"></circle></g></g></svg></g></svg>