<svg id="SvgjsSvg3061" width="360" height="360" xmlns="http://www.w3.org/2000/svg" version="1.1" xmlns:xlink="http://www.w3.org/1999/xlink" xmlns:svgjs="http://svgjs.com/svgjs"><defs id="SvgjsDefs3062"></defs><g id="SvgjsG3063" transform="matrix(1,0,0,1,0,0)"><svg xmlns="http://www.w3.org/2000/svg" xmlns:xlink="http://www.w3.org/1999/xlink" viewBox="0 0 800 600" width="360" height="360"><defs><linearGradient id="j" x1="410.7" x2="425.96" y1="310.87" y2="310.87" gradientUnits="userSpaceOnUse"><stop offset="0" stop-color="#e7c6d2" class="stopColorc6cbe7 svgShape"></stop><stop offset="1" stop-color="#ffffff" class="stopColorfff svgShape"></stop></linearGradient><linearGradient id="a" x1="299.85" x2="305.16" y1="190.18" y2="190.18" gradientUnits="userSpaceOnUse"><stop offset="0" stop-color="#e7c6d2" class="stopColorc6cbe7 svgShape"></stop><stop offset=".38" stop-color="#f1dee5" class="stopColordee1f1 svgShape"></stop><stop offset=".98" stop-color="#ffffff" class="stopColorfff svgShape"></stop></linearGradient><linearGradient id="s" x1="322.92" x2="413.86" y1="204.33" y2="204.33" xlink:href="#a"></linearGradient><linearGradient id="g" x1="167.74" x2="322.92" y1="225.31" y2="225.31" gradientUnits="userSpaceOnUse"><stop offset="0" stop-color="#e7c6d2" class="stopColorc6cbe7 svgShape"></stop><stop offset=".08" stop-color="#eacdd7" class="stopColorcdd2ea svgShape"></stop><stop offset=".44" stop-color="#f6e9ee" class="stopColore9ebf6 svgShape"></stop><stop offset=".75" stop-color="#fdf9fa" class="stopColorf9fafd svgShape"></stop><stop offset=".98" stop-color="#ffffff" class="stopColorfff svgShape"></stop></linearGradient><linearGradient id="t" x1="188.35" x2="262.23" y1="259.88" y2="131.91" gradientUnits="userSpaceOnUse"><stop offset=".02" stop-color="#ffffff" class="stopColorfff svgShape"></stop><stop offset=".23" stop-color="#fdf9fa" class="stopColorf9fafd svgShape"></stop><stop offset=".52" stop-color="#f6e9ee" class="stopColore9eaf6 svgShape"></stop><stop offset=".84" stop-color="#ebcdd8" class="stopColorcdd0eb svgShape"></stop><stop offset="1" stop-color="#e4bdcb" class="stopColorbdc1e4 svgShape"></stop></linearGradient><linearGradient id="c" x1="200.64" x2="225.7" y1="208.92" y2="208.92" gradientUnits="userSpaceOnUse"><stop offset=".3" stop-color="#e7c6d2" class="stopColorc6cbe7 svgShape"></stop><stop offset=".72" stop-color="#f7ecf0" class="stopColoreceef7 svgShape"></stop><stop offset=".98" stop-color="#ffffff" class="stopColorfff svgShape"></stop></linearGradient><linearGradient id="b" x1="203.96" x2="202.9" y1="201.1" y2="219.01" gradientUnits="userSpaceOnUse"><stop offset="0" stop-color="#f75c94" class="stopColorf7d25c svgShape"></stop><stop offset="1" stop-color="#d62d6a" class="stopColord6952d svgShape"></stop></linearGradient><linearGradient id="u" x1="189.14" x2="214.99" y1="215.68" y2="215.68" gradientUnits="userSpaceOnUse"><stop offset="0" stop-color="#e7c6d2" class="stopColorc6cbe7 svgShape"></stop><stop offset=".61" stop-color="#f7ecf0" class="stopColoreceef7 svgShape"></stop><stop offset=".98" stop-color="#ffffff" class="stopColorfff svgShape"></stop></linearGradient><linearGradient id="v" x1="192.23" x2="191.17" y1="207.87" y2="225.78" xlink:href="#b"></linearGradient><linearGradient id="w" x1="241.58" x2="266.64" y1="188.94" y2="188.94" xlink:href="#c"></linearGradient><linearGradient id="d" x1="232.25" x2="256.21" y1="181.35" y2="181.35" gradientUnits="userSpaceOnUse"><stop offset="0" stop-color="#f47fd4" class="stopColor7f7ff4 svgShape"></stop><stop offset="1" stop-color="#9155c6" class="stopColor5555c6 svgShape"></stop></linearGradient><linearGradient id="x" x1="234.71" x2="259.77" y1="193.92" y2="193.92" xlink:href="#c"></linearGradient><linearGradient id="y" x1="223.67" x2="247.63" y1="186.3" y2="186.3" xlink:href="#d"></linearGradient><linearGradient id="e" x1="197.79" x2="254.65" y1="145.24" y2="145.24" gradientUnits="userSpaceOnUse"><stop offset="0" stop-color="#e7c6d2" class="stopColorc6cbe7 svgShape"></stop><stop offset=".29" stop-color="#ecd2db" class="stopColord2d6ec svgShape"></stop><stop offset=".83" stop-color="#faf3f6" class="stopColorf3f4fa svgShape"></stop><stop offset="1" stop-color="#ffffff" class="stopColorfff svgShape"></stop></linearGradient><linearGradient id="z" x1="152.45" x2="209.32" y1="171.42" y2="171.42" xlink:href="#e"></linearGradient><linearGradient id="f" x1="171.45" x2="185.41" y1="158.37" y2="182.55" gradientUnits="userSpaceOnUse"><stop offset="0" stop-color="#f47fd4" class="stopColor7f7ff4 svgShape"></stop><stop offset=".28" stop-color="#ef7acf" class="stopColor7a7aef svgShape"></stop><stop offset=".61" stop-color="#e06dc1" class="stopColor6d6de0 svgShape"></stop><stop offset=".98" stop-color="#9256c8" class="stopColor5656c8 svgShape"></stop><stop offset="1" stop-color="#9155c6" class="stopColor5555c6 svgShape"></stop></linearGradient><linearGradient id="A" x1="216.78" x2="230.75" y1="132.2" y2="156.38" xlink:href="#f"></linearGradient><linearGradient id="B" x1="296.66" x2="354.31" y1="139.21" y2="139.21" gradientUnits="userSpaceOnUse"><stop offset="0" stop-color="#e7c6d2" class="stopColorc6cbe7 svgShape"></stop><stop offset=".48" stop-color="#f2dfe6" class="stopColordfe2f2 svgShape"></stop><stop offset="1" stop-color="#ffffff" class="stopColorfff svgShape"></stop></linearGradient><linearGradient id="C" x1="315.49" x2="329.45" y1="149.85" y2="125.66" gradientUnits="userSpaceOnUse"><stop offset="0" stop-color="#f24282" class="stopColorf2bd42 svgShape"></stop><stop offset=".14" stop-color="#f34886" class="stopColorf3c248 svgShape"></stop><stop offset=".6" stop-color="#f65791" class="stopColorf6ce57 svgShape"></stop><stop offset=".98" stop-color="#f75c94" class="stopColorf7d25c svgShape"></stop></linearGradient><linearGradient id="D" x1="456.38" x2="465.25" y1="247.13" y2="247.13" xlink:href="#a"></linearGradient><linearGradient id="E" x1="193.44" x2="259.87" y1="435.31" y2="435.31" xlink:href="#g"></linearGradient><linearGradient id="F" x1="83.8" x2="150.23" y1="372" y2="372" xlink:href="#g"></linearGradient><linearGradient id="G" x1="128.96" x2="224.92" y1="259.06" y2="425.27" gradientUnits="userSpaceOnUse"><stop offset=".49" stop-color="#fcf7f9" class="stopColorf7f7fc svgShape"></stop><stop offset=".52" stop-color="#faf1f4" class="stopColorf1f2fa svgShape"></stop><stop offset=".56" stop-color="#f3e1e7" class="stopColore1e2f3 svgShape"></stop><stop offset=".61" stop-color="#e7c5d1" class="stopColorc5c9e7 svgShape"></stop><stop offset=".63" stop-color="#e4bdcb" class="stopColorbdc1e4 svgShape"></stop></linearGradient><linearGradient id="H" x1="437.57" x2="507.13" y1="218.41" y2="218.41" xlink:href="#a"></linearGradient><linearGradient id="I" x1="467.52" x2="472.82" y1="274.35" y2="274.35" xlink:href="#a"></linearGradient><linearGradient id="J" x1="529.95" x2="535.25" y1="310.4" y2="310.4" xlink:href="#a"></linearGradient><linearGradient id="K" x1="592.38" x2="597.68" y1="346.44" y2="346.44" xlink:href="#a"></linearGradient><linearGradient id="L" x1="628.92" x2="719.35" y1="381.15" y2="381.15" xlink:href="#a"></linearGradient><linearGradient id="M" x1="487.96" x2="525.47" y1="186.97" y2="186.97" xlink:href="#a"></linearGradient><linearGradient id="N" x1="510.95" x2="537.24" y1="202.71" y2="202.71" xlink:href="#a"></linearGradient><linearGradient id="O" x1="530.38" x2="556.67" y1="213.93" y2="213.93" xlink:href="#a"></linearGradient><linearGradient id="P" x1="626.23" x2="652.52" y1="269.27" y2="269.27" xlink:href="#a"></linearGradient><linearGradient id="aJ" x1="862.08" x2="892.59" y1="346.19" y2="346.19" gradientTransform="matrix(-1 0 0 1 1239.85 0)" xlink:href="#q"></linearGradient><linearGradient id="R" x1="517.66" x2="543.95" y1="257.94" y2="257.94" xlink:href="#a"></linearGradient><linearGradient id="S" x1="559.41" x2="609.71" y1="277.12" y2="277.12" xlink:href="#a"></linearGradient><linearGradient id="T" x1="584.34" x2="626.49" y1="293.29" y2="293.29" xlink:href="#a"></linearGradient><linearGradient id="h" x1="424.77" x2="476.54" y1="379.51" y2="379.51" gradientUnits="userSpaceOnUse"><stop offset="0" stop-color="#e7c6d2" class="stopColorc6cbe7 svgShape"></stop><stop offset=".08" stop-color="#eaced8" class="stopColorced2ea svgShape"></stop><stop offset=".4" stop-color="#f6e9ee" class="stopColore9ebf6 svgShape"></stop><stop offset=".68" stop-color="#fdf9fa" class="stopColorf9fafd svgShape"></stop><stop offset=".9" stop-color="#ffffff" class="stopColorfff svgShape"></stop></linearGradient><linearGradient id="U" x1="417.58" x2="469.35" y1="371.87" y2="371.87" xlink:href="#h"></linearGradient><linearGradient id="i" x1="895.89" x2="906.25" y1="460.09" y2="454.54" gradientTransform="matrix(-.99 -.16 -.16 .99 1383.92 65.5)" gradientUnits="userSpaceOnUse"><stop offset="0" stop-color="#1c246b" class="stopColor1e1c6b svgShape"></stop><stop offset=".52" stop-color="#5f2e8a" class="stopColor2f2e8a svgShape"></stop><stop offset="1" stop-color="#7941aa" class="stopColor4141aa svgShape"></stop></linearGradient><linearGradient id="m" x1="413.36" x2="429.9" y1="335.1" y2="335.1" gradientUnits="userSpaceOnUse"><stop offset="0" stop-color="#9155c6" class="stopColor5555c6 svgShape"></stop><stop offset=".03" stop-color="#8d52c2" class="stopColor5352c2 svgShape"></stop><stop offset=".32" stop-color="#6e3b9c" class="stopColor3c3b9c svgShape"></stop><stop offset=".58" stop-color="#582a81" class="stopColor2b2a81 svgShape"></stop><stop offset=".82" stop-color="#202871" class="stopColor222071 svgShape"></stop><stop offset="1" stop-color="#1c246b" class="stopColor1e1c6b svgShape"></stop></linearGradient><linearGradient id="V" x1="887.56" x2="897.92" y1="466.47" y2="460.92" xlink:href="#i"></linearGradient><linearGradient id="W" x1="422.99" x2="441.08" y1="337.6" y2="341.85" gradientUnits="userSpaceOnUse"><stop offset="0" stop-color="#9155c6" class="stopColor5555c6 svgShape"></stop><stop offset=".17" stop-color="#7a43aa" class="stopColor4443aa svgShape"></stop><stop offset=".37" stop-color="#63328e" class="stopColor33328e svgShape"></stop><stop offset=".58" stop-color="#53267b" class="stopColor27267b svgShape"></stop><stop offset=".79" stop-color="#1e266f" class="stopColor201e6f svgShape"></stop><stop offset="1" stop-color="#1c246b" class="stopColor1e1c6b svgShape"></stop></linearGradient><linearGradient id="X" x1="416.22" x2="443.52" y1="283.16" y2="283.16" gradientUnits="userSpaceOnUse"><stop offset="0" stop-color="#e26ac2" class="stopColor6a6ae2 svgShape"></stop><stop offset="1" stop-color="#63318f" class="stopColor34318f svgShape"></stop></linearGradient><linearGradient id="Y" x1="360.56" x2="621.42" y1="394.77" y2="394.77" xlink:href="#a"></linearGradient><linearGradient id="r" x1="299.85" x2="305.16" y1="167.93" y2="167.93" xlink:href="#a"></linearGradient><linearGradient id="Z" x1="382.61" x2="424.44" y1="306.43" y2="306.43" gradientUnits="userSpaceOnUse"><stop offset=".66" stop-color="#e26ac2" class="stopColor6a6ae2 svgShape"></stop><stop offset=".71" stop-color="#864cba" class="stopColor4c4cba svgShape"></stop><stop offset=".74" stop-color="#7941aa" class="stopColor4141aa svgShape"></stop></linearGradient><linearGradient id="aa" x1="408.79" x2="418.96" y1="285.41" y2="285.41" gradientUnits="userSpaceOnUse"><stop offset="0" stop-color="#f47fd4" class="stopColor7f7ff4 svgShape"></stop><stop offset=".22" stop-color="#f17cd1" class="stopColor7c7cf1 svgShape"></stop><stop offset=".42" stop-color="#e674c7" class="stopColor7574e6 svgShape"></stop><stop offset=".6" stop-color="#d466b6" class="stopColor6766d4 svgShape"></stop><stop offset=".78" stop-color="#8a53bb" class="stopColor5553bb svgShape"></stop><stop offset=".95" stop-color="#6d3a9b" class="stopColor3d3a9b svgShape"></stop><stop offset="1" stop-color="#63318f" class="stopColor34318f svgShape"></stop></linearGradient><linearGradient id="ab" x1="349.16" x2="466.88" y1="309.14" y2="309.14" gradientUnits="userSpaceOnUse"><stop offset="0" stop-color="#e7c6d2" class="stopColorc6cbe7 svgShape"></stop><stop offset=".05" stop-color="#e9cbd6" class="stopColorcbd0e9 svgShape"></stop><stop offset=".36" stop-color="#f5e7ec" class="stopColore7eaf5 svgShape"></stop><stop offset=".63" stop-color="#fcf9fa" class="stopColorf9f9fc svgShape"></stop><stop offset=".84" stop-color="#ffffff" class="stopColorfff svgShape"></stop></linearGradient><linearGradient id="ac" x1="353.52" x2="394.91" y1="319.23" y2="319.23" gradientUnits="userSpaceOnUse"><stop offset=".6" stop-color="#e26ac2" class="stopColor6a6ae2 svgShape"></stop><stop offset=".61" stop-color="#9e60d5" class="stopColor6060d5 svgShape"></stop><stop offset=".64" stop-color="#8d52c2" class="stopColor5252c2 svgShape"></stop><stop offset=".66" stop-color="#8148b4" class="stopColor4848b4 svgShape"></stop><stop offset=".69" stop-color="#7b43ac" class="stopColor4343ac svgShape"></stop><stop offset=".76" stop-color="#7941aa" class="stopColor4141aa svgShape"></stop></linearGradient><linearGradient id="ad" x1="370.46" x2="396.6" y1="313.22" y2="313.22" gradientUnits="userSpaceOnUse"><stop offset="0" stop-color="#f4dce5" class="stopColordce1f4 svgShape"></stop><stop offset=".33" stop-color="#f6e2e9" class="stopColore2e7f6 svgShape"></stop><stop offset=".79" stop-color="#fcf5f8" class="stopColorf5f6fc svgShape"></stop><stop offset="1" stop-color="#ffffff" class="stopColorfff svgShape"></stop></linearGradient><linearGradient id="ae" x1="358.72" x2="405.51" y1="231.01" y2="312.04" gradientUnits="userSpaceOnUse"><stop offset=".59" stop-color="#f47fd4" class="stopColor7f7ff4 svgShape"></stop><stop offset=".61" stop-color="#d768b9" class="stopColor6968d7 svgShape"></stop><stop offset=".63" stop-color="#8750b8" class="stopColor5250b8 svgShape"></stop><stop offset=".66" stop-color="#733fa1" class="stopColor413fa1 svgShape"></stop><stop offset=".68" stop-color="#673594" class="stopColor373594 svgShape"></stop><stop offset=".69" stop-color="#63318f" class="stopColor34318f svgShape"></stop></linearGradient><linearGradient id="af" x1="442.49" x2="426.65" y1="288.7" y2="282.19" gradientUnits="userSpaceOnUse"><stop offset="0" stop-color="#7941aa" class="stopColor4141aa svgShape"></stop><stop offset="1" stop-color="#f47fd4" class="stopColor7f7ff4 svgShape"></stop></linearGradient><linearGradient id="ag" x1="423.8" x2="458.85" y1="361.85" y2="361.85" gradientUnits="userSpaceOnUse"><stop offset="0" stop-color="#e7c6d2" class="stopColorc6cbe7 svgShape"></stop><stop offset=".13" stop-color="#eed6df" class="stopColord6daee svgShape"></stop><stop offset=".34" stop-color="#f7edf1" class="stopColoredeef7 svgShape"></stop><stop offset=".55" stop-color="#fdfafb" class="stopColorfafbfd svgShape"></stop><stop offset=".73" stop-color="#ffffff" class="stopColorfff svgShape"></stop></linearGradient><linearGradient id="ah" x1="455.85" x2="503.03" y1="377.65" y2="377.65" xlink:href="#a"></linearGradient><linearGradient id="ai" x1="522.61" x2="579.38" y1="485.55" y2="485.55" xlink:href="#a"></linearGradient><linearGradient id="aj" x1="521.46" x2="537.32" y1="441.85" y2="441.85" xlink:href="#j"></linearGradient><linearGradient id="k" x1="519.3" x2="523.24" y1="333.21" y2="282.43" gradientUnits="userSpaceOnUse"><stop offset="0" stop-color="#d12f6a" class="stopColord18f2f svgShape"></stop><stop offset="1" stop-color="#f75c94" class="stopColorf7d25c svgShape"></stop></linearGradient><linearGradient id="ak" x1="521.82" x2="540.64" y1="335.25" y2="296.4" xlink:href="#k"></linearGradient><linearGradient id="l" x1="525.1" x2="487.67" y1="336.62" y2="314.62" gradientUnits="userSpaceOnUse"><stop offset="0" stop-color="#d62d6a" class="stopColord6952d svgShape"></stop><stop offset="1" stop-color="#f75c94" class="stopColorf7d25c svgShape"></stop></linearGradient><linearGradient id="al" x1="523.59" x2="489.99" y1="336.17" y2="361.56" xlink:href="#l"></linearGradient><linearGradient id="am" x1="521.67" x2="569.61" y1="337.23" y2="317.64" xlink:href="#l"></linearGradient><linearGradient id="an" x1="522.51" x2="558.74" y1="340.68" y2="338.05" xlink:href="#l"></linearGradient><linearGradient id="ao" x1="524.07" x2="527.79" y1="335.26" y2="360.66" gradientUnits="userSpaceOnUse"><stop offset="0" stop-color="#f24282" class="stopColorf2bd42 svgShape"></stop><stop offset=".17" stop-color="#f34987" class="stopColorf3c349 svgShape"></stop><stop offset=".61" stop-color="#f65791" class="stopColorf6ce57 svgShape"></stop><stop offset="1" stop-color="#f75c94" class="stopColorf7d25c svgShape"></stop></linearGradient><linearGradient id="ap" x1="503.9" x2="503.9" y1="483.97" y2="438.86" gradientUnits="userSpaceOnUse"><stop offset="0" stop-color="#f7f2f4" class="stopColorf2f2f7 svgShape"></stop><stop offset=".32" stop-color="#fbf9fa" class="stopColorf9f9fb svgShape"></stop><stop offset=".83" stop-color="#ffffff" class="stopColorfff svgShape"></stop></linearGradient><linearGradient id="aq" x1="252.35" x2="304.12" y1="554.22" y2="554.22" xlink:href="#h"></linearGradient><linearGradient id="ar" x1="265.89" x2="317.66" y1="539.95" y2="539.95" xlink:href="#h"></linearGradient><linearGradient id="as" x1="246.66" x2="246.66" y1="516.25" y2="481.68" gradientUnits="userSpaceOnUse"><stop offset="0" stop-color="#e7c6d2" class="stopColorc6cbe7 svgShape"></stop><stop offset=".08" stop-color="#eacdd7" class="stopColorcdd2ea svgShape"></stop><stop offset=".44" stop-color="#f6e9ee" class="stopColore9ebf6 svgShape"></stop><stop offset=".76" stop-color="#fdf9fa" class="stopColorf9fafd svgShape"></stop><stop offset="1" stop-color="#ffffff" class="stopColorfff svgShape"></stop></linearGradient><linearGradient id="at" x1="1032.64" x2="1044.07" y1="595.72" y2="589.6" gradientTransform="matrix(-.83 .56 .56 .83 793.71 -538.9)" xlink:href="#i"></linearGradient><linearGradient id="au" x1="243.74" x2="269.5" y1="493.72" y2="493.72" gradientTransform="rotate(-7.56 354.161 520.57)" xlink:href="#m"></linearGradient><linearGradient id="av" x1="1029.61" x2="1039.97" y1="666.67" y2="661.12" xlink:href="#i"></linearGradient><linearGradient id="aw" x1="250.55" x2="268.64" y1="512.41" y2="516.67" gradientUnits="userSpaceOnUse"><stop offset="0" stop-color="#9155c6" class="stopColor5555c6 svgShape"></stop><stop offset=".64" stop-color="#5f2f89" class="stopColor302f89 svgShape"></stop><stop offset="1" stop-color="#1c246b" class="stopColor1e1c6b svgShape"></stop></linearGradient><linearGradient id="ax" x1="243.75" x2="271.78" y1="465.51" y2="465.51" gradientUnits="userSpaceOnUse"><stop offset="0" stop-color="#f6d0de" class="stopColord0d4f6 svgShape"></stop><stop offset="1" stop-color="#f47fd4" class="stopColor7f7ff4 svgShape"></stop></linearGradient><linearGradient id="ay" x1="275.5" x2="321.6" y1="247.25" y2="247.25" xlink:href="#h"></linearGradient><linearGradient id="az" x1="296.28" x2="342.37" y1="235.02" y2="235.02" xlink:href="#h"></linearGradient><linearGradient id="n" x1="945.91" x2="962.9" y1="233.4" y2="233.4" gradientTransform="translate(-661.52)" gradientUnits="userSpaceOnUse"><stop offset="0" stop-color="#7941aa" class="stopColor4141aa svgShape"></stop><stop offset=".1" stop-color="#733da3" class="stopColor3d3da3 svgShape"></stop><stop offset=".69" stop-color="#52257a" class="stopColor27257a svgShape"></stop><stop offset="1" stop-color="#1c246b" class="stopColor1e1c6b svgShape"></stop></linearGradient><linearGradient id="aA" x1="924.9" x2="941.89" y1="245.63" y2="245.63" xlink:href="#n"></linearGradient><linearGradient id="aB" x1="932.28" x2="961.49" y1="205.03" y2="205.03" gradientTransform="translate(-661.52)" gradientUnits="userSpaceOnUse"><stop offset="0" stop-color="#7941aa" class="stopColor4141aa svgShape"></stop><stop offset=".29" stop-color="#663493" class="stopColor343493 svgShape"></stop><stop offset=".74" stop-color="#222a76" class="stopColor242276 svgShape"></stop><stop offset="1" stop-color="#1c246b" class="stopColor1e1c6b svgShape"></stop></linearGradient><linearGradient id="aC" x1="284.13" x2="272.54" y1="146.26" y2="142.53" gradientTransform="matrix(-1 0 0 1 578.34 0)" gradientUnits="userSpaceOnUse"><stop offset="0" stop-color="#f6d0de" class="stopColord0d4f6 svgShape"></stop><stop offset=".52" stop-color="#e9c3d1" class="stopColorc3c7e9 svgShape"></stop><stop offset="1" stop-color="#e4bdcb" class="stopColorbdc1e4 svgShape"></stop></linearGradient><linearGradient id="aD" x1="931.15" x2="961.66" y1="152.61" y2="152.61" gradientTransform="translate(-661.52)" gradientUnits="userSpaceOnUse"><stop offset="0" stop-color="#ffffff" class="stopColorfff svgShape"></stop><stop offset=".31" stop-color="#fdf5f8" class="stopColorf5f6fd svgShape"></stop><stop offset=".85" stop-color="#f8d9e4" class="stopColord9dcf8 svgShape"></stop><stop offset="1" stop-color="#f6d0de" class="stopColord0d4f6 svgShape"></stop></linearGradient><linearGradient id="aE" x1="321.93" x2="294.84" y1="163.43" y2="153.9" gradientTransform="matrix(-1 0 0 1 578.34 0)" gradientUnits="userSpaceOnUse"><stop offset="0" stop-color="#ffffff" class="stopColorfff svgShape"></stop><stop offset=".27" stop-color="#fefafb" class="stopColorfafafe svgShape"></stop><stop offset=".6" stop-color="#fbebf1" class="stopColorebedfb svgShape"></stop><stop offset=".96" stop-color="#f7d3e0" class="stopColord3d7f7 svgShape"></stop><stop offset="1" stop-color="#f6d0de" class="stopColord0d4f6 svgShape"></stop></linearGradient><linearGradient id="o" x1="372.11" x2="408.08" y1="440.8" y2="440.8" gradientUnits="userSpaceOnUse"><stop offset="0" stop-color="#e7c6d2" class="stopColorc6cbe7 svgShape"></stop><stop offset=".35" stop-color="#efdce3" class="stopColordcdeef svgShape"></stop><stop offset=".72" stop-color="#f5ecef" class="stopColorecedf5 svgShape"></stop><stop offset="1" stop-color="#f7f2f4" class="stopColorf2f2f7 svgShape"></stop></linearGradient><linearGradient id="aF" x1="350.9" x2="386.91" y1="428.58" y2="428.58" xlink:href="#o"></linearGradient><linearGradient id="p" x1="876.84" x2="893.82" y1="426.95" y2="426.95" gradientTransform="matrix(-1 0 0 1 1239.85 0)" gradientUnits="userSpaceOnUse"><stop offset="0" stop-color="#1c246b" class="stopColor1e1c6b svgShape"></stop><stop offset=".1" stop-color="#202872" class="stopColor222072 svgShape"></stop><stop offset=".69" stop-color="#6d389b" class="stopColor38389b svgShape"></stop><stop offset="1" stop-color="#7941aa" class="stopColor4141aa svgShape"></stop></linearGradient><linearGradient id="aG" x1="346.95" x2="366.42" y1="391.08" y2="391.08" gradientUnits="userSpaceOnUse"><stop offset="0" stop-color="#63318f" class="stopColor34318f svgShape"></stop><stop offset=".4" stop-color="#4e1184" class="stopColor2d2b84 svgShape"></stop><stop offset="1" stop-color="#1c246b" class="stopColor1e1c6b svgShape"></stop></linearGradient><linearGradient id="aH" x1="855.84" x2="872.82" y1="439.18" y2="439.18" xlink:href="#p"></linearGradient><linearGradient id="aI" x1="863.21" x2="892.41" y1="398.59" y2="398.59" gradientTransform="matrix(-1 0 0 1 1239.85 0)" gradientUnits="userSpaceOnUse"><stop offset="0" stop-color="#1c246b" class="stopColor1e1c6b svgShape"></stop><stop offset=".29" stop-color="#582982" class="stopColor2b2982 svgShape"></stop><stop offset=".74" stop-color="#703b9f" class="stopColor3b3b9f svgShape"></stop><stop offset="1" stop-color="#7941aa" class="stopColor4141aa svgShape"></stop></linearGradient><linearGradient id="q" x1="353.2" x2="341.62" y1="339.84" y2="336.11" gradientUnits="userSpaceOnUse"><stop offset="0" stop-color="#d62d6a" class="stopColord6952d svgShape"></stop><stop offset=".13" stop-color="#dc3672" class="stopColordca136 svgShape"></stop><stop offset=".47" stop-color="#eb4b85" class="stopColorebbc4b svgShape"></stop><stop offset=".77" stop-color="#f45890" class="stopColorf4cc58 svgShape"></stop><stop offset="1" stop-color="#f75c94" class="stopColorf7d25c svgShape"></stop></linearGradient><linearGradient id="aK" x1="368.91" x2="413.56" y1="332.06" y2="332.06" gradientUnits="userSpaceOnUse"><stop offset="0" stop-color="#f75c94" class="stopColorf7d25c svgShape"></stop><stop offset=".09" stop-color="#f65891" class="stopColorf6cf58 svgShape"></stop><stop offset=".61" stop-color="#f34886" class="stopColorf3c248 svgShape"></stop><stop offset="1" stop-color="#f24282" class="stopColorf2bd42 svgShape"></stop></linearGradient><clipPath id="Q"><polygon fill="none" points="624.86 336.58 437.57 228.45 472.35 208.37 624.86 296.42 624.86 336.58"></polygon></clipPath></defs><g data-name="Buyer" fill="#000000" class="color000 svgShape"><polygon fill="#fcf7f9" points="363.96 138.57 278.77 89.39 126.7 177.19 167.74 200.88 278.77 136.77 322.92 162.26 363.96 138.57" class="colorf7f7fc svgShape"></polygon><path fill="#f47fd4" d="M278.77,136.77v56.48l44.15,25.49V162.26Zm40.09,74.93-36-20.79v-47.1l36,20.79Z" class="color7f7ff4 svgShape"></path><polygon fill="#e26ac2" points="318.86 188.15 282.84 167.36 282.84 143.81 318.86 164.6 318.86 188.15" class="color6a6ae2 svgShape"></polygon><polygon fill="#9155c6" points="318.86 211.7 282.84 190.91 282.84 167.36 318.86 188.15 318.86 211.7" class="color5555c6 svgShape"></polygon><path fill="url(#a)" style="mix-blend-mode:multiply" d="M299.85,190.18a2.66,2.66,0,1,1,2.66,2.66A2.66,2.66,0,0,1,299.85,190.18Z"></path><path fill="#ffffff" d="M298.19,189a2.66,2.66,0,1,1,2.66,2.65A2.66,2.66,0,0,1,298.19,189Z" class="colorfff svgShape"></path><circle style="mix-blend-mode:multiply" cx="302.51" cy="167.93" r="2.65" fill="url(#r)"></circle><path fill="#ffffff" d="M298.44,166.76a2.65,2.65,0,1,1,2.65,2.65A2.65,2.65,0,0,1,298.44,166.76Z" class="colorfff svgShape"></path><polygon fill="#9155c6" points="363.96 195.05 322.92 218.74 322.92 162.26 363.96 138.57 363.96 195.05" class="color5555c6 svgShape"></polygon><polygon fill="url(#s)" points="363.96 189.93 363.96 195.05 322.92 218.74 413.86 218.74 363.96 189.93"></polygon><polygon fill="#f47fd4" points="167.74 257.36 126.7 233.67 126.7 177.19 167.74 200.88 167.74 257.36" class="color7f7ff4 svgShape"></polygon><polygon fill="#9155c6" points="171.8 250.32 171.8 203.22 171.8 203.22 278.78 141.46 278.77 136.77 167.74 200.88 167.74 257.36 278.78 193.25 278.78 188.56 171.8 250.32" class="color5555c6 svgShape"></polygon><polygon fill="url(#g)" style="mix-blend-mode:multiply" points="322.92 218.74 256.03 257.36 167.74 257.36 278.78 193.25 322.92 218.74"></polygon><polygon fill="url(#t)" points="171.8 250.32 171.8 203.22 278.78 141.46 278.78 188.56 171.8 250.32"></polygon><polygon fill="#f47fd4" points="278.78 188.56 237.99 165.01 278.78 141.46 278.78 188.56" class="color7f7ff4 svgShape"></polygon><path fill="url(#c)" style="mix-blend-mode:multiply" d="M211.49,216.53c5.19,0,14.21-2.27,14.21-6.78s-11.13-8.45-20.49-8.45S202.35,216.53,211.49,216.53Z"></path><path fill="url(#b)" d="M191.21,206.58l14.84,8.57c3.64,2.1,8.94,1.67,10.89-.29s.74-6.45-1.8-8.76c-5.74-5.2-6.46-7-8.13-8.54-2.68-2.51-5.19-4.73-7.36-4.88C190.1,192,186.8,204,191.21,206.58Z"></path><path fill="#fcf7f9" d="M192,201.4a2.91,2.91,0,0,1-1.15-1.82,7.14,7.14,0,0,0-.39,1.63,2.72,2.72,0,0,0,1,1.24l1.06.73a8.56,8.56,0,0,1,.26-1.26Z" class="colorf7f7fc svgShape"></path><path fill="#d12f6a" d="M194.59,200.1c4,2.44,13.13-.79,11-4.22-2.14-1.79-4.24-3.08-6-3.2a5.22,5.22,0,0,0-2.84.58C194.05,194.3,191.32,198.08,194.59,200.1Z" class="colord18f2f svgShape"></path><path fill="#f75c94" d="M205.39,200.22l1.72-2.56c-.69-1.28-1.47-3.92-3.35-3.64-1.65.24-6,3.61-4.7,6a3,3,0,0,0,3.62,1.66Z" class="colorf7d25c svgShape"></path><path fill="#ffffff" d="M206.46 197.55c-.22 1.4-1.72 3.23-5.21 3.83h0a.65.65 0 10.22 1.28h0c4.16-.71 6-3 6.28-4.9h0a.64.64 0 00-.54-.74.65.65 0 00-.75.53zM208.55 200c-.23 1.39-1.73 3.23-5.22 3.83h0a.64.64 0 00-.53.75.65.65 0 00.75.53h0c4.16-.71 6-3 6.28-4.9h0a.65.65 0 10-1.28-.21zM210.5 202.38c-.23 1.39-1.73 3.23-5.22 3.82h0a.66.66 0 00-.53.76.65.65 0 00.75.53h0c4.16-.71 6-3 6.28-4.9h0a.65.65 0 10-1.28-.21z" class="colorfff svgShape"></path><path fill="url(#u)" style="mix-blend-mode:multiply" d="M200,223.3c5.19,0,15-2.27,15-6.78s-11.92-8.45-21.29-8.45S190.85,223.3,200,223.3Z"></path><path fill="url(#v)" d="M179.49,213.35l14.83,8.57c3.65,2.1,8.94,1.67,10.89-.29s.74-6.45-1.79-8.75c-5.75-5.21-6.47-7-8.14-8.55-2.68-2.51-5.19-4.73-7.36-4.88C178.37,198.8,175.07,210.8,179.49,213.35Z"></path><path fill="#fcf7f9" d="M180.23,208.17a2.91,2.91,0,0,1-1.15-1.82,7.14,7.14,0,0,0-.39,1.63,2.72,2.72,0,0,0,1,1.24l1.07.73a7.39,7.39,0,0,1,.25-1.26Z" class="colorf7f7fc svgShape"></path><path fill="#d12f6a" d="M182.86,206.87c4,2.44,13.13-.79,11-4.22-2.14-1.79-4.23-3.08-6-3.2a5.22,5.22,0,0,0-2.84.58C182.32,201.07,179.6,204.85,182.86,206.87Z" class="colord18f2f svgShape"></path><path fill="#f75c94" d="M193.66,207l1.72-2.56c-.69-1.28-1.47-3.92-3.35-3.64-1.65.24-6,3.61-4.7,6a3,3,0,0,0,3.62,1.66Z" class="colorf7d25c svgShape"></path><path fill="#ffffff" d="M194.74 204.33c-.23 1.39-1.73 3.22-5.22 3.82h0a.65.65 0 00.22 1.28h0c4.16-.71 6-3 6.28-4.9h0a.65.65 0 00-1.28-.2zM196.82 206.8c-.23 1.4-1.73 3.23-5.22 3.83h0a.65.65 0 00.22 1.28h0c4.16-.71 6-3 6.28-4.9h0a.65.65 0 00-.53-.75.66.66 0 00-.75.54zM198.77 209.15c-.23 1.39-1.73 3.23-5.22 3.83h0a.65.65 0 00.22 1.28h0c4.16-.71 6-3 6.29-4.9h0a.65.65 0 00-1.29-.21z" class="colorfff svgShape"></path><path fill="url(#w)" style="mix-blend-mode:multiply" d="M252.43,193.17c5.19,0,14.21-1.26,14.21-3.77s-11.13-4.69-20.49-4.69S243.29,193.17,252.43,193.17Z"></path><path fill="#e26ac2" d="M232.39,172.78c-.77,3,.66,7.48.5,11.64.57,1.3,1.75.81,1.89.09.08-.39-.51-5-.06-6.66A51.47,51.47,0,0,0,232.39,172.78Z" class="color6a6ae2 svgShape"></path><path fill="url(#d)" d="M241.52,190.51c2.5,1.66,12.38,3.75,14.12,2s-.79-5.64-4.23-7.73a21.36,21.36,0,0,1-8.21-8.33c-2.41-4.43-5.38-7.85-8.65-6.73s-2.37,7.28-1.46,9.25C234.22,181.45,236.34,187.08,241.52,190.51Z"></path><path fill="#7941aa" d="M251.23,184.67h0a21.32,21.32,0,0,1-8-8.21,22.54,22.54,0,0,0-3.39-4.87c-4.1-4.06-6,1.88-2.38,7.28s5.69,7.27,9.19,8.23S252.83,185.79,251.23,184.67Z" class="color4141aa svgShape"></path><path fill="url(#x)" style="mix-blend-mode:multiply" d="M245.55,198.15c5.19,0,14.22-1.26,14.22-3.77s-11.13-4.7-20.5-4.7S236.42,198.15,245.55,198.15Z"></path><path fill="#e26ac2" d="M223.81,177.73c-.77,3,.66,7.48.5,11.65.58,1.29,1.75.8,1.89.08.08-.39-.51-5-.06-6.65A48.58,48.58,0,0,0,223.81,177.73Z" class="color6a6ae2 svgShape"></path><path fill="url(#y)" d="M232.94,195.46c2.51,1.66,12.38,3.76,14.13,2s-.79-5.64-4.23-7.73a21.35,21.35,0,0,1-8.22-8.32c-2.4-4.44-5.37-7.86-8.64-6.73s-2.38,7.27-1.47,9.24C225.65,186.41,227.76,192,232.94,195.46Z"></path><path fill="#7941aa" d="M242.65,189.63h0a21.25,21.25,0,0,1-8-8.2,22.05,22.05,0,0,0-3.39-4.87c-4.1-4.07-6,1.87-2.38,7.27s5.7,7.28,9.19,8.23S244.25,190.74,242.65,189.63Z" class="color4141aa svgShape"></path><path fill="url(#e)" style="mix-blend-mode:multiply" d="M254,142.71c-2.23-1.93-10.71-7.58-16.89-11.15-3.9-2.26-12.67-3-9.93-1.39l9.74,5.63-25.12,14.44c-1.21-.74-2.4-1.46-3.51-2.1-3.9-2.25-12.68-3-9.93-1.38l23.79,13.73c1.39.81,2.92.85,3.49.37h0l28.66-16.48.09,0,0,0h0C254.8,144,254.79,143.45,254,142.71Z"></path><path fill="url(#z)" style="mix-blend-mode:multiply" d="M208.62,168.89c-2.24-1.94-10.71-7.59-16.89-11.16-3.9-2.25-12.68-3-9.93-1.38l9.74,5.62-25.12,14.45c-1.21-.75-2.4-1.46-3.52-2.11-3.9-2.25-12.67-3-9.93-1.38l23.8,13.74c1.39.8,2.91.84,3.49.37h0l28.65-16.47.1-.06,0,0h0C209.47,170.18,209.46,169.62,208.62,168.89Z"></path><path fill="url(#f)" d="M204.79,171.31c.28-.56-1-2.64-3.2-4.31-3.35-2.58-13.14-9-19.33-12.57-1.77-1-3-.82-3.54-.15h0l-26.9,15.53,26,17.13s26.9-15.53,26.94-15.61h0Z"></path><path fill="#9155c6" d="M176.76,186.67,153,172.93c-2.75-1.58-1.5-5.22,2.4-3,6.18,3.58,16,10,19.32,12.57C177.73,184.87,179.09,188,176.76,186.67Z" class="color5555c6 svgShape"></path><path fill="#e7c6d2" style="mix-blend-mode:multiply" d="M177.83,186.21l-11.49-7.35L167,181l9.76,5.64C177.83,187.28,178.11,187,177.83,186.21Z" class="colorc6cbe7 svgShape"></path><path fill="#7941aa" d="M193,169.32l1,.75,4.63-2.68-1-.74Z" class="color4141aa svgShape"></path><path fill="url(#A)" d="M250.13,145.13c.27-.56-1-2.63-3.2-4.3-3.36-2.59-13.15-9-19.33-12.57-1.78-1-3-.82-3.54-.16h0l-26.9,15.53,26,17.12s26.9-15.53,27-15.6h0Z"></path><path fill="#9155c6" d="M222.1,160.49l-23.79-13.73c-2.75-1.59-1.51-5.22,2.39-3,6.19,3.57,16,10,19.33,12.57C223.06,158.69,224.43,161.84,222.1,160.49Z" class="color5555c6 svgShape"></path><path fill="#e7c6d2" style="mix-blend-mode:multiply" d="M223.17,160l-11.49-7.34.66,2.17,9.76,5.63C223.16,161.11,223.45,160.78,223.17,160Z" class="colorc6cbe7 svgShape"></path><path fill="#ffffff" d="M238.37,143.15l1,.74,4.62-2.67-1-.75Z" class="colorfff svgShape"></path><path fill="url(#B)" style="mix-blend-mode:multiply" d="M354.05,139.88h0a1.5,1.5,0,0,0-.31-.19l-26.58-15.34h0c-.54-.67-1.76-.87-3.54.16-6.18,3.57-16,10-19.33,12.57-2.17,1.67-7.89,1.28-7.61,1.84l4.41,2.47h0c.05.07,22.53,13.14,22.53,13.14h0c.42.4,4.47-.38,7.67-1.77,4.48-1.93,15.58-7.58,21.77-11.15C354.39,140.84,354.54,140.26,354.05,139.88Z"></path><path fill="url(#C)" d="M296.11,138.6c-.28-.56,1-2.64,3.2-4.31,3.36-2.58,13.14-9,19.33-12.56,1.78-1,3-.83,3.54-.16h0l26.89,15.53-26,17.13s-26.89-15.53-26.94-15.6h0Z"></path><path fill="#d62d6a" d="M324.14,154l23.79-13.73c2.75-1.59,1.51-5.23-2.39-3-6.19,3.57-16,10-19.33,12.56C323.18,152.16,321.81,155.3,324.14,154Z" class="colord6952d svgShape"></path><path fill="#f4dce5" style="mix-blend-mode:multiply" d="M323.07,153.5l11.49-7.35-.66,2.17L324.14,154C323.08,154.57,322.79,154.25,323.07,153.5Z" class="colordce1f4 svgShape"></path><path fill="#ffffff" d="M325.36,146.71l-1,.75-4.62-2.67c.31-.24.66-.49,1-.75Z" class="colorfff svgShape"></path><polygon fill="#f6d0de" points="389.86 56.38 451.95 92.22 451.95 240.73 389.86 204.88 389.86 56.38" class="colord0d4f6 svgShape"></polygon><polygon fill="#e4bdcb" points="385.43 58.94 385.43 207.44 389.86 204.88 389.86 61.5 385.43 58.94" class="colorbdc1e4 svgShape"></polygon><polygon fill="#fcdbe7" points="456.38 89.66 456.38 248.41 447.52 243.29 447.52 94.78 385.43 58.94 385.43 207.44 376.56 202.33 376.56 43.58 456.38 89.66" class="colordbe0fc svgShape"></polygon><polygon fill="#fcf7f9" points="456.38 89.66 376.55 43.57 380.99 41.01 460.82 87.1 456.38 89.66" class="colorf7f7fc svgShape"></polygon><polygon fill="#e4bdcb" points="456.38 89.66 456.38 248.41 460.82 245.85 460.82 87.1 456.38 89.66" class="colorbdc1e4 svgShape"></polygon><polygon fill="url(#D)" style="mix-blend-mode:multiply" points="465.25 248.41 456.38 248.41 460.82 245.85 465.25 248.41"></polygon><polygon fill="#f4dce5" points="398.5 143.57 392.61 140.17 392.61 146.98 398.5 150.38 398.5 143.57" class="colordce1f4 svgShape"></polygon><polygon fill="#f4dce5" points="397.83 153.06 397.83 151.09 389.84 146.47 389.84 148.45 397.83 153.06" class="colordce1f4 svgShape"></polygon><polygon fill="#e7c6d2" points="397.83 153.06 397.83 151.09 399.55 150.1 399.55 152.08 397.83 153.06" class="colorc6cbe7 svgShape"></polygon><polygon fill="#e7c6d2" points="394.98 147.46 393.27 146.47 396.41 144.66 396.41 146.64 394.98 147.46" class="colorc6cbe7 svgShape"></polygon><polygon fill="#ffffff" points="393.27 146.47 396.41 144.66 394.7 143.67 389.84 146.47 397.83 151.09 399.55 150.1 393.27 146.47" class="colorfff svgShape"></polygon><polygon fill="url(#E)" style="mix-blend-mode:multiply" points="259.87 433.44 223.38 433.44 237.56 425.25 234.58 423.53 228.28 423.53 231.26 425.25 210.99 436.95 210.77 437.08 210.77 437.08 193.44 447.08 199.74 447.08 217.08 437.08 259.87 437.08 259.87 433.44"></polygon><polygon fill="url(#F)" style="mix-blend-mode:multiply" points="150.23 370.14 113.74 370.14 127.92 361.95 124.94 360.23 118.63 360.23 121.62 361.95 101.35 373.65 101.13 373.77 101.13 373.77 83.8 383.78 90.1 383.78 107.44 373.77 150.23 373.77 150.23 370.14"></polygon><polygon fill="#d12f6a" points="189.78 335.94 176.28 343.73 176.28 333.77 189.78 325.98 189.78 335.94" class="colord18f2f svgShape"></polygon><path fill="#1c246b" d="M184.41,326.94l-.12.07v-1.65l-3.07,1.78v1.64l-.11.07S166.8,340,164.47,343.21v.87L201.05,323v-.86C198.72,321.53,184.41,326.94,184.41,326.94Z" class="color1e1c6b svgShape"></path><path fill="#f24282" d="M195.88,322.46l-6.1,2.44v3.25A14.93,14.93,0,0,1,183,339.84c-3.73,2.15-6.75.41-6.74-3.9v-3.26l-6.1,4.61c-5.06,2.93-9.17,10-9.17,15.89v7.42l9.15-5.28v30.19l25.74-14.86V340.46l9.16-5.29v-7.42C205.06,321.9,201.72,320.3,195.88,322.46Z" class="colorf2bd42 svgShape"></path><polygon fill="#f4dce5" style="mix-blend-mode:multiply" points="170.16 355.32 170.16 346.44 167.7 356.74 170.16 355.32" class="colordce1f4 svgShape"></polygon><polygon fill="#f4dce5" style="mix-blend-mode:multiply" points="195.9 340.46 195.9 331.58 198.37 339.04 195.9 340.46" class="colordce1f4 svgShape"></polygon><polygon fill="#ffffff" points="187.26 346.13 189.95 344.57 189.95 341.47 187.26 343.02 187.26 346.13" class="colorfff svgShape"></polygon><polygon fill="#d62d6a" points="200.17 341.94 186.68 349.73 186.68 339.77 200.17 331.98 200.17 341.94" class="colord6952d svgShape"></polygon><path fill="#1c246b" d="M194.8,332.94l-.11.07v-1.65l-3.07,1.78v1.64l-.12.07S177.19,346,174.86,349.21v.87L211.44,329v-.86C209.12,327.53,194.8,332.94,194.8,332.94Z" class="color1e1c6b svgShape"></path><path fill="#f75c94" d="M206.28,328.46l-6.11,2.44v3.25a14.93,14.93,0,0,1-6.75,11.69c-3.72,2.15-6.74.41-6.74-3.9v-3.26l-6.11,4.62c-5.06,2.92-9.17,10-9.17,15.88v7.42l9.15-5.28v30.19l25.74-14.86V346.46l9.16-5.29v-7.42C215.45,327.9,212.11,326.3,206.28,328.46Z" class="colorf7d25c svgShape"></path><polygon fill="#f4dce5" style="mix-blend-mode:multiply" points="180.55 361.32 180.55 352.44 178.09 362.74 180.55 361.32" class="colordce1f4 svgShape"></polygon><polygon fill="#f4dce5" style="mix-blend-mode:multiply" points="206.29 346.46 206.29 337.58 208.76 345.04 206.29 346.46" class="colordce1f4 svgShape"></polygon><polygon fill="#ffffff" points="197.65 352.13 200.34 350.57 200.34 347.47 197.65 349.02 197.65 352.13" class="colorfff svgShape"></polygon><polygon fill="#dabcc7" points="83.8 383.78 121.62 361.95 121.62 358.31 83.8 380.14 83.8 383.78" class="colorbcbfda svgShape"></polygon><polygon fill="#f9f6f7" points="97.98 368.32 101.13 370.14 83.8 380.14 80.64 378.32 97.98 368.32" class="colorf6f6f9 svgShape"></polygon><polygon fill="#f9f6f7" points="118.46 356.49 121.62 358.31 104.28 368.32 101.13 366.5 118.46 356.49" class="colorf6f6f9 svgShape"></polygon><polygon fill="#f6d0de" points="80.64 378.32 83.8 380.14 83.8 383.78 80.64 381.96 80.64 378.32" class="colord0d4f6 svgShape"></polygon><polygon fill="#e4bdcb" points="193.44 447.08 231.26 425.25 231.26 421.61 193.44 443.45 193.44 447.08" class="colorbdc1e4 svgShape"></polygon><polygon fill="#f9f6f7" points="207.62 431.62 210.77 433.44 193.44 443.45 190.29 441.63 207.62 431.62" class="colorf6f6f9 svgShape"></polygon><polygon fill="#f9f6f7" points="228.11 419.79 231.26 421.61 213.93 431.62 210.77 429.8 228.11 419.79" class="colorf6f6f9 svgShape"></polygon><polygon fill="#f6d0de" points="190.29 441.63 193.44 443.45 193.44 447.08 190.29 445.27 190.29 441.63" class="colord0d4f6 svgShape"></polygon><path fill="#e4bdcb" d="M101.13,282.53v87.61l3.15-1.82V280.71a4.74,4.74,0,0,1,.21-1.47C102.55,278.8,101.13,280.07,101.13,282.53Z" class="colorbdc1e4 svgShape"></path><path fill="url(#G)" d="M206.05,330.36l-97-56c-2.32-1.34-4.4-1.37-5.84-.36h0l-2.77,1.59c1.41-.76,3.34-.63,5.46.6l97,56a17.45,17.45,0,0,1,7.87,13.65v87.61l3.16-1.82V344A17.46,17.46,0,0,0,206.05,330.36Z"></path><polygon fill="#f9f6f7" points="101.13 358.45 207.62 419.94 207.62 416.3 104.28 356.63 101.13 358.45" class="colorf6f6f9 svgShape"></polygon><path fill="#f6d0de" d="M202.9,332.18l-97-56c-4.35-2.51-7.88-.47-7.88,4.55v87.61l3.15,1.82v-8.05l106.49,61.48v8.05l3.15,1.82V345.83A17.45,17.45,0,0,0,202.9,332.18Zm4.72,87.76L101.13,358.45V282.53c0-3,2.12-4.24,4.73-2.73l97,56a10.49,10.49,0,0,1,4.72,8.19Z" class="colord0d4f6 svgShape"></path><path fill="#fd367e" d="M100.09,275.75l.11-.08-.12.07Z" class="colord56374 svgShape"></path><path fill="#1c246b" d="M193.14 332.69h0a.43.43 0 01-.39-.46 3.36 3.36 0 00-1.26-3.08 3.34 3.34 0 01-1.28-2.93 4.61 4.61 0 012.6-3.66 1.84 1.84 0 012 .37.42.42 0 01-.58.62 1 1 0 00-1.14-.2A3.8 3.8 0 00191 326.3a2.53 2.53 0 001 2.25 4.18 4.18 0 011.51 3.74A.43.43 0 01193.14 332.69zM182.75 326.69h0a.43.43 0 01-.39-.46 3.38 3.38 0 00-1.26-3.08 3.35 3.35 0 01-1.29-2.93 4.67 4.67 0 012.61-3.67 1.86 1.86 0 012 .38.43.43 0 010 .6.44.44 0 01-.61 0 1 1 0 00-1.14-.2 3.81 3.81 0 00-2.05 2.95 2.53 2.53 0 001 2.25 4.18 4.18 0 011.51 3.74A.43.43 0 01182.75 326.69z" class="color1e1c6b svgShape"></path><path fill="#63318f" d="M123.74,306.49c-4,2.33-7.31.36-7.31-4.41v-2.41c0,4.77,3.27,5.74,7.31,3.41S131,296,131,291.24v2.4C131,298.41,127.77,304.16,123.74,306.49Z" class="color34318f svgShape"></path><path fill="#1c246b" d="M125.34,293.3l-.11.07v-1.65l-3.07,1.78v1.64l-.12.07s-14.31,11.12-16.63,14.36v.87L142,289.32v-.86C139.66,287.89,125.34,293.3,125.34,293.3Z" class="color1e1c6b svgShape"></path><path fill="#7941aa" d="M135.65 299.73c-1.68-2.29-2.64-5.05-2.64-9.13l-2 .64v2.4c0 4.77-3.27 10.52-7.3 12.85s-7.31.36-7.31-4.41v-2.41l-2 1.62a32.44 32.44 0 01-2.64 12.19s3 9.61 3 14.13l17.83-10.29C132.62 312.82 135.65 299.73 135.65 299.73zM132.65 317.46v-.14l-17.83 10.29v.14c0 5.05-5 26.09-8.35 36.85l17.27-10 17.26-10C137.67 337.75 132.65 322.51 132.65 317.46z" class="color4141aa svgShape"></path><polygon fill="#63318f" points="114.6 326.9 132.88 316.34 132.88 318.32 114.6 328.87 114.6 326.9" class="color34318f svgShape"></polygon><path fill="#1c246b" d="M123.68,293.05h0a.43.43,0,0,1-.39-.46,3.37,3.37,0,0,0-1.26-3.08,3.34,3.34,0,0,1-1.28-2.93,4.61,4.61,0,0,1,2.6-3.66,1.84,1.84,0,0,1,2,.37.42.42,0,1,1-.58.62,1,1,0,0,0-1.14-.2,3.82,3.82,0,0,0-2.06,3,2.53,2.53,0,0,0,1,2.25,4.18,4.18,0,0,1,1.51,3.74A.42.42,0,0,1,123.68,293.05Z" class="color1e1c6b svgShape"></path><polygon fill="#f6d0de" points="135.63 296.99 126.51 291.72 126.51 288.08 135.63 293.35 135.63 296.99" class="colord0d4f6 svgShape"></polygon><polygon fill="#fcf7f9" points="135.63 293.35 126.51 288.08 129.99 286.45 139.11 291.71 135.63 293.35" class="colorf7f7fc svgShape"></polygon><path fill="#7941aa" d="M141.49,316.75c-4,2.33-7.3.35-7.3-4.42v-2.4c0,4.76,3.27,5.74,7.3,3.41s7.31-7.08,7.31-11.85v2.41C148.8,308.66,145.53,314.42,141.49,316.75Z" class="color4141aa svgShape"></path><path fill="#1c246b" d="M143.1,303.56l-.11.06V302l-3.07,1.77v1.65l-.12.06s-14.31,11.12-16.64,14.37v.86l36.58-21.11v-.87C157.42,298.15,143.1,303.56,143.1,303.56Z" class="color1e1c6b svgShape"></path><path fill="#e26ac2" d="M153.41 310c-1.68-2.28-2.64-5.05-2.64-9.13l-2 .64v2.41c0 4.76-3.27 10.52-7.31 12.85s-7.3.35-7.3-4.42v-2.4l-2 1.61a32.4 32.4 0 01-2.64 12.19s3 9.61 3 14.14l17.83-10.3C150.38 323.08 153.41 310 153.41 310zM150.41 327.71v-.14l-17.83 10.3V338c0 5.05-5 26.08-8.35 36.85l17.26-10 17.27-10C155.42 348 150.41 332.76 150.41 327.71z" class="color6a6ae2 svgShape"></path><polygon fill="#63318f" points="132.35 337.15 150.63 326.6 150.63 328.57 132.35 339.12 132.35 337.15" class="color34318f svgShape"></polygon><path fill="#1c246b" d="M141.44,303.3h0a.43.43,0,0,1-.39-.46,3.39,3.39,0,0,0-1.26-3.08,3.31,3.31,0,0,1-1.28-2.93,4.62,4.62,0,0,1,2.6-3.66,1.86,1.86,0,0,1,2,.37.43.43,0,1,1-.59.62,1,1,0,0,0-1.14-.19,3.79,3.79,0,0,0-2.05,2.94,2.51,2.51,0,0,0,1,2.25,4.2,4.2,0,0,1,1.51,3.75A.42.42,0,0,1,141.44,303.3Z" class="color1e1c6b svgShape"></path><polygon fill="#f6d0de" points="153.39 307.24 144.26 301.97 144.26 298.33 153.39 303.6 153.39 307.24" class="colord0d4f6 svgShape"></polygon><polygon fill="#fcf7f9" points="153.39 303.6 144.26 298.33 147.74 296.7 156.87 301.97 153.39 303.6" class="colorf7f7fc svgShape"></polygon><polygon fill="#fcf7f9" points="437.57 179.09 433.5 176.74 474.54 153.05 478.61 155.4 437.57 179.09" class="colorf7f7fc svgShape"></polygon><polygon fill="#e4bdcb" points="437.57 183.6 437.57 179.09 478.61 155.4 478.61 159.91 437.57 183.6" class="colorbdc1e4 svgShape"></polygon><polygon fill="#9155c6" points="628.92 395.41 628.92 289.57 669.96 265.87 669.96 371.72 628.92 395.41" class="color5555c6 svgShape"></polygon><polygon fill="#fcf7f9" points="624.86 291.73 437.57 183.6 478.61 159.91 665.89 268.04 624.86 291.73" class="colorf7f7fc svgShape"></polygon><polygon fill="#fcf7f9" points="628.92 289.57 624.86 287.22 665.89 263.53 669.96 265.87 628.92 289.57" class="colorf7f7fc svgShape"></polygon><polygon fill="#f9f6f7" points="624.86 336.58 437.57 228.45 472.35 208.37 624.86 296.42 624.86 336.58" class="colorf6f6f9 svgShape"></polygon><polygon fill="#9155c6" points="437.57 228.45 472.35 208.37 437.57 188.29 437.57 228.45" class="color5555c6 svgShape"></polygon><polygon fill="url(#H)" style="mix-blend-mode:multiply" points="437.57 228.45 472.35 208.37 507.13 228.45 437.57 228.45"></polygon><polygon fill="#9155c6" points="437.57 284.93 441.48 282.68 437.57 280.42 437.57 284.93" class="color5555c6 svgShape"></polygon><path fill="#f47fd4" d="M624.86,287.22v4.51L437.57,183.6v-4.51l-4.07-2.35V282.59l4.07,2.34v-4.51L624.86,388.55v4.51l4.06,2.35V289.57ZM437.57,188.29,624.86,296.42v40.16L437.57,228.45ZM624.86,383.86,437.57,275.73V233.14L624.86,341.27Z" class="color7f7ff4 svgShape"></path><polygon fill="#e26ac2" points="500 311.77 437.57 275.73 437.57 233.14 500 269.19 500 311.77" class="color6a6ae2 svgShape"></polygon><path fill="url(#I)" style="mix-blend-mode:multiply" d="M467.52,274.35a2.65,2.65,0,1,1,2.65,2.65A2.65,2.65,0,0,1,467.52,274.35Z"></path><circle cx="468.78" cy="272.46" r="2.65" fill="#ffffff" class="colorfff svgShape"></circle><polygon fill="#f47fd4" points="562.43 347.82 500 311.77 500 269.19 562.43 305.23 562.43 347.82" class="color7f7ff4 svgShape"></polygon><path fill="url(#J)" style="mix-blend-mode:multiply" d="M530,310.4a2.65,2.65,0,1,1,2.65,2.65A2.65,2.65,0,0,1,530,310.4Z"></path><path fill="#ffffff" d="M528.56,308.5a2.65,2.65,0,1,1,2.65,2.65A2.65,2.65,0,0,1,528.56,308.5Z" class="colorfff svgShape"></path><polygon fill="#e26ac2" points="624.86 383.86 562.43 347.82 562.43 305.23 624.86 341.27 624.86 383.86" class="color6a6ae2 svgShape"></polygon><path fill="url(#K)" style="mix-blend-mode:multiply" d="M592.38,346.44a2.65,2.65,0,1,1,2.65,2.65A2.65,2.65,0,0,1,592.38,346.44Z"></path><path fill="#ffffff" d="M591,344.54a2.65,2.65,0,1,1,2.65,2.66A2.65,2.65,0,0,1,591,344.54Z" class="colorfff svgShape"></path><polygon fill="url(#L)" style="mix-blend-mode:multiply" points="669.96 366.89 669.96 371.72 628.92 395.41 719.36 395.41 669.96 366.89"></polygon><polygon fill="#e7c6d2" points="437.57 284.93 445.38 284.93 441.48 282.68 437.57 284.93" class="colorc6cbe7 svgShape"></polygon><polygon fill="url(#M)" style="mix-blend-mode:multiply" points="507.61 176.65 487.96 176.65 505.83 186.97 487.96 197.28 507.61 197.28 525.47 186.97 507.61 176.65"></polygon><polygon fill="#9155c6" points="487.96 175.84 470.09 165.53 487.96 155.21 505.83 165.53 487.96 175.84" class="color5555c6 svgShape"></polygon><polygon fill="#f75c94" points="479.59 171.01 478.27 170.25 496.14 159.93 497.46 160.69 479.59 171.01" class="colorf7d25c svgShape"></polygon><polygon fill="#1c246b" points="487.96 197.28 505.83 186.97 505.83 165.53 487.96 175.84 487.96 197.28" class="color1e1c6b svgShape"></polygon><polygon fill="#63318f" points="487.96 197.28 470.09 186.97 470.09 165.53 487.96 175.84 487.96 197.28" class="color34318f svgShape"></polygon><polygon fill="#63318f" points="487.96 185.02 505.83 174.7 505.83 165.53 487.96 175.84 487.96 185.02" class="color34318f svgShape"></polygon><polygon fill="#7941aa" points="487.96 185.02 470.09 174.7 470.09 165.53 487.96 175.84 487.96 185.02" class="color4141aa svgShape"></polygon><polygon fill="#f24282" points="479.59 192.45 478.27 191.69 478.28 170.25 479.59 171.01 479.59 192.45" class="colorf2bd42 svgShape"></polygon><polygon fill="#f75c94" points="496.33 171.01 497.65 170.25 479.78 159.93 478.47 160.69 496.33 171.01" class="colorf7d25c svgShape"></polygon><polygon fill="#d62d6a" points="496.33 192.45 497.65 191.69 497.65 170.25 496.33 171.01 496.33 192.45" class="colord6952d svgShape"></polygon><path fill="#ff6ca1" d="M494.26,154.43a2,2,0,0,0-1.92,0c-1.93,1-3.55,4.89-4.43,8-.7-1.45-1.75-2.79-3.1-3-.84-.15-2.09.08-3.26,2-1.48,2.47-.72,3.84-.13,4.43a4.19,4.19,0,0,0,3,1.05,8.3,8.3,0,0,0,4-1.06c2.68-1.55,7.06-6.64,7-9.53A2.13,2.13,0,0,0,494.26,154.43Zm-11.77,10.43c-.62-.63-.15-1.77.35-2.61.38-.62.94-1.34,1.57-1.34h.14c1,.19,2.17,2.12,2.65,3.93C485.49,165.62,483.28,165.66,482.49,164.86Zm6.71-1.38c.8-3.14,2.41-7,3.82-7.69a.78.78,0,0,1,.32-.09.42.42,0,0,1,.23.07.62.62,0,0,1,.35.63C494,158.11,491.48,161.49,489.2,163.48Z" class="colorffea6c svgShape"></path><path fill="url(#N)" style="mix-blend-mode:multiply" d="M537.24,201.43l-11.35-6.55h-10.5l11.35,6.55ZM511,210.55h10.49l15.8-9.12h-10.5Z"></path><polygon fill="#f75c94" points="515.39 188.82 526.75 195.37 510.95 204.49 499.6 197.94 515.39 188.82" class="colorf7d25c svgShape"></polygon><polygon fill="#f24282" points="499.6 197.94 510.95 204.49 510.95 210.55 499.6 204 499.6 197.94" class="colorf2bd42 svgShape"></polygon><polygon fill="#d62d6a" points="510.95 204.49 526.75 195.37 526.74 201.43 510.95 210.55 510.95 204.49" class="colord6952d svgShape"></polygon><path fill="#fcf7f9" d="M509.66,194.63a7.75,7.75,0,0,1,7,0c1.94,1.12,1.94,2.93,0,4.05a7.75,7.75,0,0,1-7,0C507.72,197.56,507.72,195.75,509.66,194.63Z" class="colorf7f7fc svgShape"></path><path fill="url(#O)" style="mix-blend-mode:multiply" d="M556.67,212.65l-11.35-6.55H534.83l11.35,6.55Zm-26.29,9.12h10.5l15.79-9.12H546.18Z"></path><polygon fill="#f75c94" points="534.83 200.03 546.18 206.59 530.38 215.71 519.03 209.16 534.83 200.03" class="colorf7d25c svgShape"></polygon><polygon fill="#f24282" points="519.03 209.16 530.38 215.71 530.38 221.77 519.03 215.22 519.03 209.16" class="colorf2bd42 svgShape"></polygon><polygon fill="#d62d6a" points="530.38 215.71 546.18 206.59 546.18 212.65 530.38 221.77 530.38 215.71" class="colord6952d svgShape"></polygon><polygon fill="#f47fd4" points="534.8 210.78 527.57 206.6 530.41 204.97 537.63 209.14 534.8 210.78" class="color7f7ff4 svgShape"></polygon><path fill="url(#P)" style="mix-blend-mode:multiply" d="M652.52,268l-11.35-6.56h-10.5L642,268Zm-26.29,9.12h10.49l15.8-9.12H642Z"></path><polygon fill="#f47fd4" points="630.67 255.37 642.02 261.93 626.23 271.05 614.88 264.49 630.67 255.37" class="color7f7ff4 svgShape"></polygon><polygon fill="#9155c6" points="614.88 264.49 626.23 271.05 626.23 277.11 614.88 270.55 614.88 264.49" class="color5555c6 svgShape"></polygon><polygon fill="#63318f" points="626.23 271.05 642.02 261.93 642.02 267.99 626.23 277.11 626.23 271.05" class="color34318f svgShape"></polygon><g clip-path="url(#Q)" fill="#000000" class="color000 svgShape"><path fill="url(#R)" style="mix-blend-mode:multiply" d="M544,256.65,532.6,250.1H522.11l11.35,6.55Zm-26.29,9.12h10.5L544,256.65H533.46Z"></path><polygon fill="#f47fd4" points="522.11 244.04 533.46 250.59 517.66 259.71 506.31 253.16 522.11 244.04" class="color7f7ff4 svgShape"></polygon><polygon fill="#9155c6" points="506.31 253.16 517.66 259.71 517.66 265.77 506.31 259.22 506.31 253.16" class="color5555c6 svgShape"></polygon><polygon fill="#63318f" points="517.66 259.71 533.46 250.59 533.45 256.65 517.66 265.77 517.66 259.71" class="color34318f svgShape"></polygon><polygon fill="url(#S)" style="mix-blend-mode:multiply" points="609.71 277.12 609.71 277.12 609.71 277.12 587.73 264.43 559.41 264.43 581.39 277.12 581.39 277.12 559.41 289.8 587.73 289.8 609.71 277.12 609.71 277.12 609.71 277.12"></polygon><polygon fill="#d62d6a" points="559.41 273.45 581.39 260.77 581.39 277.12 559.41 289.8 559.41 273.45" class="colord6952d svgShape"></polygon><polygon fill="#f75c94" points="559.93 248.37 581.39 260.77 559.41 273.45 537.95 261.06 559.93 248.37" class="colorf7d25c svgShape"></polygon><polygon fill="#f24282" points="537.95 261.06 559.41 273.45 559.41 289.8 537.95 277.41 537.95 261.06" class="colorf2bd42 svgShape"></polygon><polygon fill="#9155c6" points="553.25 279.77 544.11 274.49 544.11 271.09 553.25 276.37 553.25 279.77" class="color5555c6 svgShape"></polygon><polygon fill="url(#T)" style="mix-blend-mode:multiply" points="610.7 282.39 590.52 282.39 606.31 291.5 584.34 304.19 604.51 304.19 626.49 291.5 610.7 282.39"></polygon><polygon fill="#f75c94" points="590.52 270.74 606.31 279.86 584.34 292.55 568.54 283.43 590.52 270.74" class="colorf7d25c svgShape"></polygon><polygon fill="#f24282" points="568.54 283.43 584.34 292.55 584.34 304.19 568.54 295.07 568.54 283.43" class="colorf2bd42 svgShape"></polygon><polygon fill="#d62d6a" points="584.34 292.55 606.31 279.86 606.31 291.5 584.34 304.19 584.34 292.55" class="colord6952d svgShape"></polygon></g><path fill="#1c246b" d="M425.63,237.74c1.84-6.68,11.09-5.35,13,5,1.95,10.64,10.43,10.39,12.56,6.61a10,10,0,0,1-18.08,2.21c-4.26-6.92-.65-15.31-4.93-13.31C425.34,239.6,425.63,237.74,425.63,237.74Z" class="color1e1c6b svgShape"></path><polygon fill="url(#h)" style="mix-blend-mode:multiply" points="476.54 374.75 430.42 374.75 424.77 384.27 476.54 384.27 476.54 374.75"></polygon><path fill="#7941aa" d="M425.53,259.1c1-1,4.2-2.62,11-.57a1.74,1.74,0,0,1-.76,1.41s-6.18,2.64-8.48,2.38S425.53,259.1,425.53,259.1Z" class="color4141aa svgShape"></path><polygon fill="#7941aa" points="424.08 304.77 424.08 306.85 425.89 305.81 424.08 304.77" class="color4141aa svgShape"></polygon><polygon fill="url(#U)" style="mix-blend-mode:multiply" points="469.35 367.11 423.23 367.11 417.58 376.63 469.35 376.63 469.35 367.11"></polygon><path fill="url(#i)" d="M426.28,366.59c2.09.34,2.69,3.7,1.65,5.81a8.06,8.06,0,0,1-2.28,1.41s-6.59,2.7-8.07,2.82-4.77-.44-5-3c.25-1.54,1.55-2,3.15-2.92,2.08-1.23,3.86-3,5.53-3.84C422.6,366.22,426.28,366.59,426.28,366.59Z"></path><path fill="#0e1555" d="M417.63,376c1.52-.12,8.3-2.9,8.3-2.9a8.7,8.7,0,0,0,2.28-1.38,5.8,5.8,0,0,1-.28.73,8.06,8.06,0,0,1-2.28,1.41s-6.59,2.7-8.07,2.82-4.77-.44-5-3c0-.05,0-.1,0-.15C413.28,375.59,416.23,376.06,417.63,376Z" class="color121244 svgShape"></path><path fill="#f6afc9" d="M421.8,364.36c1,.17,4.45,1,4.45,1a4.94,4.94,0,0,0,.17,1.66l.08.14c.62.6,1.28,1.67-.63,2.27-3.71,1.17-6.87-1.32-5.41-2.16C421.44,366.69,421.67,365.15,421.8,364.36Z" class="colorf6d3af svgShape"></path><path fill="#63318f" d="M419.83,367.75c.27-.36.92-1.34,2.05-.53a2.7,2.7,0,0,1,1.31,2.7c-.14.84-2.58.22-2.67.09S419.83,367.75,419.83,367.75Z" class="color34318f svgShape"></path><path fill="#ffffff" d="M418.71 368.81a4.89 4.89 0 012.21 2.15.67.67 0 001.21-.58 6.25 6.25 0 00-2.9-2.8.65.65 0 00-.87.35A.67.67 0 00418.71 368.81zM416.65 370.12a4.89 4.89 0 012.21 2.15.67.67 0 00.89.32.66.66 0 00.32-.89 6.26 6.26 0 00-2.89-2.81.67.67 0 00-.53 1.23z" class="colorfff svgShape"></path><path fill="url(#m)" d="M429.66,306.31,418.59,303s-4.9,22.49-4.75,32h0c.06,5.78,4.62,24.29,7,30.7,1.64,2.7,5,1.11,5.67-.42,0-2.73-.23-22-3.61-27.05C424.94,330.12,431.21,314.81,429.66,306.31Z"></path><path fill="url(#V)" d="M433.48,374.23c2.08.34,2.68,3.7,1.64,5.81a8.06,8.06,0,0,1-2.28,1.41s-6.59,2.7-8.07,2.82-4.77-.44-5-3c.25-1.54,1.55-2,3.15-2.91,2.08-1.24,3.86-3,5.53-3.85C429.79,373.86,433.48,374.23,433.48,374.23Z"></path><path fill="#0e1555" d="M424.82,383.59c1.52-.12,8.3-2.9,8.3-2.9a8.7,8.7,0,0,0,2.28-1.38,5.8,5.8,0,0,1-.28.73,8.06,8.06,0,0,1-2.28,1.41s-6.59,2.7-8.07,2.82-4.77-.44-5-3c0-.05,0-.1,0-.15C420.47,383.23,423.42,383.71,424.82,383.59Z" class="color121244 svgShape"></path><path fill="#f6afc9" d="M429,372a37.87,37.87,0,0,1,4.45,1.66,2,2,0,0,0,.17,1l.08.14c.62.6,1.28,1.68-.63,2.27-3.71,1.17-6.87-1.32-5.41-2.16C428.63,374.34,428.86,372.79,429,372Z" class="colorf6d3af svgShape"></path><path fill="#63318f" d="M427,375.39c.27-.36.92-1.34,2.05-.53a2.7,2.7,0,0,1,1.31,2.7c-.14.84-2.58.22-2.67.09S427,375.39,427,375.39Z" class="color34318f svgShape"></path><path fill="#ffffff" d="M425.9 376.45a4.89 4.89 0 012.21 2.15.68.68 0 00.89.32.67.67 0 00.32-.89 6.28 6.28 0 00-2.9-2.81.67.67 0 00-.52 1.23zM423.84 377.76a5 5 0 012.21 2.15.67.67 0 00.89.32.66.66 0 00.32-.89 6.26 6.26 0 00-2.89-2.81.67.67 0 00-.53 1.23z" class="colorfff svgShape"></path><path fill="url(#W)" d="M428.17,305.91c0,11.39-.12,24.14-.12,34.09,0,11.39,0,23.33.12,32.87-.11,2.92,4.42,3.29,5.82.71,1.21-8.66,3.47-19.24,2.8-28.69,2.88-12.45,7.7-28.46,6.52-38.24C439.71,304.86,430.93,305,428.17,305.91Z"></path><path fill="url(#X)" d="M439.4,290.27c-.51-8.85,5-17.65,4-22.67-2.11-4.06-6.26-8.78-12.87-8.62s-9.72,1.52-11.06,6.08c-1.27,4.29-2.17,5.59-3.22,9.8-.46,1.88,3.3,8.91,3.68,14.93.47,7.29.05,7.54-1.37,13.37a37.88,37.88,0,0,0,24.74,3.49C442.59,300.06,439.66,294.71,439.4,290.27Z"></path><path fill="#f6afc9" d="M432.89,250.93c-.12-2-7.08,2-6.93,4.7.13,2.18.41,4.38-.4,4.66-.95.69,0,2,.87,2.86,2.44-.57,5.75-.77,11.3-2.79C435.58,259.92,433.26,257.52,432.89,250.93Z" class="colorf6d3af svgShape"></path><polygon fill="#ffffff" points="431.9 274.65 429 272.94 430.06 271.4 432.95 273.11 431.9 274.65" class="colorfff svgShape"></polygon><path fill="#f6afc9" d="M434.56,248.11l-2.09-5.24H419.19v8c0,4.42,3,8,6.64,8s6.44-3.37,6.61-7.6l.92,0Z" class="colorf6d3af svgShape"></path><path fill="#eba3bd" d="M431.29,255.34a6.42,6.42,0,0,1-5.19,3.49,1.83,1.83,0,0,1-.41,1.36,4.79,4.79,0,0,0,1.13-.14A6.35,6.35,0,0,0,431.29,255.34Z" class="colorebc5a3 svgShape"></path><path fill="#63318f" d="M426.7,237.3a.48.48,0,0,0-.12,0c-7.25.18-7.79,5.59-7.39,6.49,2.3.82,3.75-.74,5.19-.62.7.06,3.52.44,4.69,1.94s.86,4.19,2.05,4.12c.51,0,.67-1.74,1.44-1.79a1.28,1.28,0,0,1,1.21,1.55c-.1,1.33-1.35,2.14-1.17,2.78.31,1.06,3-.84,2.91-4.62S433,237.05,426.7,237.3Z" class="color34318f svgShape"></path><path fill="#f47fd4" d="M426.43 263.15c1.21-1.21 9.28-3.19 10.07-4.62a7.81 7.81 0 011.62 2.77S433.83 264.12 426.43 263.15zM426.43 263.15c-.46-.46-.7-3.51-.9-4a1.58 1.58 0 00-.77 1.32C425 262 425.17 262.75 426.43 263.15z" class="color7f7ff4 svgShape"></path><polygon fill="url(#Y)" style="mix-blend-mode:multiply" points="426 305.56 360.56 343.34 532.32 451.18 475.52 483.97 536.72 483.97 545.73 478.87 621.41 478.87 621.41 418.38 426 305.56"></polygon><polygon fill="#f6d0de" points="475.52 483.97 280.11 371.15 280.11 286.92 475.52 399.74 475.52 483.97" class="colord0d4f6 svgShape"></polygon><polygon fill="#e4bdcb" points="532.33 451.18 475.52 483.97 475.52 399.74 532.33 366.95 532.33 451.18" class="colorbdc1e4 svgShape"></polygon><polygon fill="#fcf7f9" points="466.89 400.85 271.47 288.02 336.91 250.24 532.33 363.07 466.89 400.85" class="colorf7f7fc svgShape"></polygon><polygon fill="#f2ebee" points="339.45 318.79 286.17 288.02 336.91 258.73 390.19 289.49 339.45 318.79" class="colorebebf2 svgShape"></polygon><polygon fill="#f47fd4" points="466.88 404.73 271.47 291.9 271.47 288.02 466.89 400.85 466.88 404.73" class="color7f7ff4 svgShape"></polygon><polygon fill="#9155c6" points="532.33 366.95 466.88 404.73 466.89 400.85 532.33 363.07 532.33 366.95" class="color5555c6 svgShape"></polygon><path fill="url(#j)" style="mix-blend-mode:multiply" d="M425.5,307.38l-1.57-.91a.68.68,0,0,1,0,1.28l-11,6.36a2.46,2.46,0,0,1-2.21,0l1.54.89-.49.28h1.57a2.31,2.31,0,0,0,1.16-.27l11-6.36A.67.67,0,0,0,425.5,307.38Z"></path><path fill="url(#Z)" d="M383.06,298.22l27.53,15.89a2.46,2.46,0,0,0,2.21,0L424,307.65a.78.78,0,0,0,.45-.6v.87a.78.78,0,0,1-.46.64L412.8,315a2.4,2.4,0,0,1-2.21,0l-27.53-15.89a.73.73,0,0,1-.45-.69v-.85A.79.79,0,0,0,383.06,298.22Z"></path><path fill="#ffffff" d="M394.25,290.48a2.46,2.46,0,0,1,2.21,0L424,306.37a.68.68,0,0,1,0,1.28l-11.18,6.46a2.46,2.46,0,0,1-2.21,0l-27.53-15.89a.68.68,0,0,1,0-1.28Z" class="colorfff svgShape"></path><polygon fill="#fcf7f9" points="411.47 311.76 412.88 312.57 411.47 313.38 410.07 312.57 411.47 311.76" class="colorf7f7fc svgShape"></polygon><polygon fill="#fcf7f9" points="409.11 310.4 410.51 311.2 409.11 312.02 407.71 311.2 409.11 310.4" class="colorf7f7fc svgShape"></polygon><polygon fill="#fcf7f9" points="406.75 309.03 408.15 309.84 406.75 310.65 405.35 309.84 406.75 309.03" class="colorf7f7fc svgShape"></polygon><polygon fill="#fcf7f9" points="404.39 307.67 405.79 308.48 404.39 309.29 402.99 308.48 404.39 307.67" class="colorf7f7fc svgShape"></polygon><polygon fill="#fcf7f9" points="402.03 306.31 403.43 307.12 402.03 307.93 400.63 307.12 402.03 306.31" class="colorf7f7fc svgShape"></polygon><polygon fill="#fcf7f9" points="399.67 304.94 401.07 305.75 399.67 306.56 398.27 305.75 399.67 304.94" class="colorf7f7fc svgShape"></polygon><polygon fill="#fcf7f9" points="397.31 303.58 398.71 304.39 397.31 305.2 395.91 304.39 397.31 303.58" class="colorf7f7fc svgShape"></polygon><polygon fill="#fcf7f9" points="394.95 302.22 396.35 303.03 394.95 303.83 393.55 303.03 394.95 302.22" class="colorf7f7fc svgShape"></polygon><polygon fill="#fcf7f9" points="392.59 300.85 393.99 301.66 392.59 302.47 391.19 301.66 392.59 300.85" class="colorf7f7fc svgShape"></polygon><polygon fill="#fcf7f9" points="390.23 299.49 391.63 300.3 390.23 301.11 388.82 300.3 390.23 299.49" class="colorf7f7fc svgShape"></polygon><polygon fill="#fcf7f9" points="387.87 298.13 389.27 298.94 387.87 299.75 386.46 298.94 387.87 298.13" class="colorf7f7fc svgShape"></polygon><polygon fill="#fcf7f9" points="385.5 296.76 386.91 297.58 385.5 298.38 384.1 297.58 385.5 296.76" class="colorf7f7fc svgShape"></polygon><polygon fill="#fcf7f9" points="412.72 309.75 415.24 311.2 413.84 312.02 411.31 310.56 412.72 309.75" class="colorf7f7fc svgShape"></polygon><polygon fill="#fcf7f9" points="414.02 307.89 417.5 309.9 416.1 310.71 412.62 308.7 414.02 307.89" class="colorf7f7fc svgShape"></polygon><polygon fill="#fcf7f9" points="415.42 305.98 419.86 308.54 418.46 309.35 414.02 306.78 415.42 305.98" class="colorf7f7fc svgShape"></polygon><polygon fill="#fcf7f9" points="420.2 305.43 422.72 306.89 420.82 307.98 418.3 306.53 420.2 305.43" class="colorf7f7fc svgShape"></polygon><polygon fill="#fcf7f9" points="416.72 303.42 419.24 304.88 417.34 305.98 414.82 304.52 416.72 303.42" class="colorf7f7fc svgShape"></polygon><polygon fill="#fcf7f9" points="413.24 301.41 415.76 302.87 413.86 303.96 411.34 302.51 413.24 301.41" class="colorf7f7fc svgShape"></polygon><polygon fill="#fcf7f9" points="401.24 294.49 403.76 295.94 401.86 297.04 399.35 295.58 401.24 294.49" class="colorf7f7fc svgShape"></polygon><polygon fill="#fcf7f9" points="395.35 291.08 400.29 293.94 398.39 295.04 393.45 292.18 395.35 291.08" class="colorf7f7fc svgShape"></polygon><polygon fill="#fcf7f9" points="404.71 296.49 412.28 300.86 410.38 301.95 402.82 297.59 404.71 296.49" class="colorf7f7fc svgShape"></polygon><polygon fill="#fcf7f9" points="409.69 308 411.76 309.2 410.35 310.01 408.29 308.81 409.69 308" class="colorf7f7fc svgShape"></polygon><polygon fill="#fcf7f9" points="411 306.15 413.06 307.34 411.66 308.15 409.6 306.95 411 306.15" class="colorf7f7fc svgShape"></polygon><polygon fill="#fcf7f9" points="412.34 304.26 414.4 305.46 413 306.26 410.93 305.07 412.34 304.26" class="colorf7f7fc svgShape"></polygon><polygon fill="#fcf7f9" points="409.31 302.52 411.38 303.71 409.98 304.52 407.91 303.33 409.31 302.52" class="colorf7f7fc svgShape"></polygon><polygon fill="#fcf7f9" points="406.29 300.78 408.36 301.97 406.95 302.78 404.89 301.59 406.29 300.78" class="colorf7f7fc svgShape"></polygon><polygon fill="#fcf7f9" points="403.27 299.03 405.33 300.22 403.93 301.03 401.87 299.84 403.27 299.03" class="colorf7f7fc svgShape"></polygon><polygon fill="#fcf7f9" points="400.25 297.29 402.31 298.48 400.91 299.29 398.85 298.1 400.25 297.29" class="colorf7f7fc svgShape"></polygon><polygon fill="#fcf7f9" points="397.23 295.54 399.29 296.73 397.89 297.54 395.83 296.35 397.23 295.54" class="colorf7f7fc svgShape"></polygon><polygon fill="#fcf7f9" points="392.42 292.77 396.27 294.99 394.87 295.8 391.02 293.58 392.42 292.77" class="colorf7f7fc svgShape"></polygon><polygon fill="#fcf7f9" points="407.98 304.4 410.04 305.59 408.64 306.4 406.58 305.21 407.98 304.4" class="colorf7f7fc svgShape"></polygon><polygon fill="#fcf7f9" points="404.96 302.66 407.02 303.85 405.62 304.66 403.55 303.47 404.96 302.66" class="colorf7f7fc svgShape"></polygon><polygon fill="#fcf7f9" points="401.93 300.91 404 302.1 402.59 302.91 400.53 301.72 401.93 300.91" class="colorf7f7fc svgShape"></polygon><polygon fill="#fcf7f9" points="398.91 299.17 400.98 300.36 399.57 301.17 397.51 299.98 398.91 299.17" class="colorf7f7fc svgShape"></polygon><polygon fill="#fcf7f9" points="395.89 297.42 397.95 298.61 396.55 299.42 394.49 298.23 395.89 297.42" class="colorf7f7fc svgShape"></polygon><polygon fill="#fcf7f9" points="390.13 294.1 394.93 296.87 393.53 297.68 388.73 294.9 390.13 294.1" class="colorf7f7fc svgShape"></polygon><polygon fill="#fcf7f9" points="406.67 306.26 408.74 307.45 407.33 308.26 405.27 307.07 406.67 306.26" class="colorf7f7fc svgShape"></polygon><polygon fill="#fcf7f9" points="403.65 304.52 405.71 305.71 404.31 306.52 402.25 305.33 403.65 304.52" class="colorf7f7fc svgShape"></polygon><polygon fill="#fcf7f9" points="400.63 302.77 402.69 303.96 401.29 304.77 399.23 303.58 400.63 302.77" class="colorf7f7fc svgShape"></polygon><polygon fill="#fcf7f9" points="397.61 301.03 399.67 302.22 398.27 303.03 396.21 301.84 397.61 301.03" class="colorf7f7fc svgShape"></polygon><polygon fill="#fcf7f9" points="394.59 299.29 396.65 300.47 395.25 301.28 393.19 300.09 394.59 299.29" class="colorf7f7fc svgShape"></polygon><polygon fill="#fcf7f9" points="391.57 297.54 393.63 298.73 392.23 299.54 390.16 298.35 391.57 297.54" class="colorf7f7fc svgShape"></polygon><polygon fill="#fcf7f9" points="387.86 295.4 390.61 296.99 389.2 297.79 386.46 296.21 387.86 295.4" class="colorf7f7fc svgShape"></polygon><path fill="#7941aa" d="M408.79,292c-.39.51.22,1.48,1.11,2.26s2.33,1,2.91.15c.39-.61-.9-1.83-1.54-2.26S409.3,291.28,408.79,292Z" class="color4141aa svgShape"></path><path fill="#f6afc9" d="M409.43,291.81c-1.85,2.33-3.68,1.27-5,2.59A33.61,33.61,0,0,0,402,297c-1.11,1.3-1.52,2-.77,2.6,1.38,1.16,2.87,1,4.53-1.17a10.72,10.72,0,0,1,1.84-.84l-.64.67a2,2,0,0,0-.25.25,3.4,3.4,0,0,0-.68,1.16c-.27.61.29,1.45.89.69.45-.56,1-1.13,1.44-1.66h0a5.1,5.1,0,0,1,1.51-1.15h0l.08,0a2.43,2.43,0,0,0,.74-1.34c.38-.59,1.46-1.37,1.75-2C413.45,291.77,409.43,291.81,409.43,291.81Z" class="colorf6d3af svgShape"></path><path fill="url(#aa)" d="M414.61,281.24A101.74,101.74,0,0,0,408.79,292c1.82-.65,3.69,1,4,2.41.57-.92,3.24-4.82,6.15-9.84-.89-3.2-2.1-6.19-2.56-8.09C415.84,278.1,415.25,279.72,414.61,281.24Z"></path><path fill="url(#ab)" style="mix-blend-mode:multiply" d="M412.49,293.88a3,3,0,0,0-3.06-2.07,1.77,1.77,0,0,1-.17.2l-2.57-1.48h-55c-2.29,0-3.23.54-2.08,1.2L370.81,304a3.54,3.54,0,0,0-1.12.4l-12.09,7a1.27,1.27,0,0,0,0,2.4l22.21,12.83h-.2v1.19H383a4.33,4.33,0,0,0,2.16-.49l12.09-7a1.9,1.9,0,0,0,.69-.65l7.72,4.45a15.5,15.5,0,0,0,6.24,1.2h55Z"></path><path fill="#ffffff" d="M366.47,302.46a4.6,4.6,0,0,1,4.15,0L394.05,316a1.27,1.27,0,0,1,0,2.4l-12.09,7a4.62,4.62,0,0,1-4.16,0l-23.43-13.53a1.27,1.27,0,0,1,0-2.4Z" class="colorfff svgShape"></path><path fill="url(#ac)" d="M354.37,311.84l23.43,13.53a4.62,4.62,0,0,0,4.16,0l12.09-7a1.51,1.51,0,0,0,.86-1.15v1.84a1.48,1.48,0,0,1-.86,1.21l-12.09,7a4.68,4.68,0,0,1-4.16,0l-23.43-13.53a1.43,1.43,0,0,1-.85-1.25v-1.8A1.48,1.48,0,0,0,354.37,311.84Z"></path><path fill="url(#ad)" style="mix-blend-mode:multiply" d="M381.48,308.22h-11a1.54,1.54,0,0,0,.85,1.08l12.82,7.65-2.22,1.28h12.47l2.22-1.28Z"></path><path fill="#e4bdcb" d="M384.13,316.94c-2.61-1.3-2.61-5.58-2.62-7l-1.66,1c0,1.42,0,5.3,2.06,7.32Z" class="colorbdc1e4 svgShape"></path><path fill="#f6d0de" d="M364.74,302.17c0,1.42,0,5.3,2.05,7.33l15.12,8.72c-2.06-2-2.06-5.9-2.06-7.32Z" class="colord0d4f6 svgShape"></path><polygon fill="#e5cfd7" points="366.4 301.21 364.74 302.17 379.85 310.9 381.51 309.94 366.4 301.21" class="colorcfd1e5 svgShape"></polygon><path fill="#f4dce5" style="mix-blend-mode:multiply" d="M381.51,309.94l-1.66,1a20.53,20.53,0,0,0,.17,2.81l1.68-1A18,18,0,0,1,381.51,309.94Z" class="colordce1f4 svgShape"></path><path fill="url(#ae)" d="M346.47,239.07l56,32.35a4.59,4.59,0,0,1,2.08,3.6v37.56l-2.25,1.3V276.32a4.62,4.62,0,0,0-2.08-3.6l-56-32.35a1.58,1.58,0,0,0-1.25-.23l1.81-1A1.31,1.31,0,0,1,346.47,239.07Z"></path><path fill="#fcdbe7" d="M402.33,276.32a4.62,4.62,0,0,0-2.08-3.6l-56-32.35c-1.15-.66-2.08-.12-2.08,1.2v45.15a4.59,4.59,0,0,0,2.08,3.6l56,32.35c1.14.66,2.08.12,2.08-1.2Z" class="colordbe0fc svgShape"></path><path fill="#63318f" d="M402.33,321.47v-7.59l2.25-1.3v7.59a1.44,1.44,0,0,1-.62,1.35l-2.16,1.24A1.52,1.52,0,0,0,402.33,321.47Z" class="color34318f svgShape"></path><polygon fill="#e4bdcb" points="366.49 272.88 377.82 279.42 377.82 292.51 366.48 285.96 366.49 272.88" class="colorbdc1e4 svgShape"></polygon><path fill="#f6afc9" d="M422.44,300.73c-2,2-4.31.5-5.33,1.53-1.84,1.84-3.28,2.55-4.26,3.47-1.2,1.13-.92,1.85-.46,2.17,2,1.39,5,.92,7.16-1.25,2.4.79,4.39-1,5.65-3.12S422.44,300.73,422.44,300.73Z" class="colorf6d3af svgShape"></path><path fill="url(#af)" d="M421.78,300.7c-.42,3.12,3.38,3.38,3.38,3.38,4.19-3.35,10.52-6.53,14.39-12.55,3.55-5.86,4.84-14,3.86-23.93-1.84-4.46-7.67-1.84-7.67,3.34,0,7,.68,11.87-2.17,17.37S423.55,298.93,421.78,300.7Z"></path><polygon fill="url(#ag)" style="mix-blend-mode:multiply" points="449.72 356.21 425.1 356.21 434.22 361.47 423.8 367.49 435.45 367.49 454.91 363.75 458.85 361.47 449.72 356.21"></polygon><polygon fill="#e4bdcb" points="423.8 360.76 423.8 367.49 434.22 361.47 434.22 347.25 430.29 349.53 423.8 360.76" class="colorbdc1e4 svgShape"></polygon><polygon fill="#f6d0de" points="414.67 355.49 423.8 360.76 423.8 367.49 414.67 362.22 414.67 355.49" class="colord0d4f6 svgShape"></polygon><rect width="12.97" height="10.54" x="415.99" y="347.24" fill="#f6f1f3" transform="rotate(-60 422.442 352.508)" class="colorf1f1f6 svgShape"></rect><path fill="#7941aa" d="M417,354.87l6.16,3.56c1.1-1.9,3.69-6.38,4.78-8.28l-6.16-3.56C420.69,348.49,418.1,353,417,354.87Z" class="color4141aa svgShape"></path><polygon fill="#ffffff" points="425.1 341.99 434.22 347.25 430.29 349.53 421.16 344.26 425.1 341.99" class="colorfff svgShape"></polygon><polygon fill="#7941aa" points="427.16 365.55 426.67 365.83 426.67 361.84 427.16 361.55 427.16 365.55" class="color4141aa svgShape"></polygon><polygon fill="#7941aa" points="428.32 364.88 427.82 365.17 427.82 361.17 428.32 360.88 428.32 364.88" class="color4141aa svgShape"></polygon><polygon fill="#7941aa" points="429.47 364.21 428.98 364.5 428.98 360.5 429.47 360.22 429.47 364.21" class="color4141aa svgShape"></polygon><polygon fill="#7941aa" points="430.63 363.55 430.13 363.83 430.13 359.84 430.63 359.55 430.63 363.55" class="color4141aa svgShape"></polygon><path fill="url(#ah)" style="mix-blend-mode:multiply" d="M503,386.81V368.6c-15.77-.13-34.08-.25-47.18-.38,8.27,4.77,23.47,14.3,24.8,14.32l-7.85,4.53Z"></path><path fill="#e26ac2" d="M448,372.75l24.81,14.32c.32-9.78.65-27.21,1-37L449,335.75C448.64,345.53,448.31,363,448,372.75Z" class="color6a6ae2 svgShape"></path><polygon fill="#9155c6" points="479.75 346.62 480.72 382.5 474.81 380.95 474.81 347.22 479.75 346.62" class="color5555c6 svgShape"></polygon><polygon fill="#7941aa" points="472.8 387.07 473.77 350.07 474.81 347.22 474.81 347.22 474.81 380.95 474.81 380.95 472.8 387.07" class="color4141aa svgShape"></polygon><path fill="#f47fd4" d="M454.94,332.3l-1,2.85-4.94.6,24.8,14.32,1-2.85,4.95-.6Zm19.28,14.58-.86,2.39-23-13.28,4.13-.5.86-2.38,23,13.27Z" class="color7f7ff4 svgShape"></path><polygon fill="#e26ac2" points="472.8 387.07 480.72 382.5 474.81 380.95 472.8 387.07" class="color6a6ae2 svgShape"></polygon><polygon fill="#7941aa" points="455.35 333.11 455.35 338.87 473.36 349.27 474.22 346.88 478.35 346.38 455.35 333.11" class="color4141aa svgShape"></polygon><polygon fill="#63318f" points="454.49 335.49 454.49 338.38 455.35 338.87 455.35 333.11 454.49 335.49" class="color34318f svgShape"></polygon><polygon fill="#7941aa" points="454.49 335.49 450.36 335.99 454.49 338.38 454.49 335.49" class="color4141aa svgShape"></polygon><path fill="#fcf7f9" d="M456.13,341.54l-.42.24c-.52.3-.65,1.27-.65,1.8v2.83a10.79,10.79,0,0,0,4.85,8.42,3.3,3.3,0,0,0,5.36-3.1V348.9a2,2,0,0,1,.2-1,.07.07,0,0,1,0,0l.41-.24h0a.49.49,0,1,0-.49-.85h0l-.41.24c-.52.3-.66,1.26-.66,1.79v2.83a2.33,2.33,0,0,1-3.87,2.24,9.66,9.66,0,0,1-4.37-7.56v-2.83a1.91,1.91,0,0,1,.21-1l0,0,.41-.24h0a.49.49,0,0,0-.49-.86Z" class="colorf7f7fc svgShape"></path><path fill="#e4bdcb" d="M471.53 344.35a1 1 0 00-.45-.78c-.24-.14-.44 0-.44.26a1 1 0 00.44.77C471.33 344.75 471.53 344.63 471.53 344.35zM462.31 339a1 1 0 00-.45-.77c-.25-.14-.44 0-.44.26a1 1 0 00.44.77C462.11 339.42 462.31 339.31 462.31 339z" class="colorbdc1e4 svgShape"></path><polygon fill="url(#ai)" style="mix-blend-mode:multiply" points="522.61 492.23 545.73 478.87 579.38 478.87 579.38 492.23 522.61 492.23"></polygon><polygon fill="#fcf7f9" points="499.48 438.86 522.61 425.51 545.73 438.86 522.61 452.22 499.48 438.86" class="colorf7f7fc svgShape"></polygon><polygon fill="#f6d0de" points="522.61 492.23 499.48 478.87 499.48 438.86 522.61 452.22 522.61 492.23" class="colord0d4f6 svgShape"></polygon><polygon fill="#e5cfd7" points="540.44 438.86 522.61 428.56 522.61 432.17 537.32 440.67 540.44 438.86" class="colorcfd1e5 svgShape"></polygon><polygon fill="#e4bdcb" points="522.61 492.23 545.73 478.87 545.73 438.86 522.61 452.22 522.61 492.23" class="colorbdc1e4 svgShape"></polygon><polygon fill="#f47fd4" points="507.89 440.67 522.61 432.17 537.32 440.67 522.61 449.16 507.89 440.67" class="color7f7ff4 svgShape"></polygon><polygon fill="#dabcc7" points="504.77 438.86 522.61 428.56 522.61 432.17 507.89 440.67 504.77 438.86" class="colorbcbfda svgShape"></polygon><polygon fill="url(#aj)" style="mix-blend-mode:multiply" points="535.66 439.71 521.46 439.71 521.46 443.99 531.56 443.99 537.32 440.67 535.66 439.71"></polygon><path fill="#1c246b" d="M521.83,444a8.44,8.44,0,0,0,3.71-.83c.18-.89.67-2.57,1.23-4.52C529,431,532.71,418.2,531,409.51c-1-5-3.58-8.31-5.87-11.23-2.83-3.62-4.7-6-3.18-10.62,2.56-7.75,10.33-33.85,3.18-44.49l-5,3.34c4.2,6.24,1.07,24.22-3.89,39.28-2.52,7.66,1,12.18,4.15,16.17,2.06,2.64,4,5.12,4.7,8.7,1.42,7.26-2.18,19.65-4.11,26.31-.63,2.16-1.13,3.87-1.36,5C519.67,442,519.53,443.87,521.83,444Z" class="color1e1c6b svgShape"></path><path fill="url(#k)" d="M521.67,333.83c-3.66-6-12.76-27.27-5.61-44.17,6.94-16.39,20.61-3.16,12.39,5.63-10.1,10.8-8.5,29.28-3.87,38.25C523.85,336.05,522.72,335.56,521.67,333.83Z"></path><path fill="url(#ak)" d="M523.94,336.37c-3.62,0,1.13-35.85,11.6-39.27s10.54,8.51,5.51,13.19C528.94,321.55,527.57,336.37,523.94,336.37Z"></path><path fill="url(#l)" d="M521.24,337.79c-9.4-8.55-36.75-8.69-33.05-21s26.92,4.56,35.44,18.2C525.17,337.51,525.14,341.33,521.24,337.79Z"></path><path fill="url(#al)" d="M523.11,339.57c-8.05-5.35-14.73,5.63-16.12,17.88s-19.31,17.59-13.34-2.28,20-28,29.8-19.5C528.79,340.28,524.42,340.45,523.11,339.57Z"></path><path fill="url(#am)" d="M522.43,336.41c4.16-5.66,20.38-22.16,38.73-22,17.8.2,10.75,17.87-.51,13.6-13.82-5.24-30.31,3.25-36.85,10.95C521.2,339.27,521.23,338,522.43,336.41Z"></path><path fill="url(#an)" d="M533.54,338c-5.52-1-10.55,4-11.67.62-1-3.15,35.44-20.24,36.58,4.59C559,354.76,541.54,339.46,533.54,338Z"></path><path fill="url(#ao)" d="M516.13,347.83c-.87,9.79,7.16,18.8,16.77,13,5.94-3.56,4.26-14-.32-19.84-2.83-3.65-7.26-5.6-8.61-5.36C519.73,336.44,517.09,337,516.13,347.83Z"></path><polygon fill="url(#ap)" style="mix-blend-mode:multiply" points="508.32 483.97 508.32 444 499.48 438.86 499.48 478.87 508.32 483.97"></polygon><polygon fill="url(#aq)" style="mix-blend-mode:multiply" points="304.12 549.46 258 549.46 252.35 558.97 304.12 558.97 304.12 549.46"></polygon><polygon fill="url(#ar)" style="mix-blend-mode:multiply" points="317.66 536.93 271.54 536.93 265.89 542.98 317.66 542.98 317.66 536.93"></polygon><polygon fill="#d62d6a" points="254.65 509.69 236.11 520.39 234.93 491.21 253.47 480.51 254.65 509.69" class="colord6952d svgShape"></polygon><path fill="url(#as)" style="mix-blend-mode:multiply" d="M249.53,509.09c1.14-3.42,3-7.32,4.63-11.34l-.64-15.89-2.07-.18-7.64,4.41c-2.51,7.57-6.54,21.64-3.63,26.28a30.64,30.64,0,0,0,3.1,3.88l9-5.19A10.94,10.94,0,0,0,249.53,509.09Z"></path><polygon fill="#f24282" points="236.11 520.39 232.01 518.02 233.13 490.18 234.06 490.71 234.93 491.21 236.11 520.39" class="colorf2bd42 svgShape"></polygon><polygon fill="#932b77" points="233.13 490.18 234.93 491.21 251.66 481.55 251.66 479.47 233.13 490.18" class="color9e661d svgShape"></polygon><path fill="#1c246b" d="M240.06,490.62a.22.22,0,0,1-.22-.23v-5.65a9.93,9.93,0,0,1,4.48-7.77,2.88,2.88,0,0,1,4.71,2.72v5.65a.23.23,0,1,1-.45,0v-5.65a2.44,2.44,0,0,0-4-2.33,9.42,9.42,0,0,0-4.26,7.38v5.65A.23.23,0,0,1,240.06,490.62Z" class="color1e1c6b svgShape"></path><polygon fill="#d12f6a" points="251.66 479.47 251.66 481.55 253.47 480.51 251.66 479.47" class="colord18f2f svgShape"></polygon><path fill="#f6afc9" d="M252.46,440.27c.08-5.21-7.16-3-6.33,4.86,1,9.8,1.52,14.46.88,17.91-.89,2.75-2.61,7.07-3.82,11.56-.28.94-1.42,1.76-1.84,3.25a7.88,7.88,0,0,0,.18,3.4c.45,2.12,1.74.86,1.74.86a1,1,0,0,0,1.24.19,1.21,1.21,0,0,0,1.53,0c.59-.51.92,1,1.76-.43s.68-3.9-.14-6.3c0-.05,0-.11,0-.16,1.17-2.75,4.34-9,4.2-9.07C254.52,460.13,251.89,446.92,252.46,440.27Z" class="colorf6d3af svgShape"></path><path fill="url(#at)" d="M269.83,528.1c1.74-1.19,4.5.83,5.19,3.08a8.15,8.15,0,0,1-.68,2.59s-2.92,6.49-3.91,7.6-5,2.69-7,1c-1.39-1.8,1.37-2.88,1.88-4.66.65-2.33.37-4.19,1-5.94C266.9,530.37,269.83,528.1,269.83,528.1Z"></path><path fill="#0e1555" d="M274.86,530.73v0a8.15,8.15,0,0,1-.68,2.59s-2.92,6.49-3.91,7.59-5,2.7-6.95,1a2.17,2.17,0,0,1-.2-.29,1.87,1.87,0,0,0,.35.71c1.94,1.66,6,.07,7-1s3.91-7.6,3.91-7.6a8.15,8.15,0,0,0,.68-2.59C275,531,274.92,530.88,274.86,530.73Z" class="color121244 svgShape"></path><path fill="#f6afc9" d="M265,529.57a36.54,36.54,0,0,1,4.37-1.86,2,2,0,0,0,.79.59l.16.05a1.64,1.64,0,0,1,1.47,2.57c-1.89,3.4-6.25,3.28-5.77,1.67C266.38,531.51,265.49,530.23,265,529.57Z" class="colorf6d3af svgShape"></path><path fill="#63318f" d="M266,533.47c-.14-.54-.29-1.7,1.08-1.89s3.07.46,2.93,1.31C269.72,534.64,266.11,534,266,533.47Z" class="color34318f svgShape"></path><path fill="url(#au)" d="M269.48,527.45c-1.63-2.2-12.24-17-17.94-19,1.91-8,7.27-18.87,5.7-27.48H245.1s-7.2,25.49-2.59,31.57C246,517.19,260.22,528,266,531.75,268.91,532.94,270.47,529.16,269.48,527.45Z"></path><path fill="#ffffff" d="M265.86 535.88a4.52 4.52 0 012.78.18.61.61 0 00.8-.31.6.6 0 00-.31-.79 5.7 5.7 0 00-3.63-.23.6.6 0 10.36 1.15zM265.22 538a4.52 4.52 0 012.78.18.61.61 0 00.8-.31.59.59 0 00-.31-.79 5.63 5.63 0 00-3.63-.23.6.6 0 00-.39.76A.6.6 0 00265.22 538z" class="colorfff svgShape"></path><path fill="url(#av)" d="M261.05,548.94c2.09.34,2.69,3.7,1.65,5.81a8.19,8.19,0,0,1-2.28,1.4s-6.59,2.71-8.07,2.82-4.77-.43-5-3c.25-1.55,1.55-2,3.15-2.92,2.08-1.23,3.86-3,5.53-3.84C257.37,548.57,261.05,548.94,261.05,548.94Z"></path><path fill="#0e1555" d="M252.4,558.3c1.52-.12,8.3-2.9,8.3-2.9A8.84,8.84,0,0,0,263,554a5.4,5.4,0,0,1-.28.74,8.19,8.19,0,0,1-2.28,1.4s-6.59,2.71-8.07,2.82-4.77-.43-5-3c0,0,0-.1,0-.15C248.05,557.94,251,558.41,252.4,558.3Z" class="color121244 svgShape"></path><path fill="#f6afc9" d="M256.57,546.71a36.14,36.14,0,0,1,4.45,1.66,1.93,1.93,0,0,0,.17,1,.64.64,0,0,0,.08.14c.62.61,1.28,1.68-.63,2.28-3.71,1.17-6.87-1.32-5.41-2.16C256.21,549,256.44,547.49,256.57,546.71Z" class="colorf6d3af svgShape"></path><path fill="#63318f" d="M254.6,550.1c.27-.37.92-1.34,2-.54a2.71,2.71,0,0,1,1.31,2.7c-.14.85-2.58.22-2.67.1S254.6,550.1,254.6,550.1Z" class="color34318f svgShape"></path><path fill="#ffffff" d="M253.48 551.15a5 5 0 012.21 2.15.67.67 0 001.21-.57 6.33 6.33 0 00-2.9-2.81.67.67 0 00-.87.36A.65.65 0 00253.48 551.15zM251.42 552.47a4.89 4.89 0 012.21 2.15.67.67 0 00.89.31.66.66 0 00.32-.89 6.28 6.28 0 00-2.89-2.8.66.66 0 00-.88.35A.68.68 0 00251.42 552.47z" class="colorfff svgShape"></path><path fill="url(#aw)" d="M255.75,480.61c0,11.4-.12,24.15-.12,34.1,0,11.38,0,23.32.12,32.86-.11,2.93,4.42,3.3,5.82.71,1.21-8.66,3.47-19.23,2.8-28.68,2.88-12.46,7.7-28.47,6.52-38.24C268.13,482.24,258.51,479.74,255.75,480.61Z"></path><path fill="url(#ax)" d="M267,465c-.51-8.84,5.69-26.54,4.47-27.52-4.12-3.31-6.72-3.93-13.33-3.76s-9.72,1.52-11.06,6.07c-1.27,4.29-2.17,5.6-3.22,9.8-.46,1.89,1,7.63,1.4,13.65.47,7.28.59,13.73-.82,19.56,1,.43,1.58.72,3.66,1.43a61.48,61.48,0,0,1,22.2,13.15c.61-4.13,2-10.07,1.33-16C270.89,474.77,267.24,469.41,267,465Z"></path><polygon fill="#d62d6a" points="283.1 518.13 264.56 528.83 263.38 499.65 281.92 488.95 283.1 518.13" class="colord6952d svgShape"></polygon><polygon fill="#f24282" points="264.56 528.83 260.46 526.46 261.58 498.61 262.51 499.15 263.38 499.65 264.56 528.83" class="colorf2bd42 svgShape"></polygon><polygon fill="#932b77" points="261.58 498.61 263.38 499.65 280.12 489.99 280.12 487.91 261.58 498.61" class="color9e661d svgShape"></polygon><polygon fill="#efdae2" points="281.93 516.99 278.34 519.07 278.3 518.05 281.89 515.98 281.93 516.99" class="colordadfef svgShape"></polygon><polygon fill="#efdae2" points="281.85 514.97 280.16 515.95 280.12 514.93 281.81 513.96 281.85 514.97" class="colordadfef svgShape"></polygon><path fill="#1c246b" d="M268.51,499.06a.23.23,0,0,1-.22-.23v-5.66a9.93,9.93,0,0,1,4.48-7.76,2.88,2.88,0,0,1,4.71,2.72v5.65a.23.23,0,1,1-.45,0v-5.65a2.44,2.44,0,0,0-4-2.33,9.41,9.41,0,0,0-4.26,7.37v5.66A.23.23,0,0,1,268.51,499.06Z" class="color1e1c6b svgShape"></path><polygon fill="#d12f6a" points="280.12 487.91 280.12 489.99 281.92 488.95 280.12 487.91" class="colord18f2f svgShape"></polygon><path fill="#f6afc9" d="M278.42 464.79c-.2-2.56-3.34-21.81-5.87-26.23-1.08-1.88-3.36-2.87-4.57-3.44-2.4.16-4.87 3.44-4.06 7.6s3.29 5.47 3.39 5.53c2.2 4.64 4.12 14.37 5.12 17.73.26 2.3-.65 12.25-.9 15.19-.11 1.56-2.5 3.59-1.75 7.11.45 2.12 1.74.85 1.74.85a1 1 0 001.24.19 1.2 1.2 0 001.53 0c.59-.52.92 1 1.76-.43s.68-3.91-.14-6.3C275.63 476.1 278.77 469.33 278.42 464.79zM260.7 424.84c-.12-2-7.08 2-6.93 4.7.13 2.18.41 4.38-.4 4.66-2 1.46 1.74 3.87 12.26 0C263.47 433.8 261.08 431.43 260.7 424.84z" class="colorf6d3af svgShape"></path><path fill="#f6afc9" d="M262.38,422l-2.1-5.24H247v8c0,4.42,3,8,6.64,8s6.44-3.37,6.61-7.6l.92,0Z" class="colorf6d3af svgShape"></path><path fill="#eba3bd" d="M259.1,429.26a6.44,6.44,0,0,1-5.18,3.49,1.84,1.84,0,0,1-.42,1.35,5.36,5.36,0,0,0,1.13-.13A6.39,6.39,0,0,0,259.1,429.26Z" class="colorebc5a3 svgShape"></path><path fill="#63318f" d="M254.51,411.21h-.12c-7.24.18-7.79,5.6-7.39,6.49,2.3.82,3.75-.73,5.19-.61.7.05,3.53.44,4.69,1.93s.86,4.19,2.05,4.13c.51,0,.67-1.75,1.44-1.8a1.3,1.3,0,0,1,1.21,1.56c-.09,1.33-1.35,2.13-1.17,2.78.31,1.05,3-.85,2.91-4.62S260.76,411,254.51,411.21Z" class="color34318f svgShape"></path><path fill="#63318f" d="M256.3,411.33c8.1,1.87,7.44,8,10.42,10,1.78,1.19,5.75-1.06,8.07,3,2.68,4.63-1.65,6.31,1.18,8.27s5,7.94.29,11.61-10.63.45-10-4.93c.48-3.87-.66-5.87-3.91-4.62-2.44.94-3.37-1-2.28-3.46-5.41.54.27-9.79-7.91-14.05C252.5,415,256.3,411.33,256.3,411.33Z" class="color34318f svgShape"></path><rect style="mix-blend-mode:multiply" width="46.09" height="8.47" x="275.5" y="243.02" fill="url(#ay)"></rect><rect style="mix-blend-mode:multiply" width="46.09" height="8.47" x="296.28" y="230.78" fill="url(#az)"></rect><path fill="url(#n)" d="M301.38,236.65c0-6.66-4.21-6.85-4.21-6.85a17.43,17.43,0,0,1-6-1.54c-3.66-1.52-8.82-.93-5.93,4.39a1.63,1.63,0,0,0,.09.19,2.52,2.52,0,0,0,.94.82l9.22,5.41C296.89,239.87,301.35,238,301.38,236.65Z"></path><path fill="#0e1555" d="M301.36,236.05c-.08,1.37-4.48,3.19-5.87,2.39l-9.22-5.4a9.11,9.11,0,0,1-1.3-.95c.09.18.16.36.27.56a1.63,1.63,0,0,0,.09.19,2.52,2.52,0,0,0,.94.82l9.22,5.41c1.31.75,5.31-.83,5.84-2.16a1.47,1.47,0,0,0,0-.27A5.81,5.81,0,0,0,301.36,236.05Z" class="color121244 svgShape"></path><path fill="#ffffff" d="M299.67,228.93a38.55,38.55,0,0,0-4.91,1,2.07,2.07,0,0,1-.34,1l-.11.13c-.75.52-1.52,1.35.27,2.48a2.48,2.48,0,0,0,3.22-.23,2.94,2.94,0,0,1,1-1.18,2.65,2.65,0,0,1,1-.42s0-.1,0-.1S300.12,228.93,299.67,228.93Z" class="colorfff svgShape"></path><path fill="#1c246b" d="M299.74,163.85l-18.75.34c1.55,12.52,4.67,23.9,6.76,36,2.23,11.79,4.75,20.07,6.95,29.89.81,1.82,4.49,1.13,5.24-.63.58-9,1.25-20-1.42-30.46C299,187.78,300,175.2,299.74,163.85Z" class="color1e1c6b svgShape"></path><path fill="url(#aA)" d="M280.38,248.88c0-6.66-4.22-6.85-4.22-6.85a17.48,17.48,0,0,1-6-1.54c-3.66-1.52-8.82-.93-5.93,4.39a.87.87,0,0,0,.1.19,2.47,2.47,0,0,0,.93.82l9.22,5.41C275.88,252.1,280.34,250.25,280.38,248.88Z"></path><path fill="#0e1555" d="M280.35,248.28c-.08,1.37-4.48,3.19-5.87,2.39l-9.22-5.4a9.11,9.11,0,0,1-1.3-1c.09.18.16.36.27.56a.87.87,0,0,0,.1.19,2.47,2.47,0,0,0,.93.82l9.22,5.41c1.31.75,5.31-.83,5.84-2.16a1.47,1.47,0,0,0,0-.27A3.88,3.88,0,0,0,280.35,248.28Z" class="color121244 svgShape"></path><path fill="#ffffff" d="M278.66,241.15a38.58,38.58,0,0,0-4.91,1,2.07,2.07,0,0,1-.34,1,.64.64,0,0,0-.1.13c-.76.52-1.53,1.35.26,2.47a2.49,2.49,0,0,0,3.23-.23,2.94,2.94,0,0,1,2-1.6s0-.09,0-.09S279.12,241.15,278.66,241.15Z" class="colorfff svgShape"></path><path fill="url(#aB)" d="M286.52,193.64c1.14-5.39,14.27-6.06,13.41-27.23-4.12-.61-24.92,9.15-29,8.54-.51,12.61.7,24.35.78,36.65.28,12,1.42,20.59,2,30.62.5,1.94,4.25,1.86,5.27.25,2.05-8.82,4.51-19.57,3.57-30.3C283.72,206.24,285.18,199.94,286.52,193.64Z"></path><path fill="url(#aC)" d="M290.43,125.3c14.67,9.8,16.42,29.27,8.48,41.63C298.91,166.93,300.62,139.55,290.43,125.3Z"></path><path fill="url(#aD)" d="M291.1,178.41c-8.93,5-18.28,5-21.46-1.13,1.19-11.48,2.3-20.81,0-31.81.68-6.07,1.16-7,.38-10.52.28-1.19,3.93-3.72,6.59-6.15,2.88-2.63,4.82-5.13,6.3-5.43,12.21-2.49,18.15,19.27,17.12,42.47A16.87,16.87,0,0,1,291.1,178.41Z"></path><path fill="#f6afc9" d="M289.68,124.76c-2.65-1.92-3.76-6.64-4.16-9.24A13.09,13.09,0,0,0,285,111c-1.73-5.54-6.75-9.23-11-7.58-8.53,3.31-5.55,7.41-3.82,13,1.6,5.13,5,7.94,9.1,7.32a4.3,4.3,0,0,1-1.18,3.73c3,1.79,7.33,1,9.05.17S290.93,126,289.68,124.76Z" class="colorf6d3af svgShape"></path><path fill="#63318f" d="M269.79,101.5c0-.76,1.28-1.54,6.28-.87l1.29.18c9.35,1.64,9.64,11.9,9,14.8a5.53,5.53,0,0,0,.07,3.24c-3.36.66-4,2.78-6.55,1.43-1.85-1-4.51-2-5.05-2.56a2.65,2.65,0,0,1-.7-1.54c-1.13-4.68-2.61-1.31-2.28-.25-1-.21-1.38-2.11-1.82-4.22h0C261.54,108.06,264.51,103.44,269.79,101.5Z" class="color34318f svgShape"></path><path fill="#f6afc9" d="M270.7,181.52a3,3,0,0,0,4.42.14c1.45-1.52.61-3.2,1.4-3.72,2.17-1.38,2.67-2.69,2.3-4-1.73,1.1-3.51,2.86-5,1.79s-3.48-2.55-3.59-4.07c-2.25.51-2.36,5.39-1.19,7.34A20.89,20.89,0,0,0,270.7,181.52Z" class="colorf6d3af svgShape"></path><path fill="url(#aE)" d="M273.74,177.69c1.11,2.72.33,4.39-2.4,4.7-6.82-3.49-10.78-13.28-10.9-18.65-.19-9,4.16-20.23,9.69-29.06,1.29-1.9,5.43-1.18,7.47,1.51,2.76,3.65,1.58,8.95,0,11.1-4,6.41-8.47,11.17-8.91,16.3C268.31,168.34,270.25,174.6,273.74,177.69Z"></path><polygon fill="url(#o)" style="mix-blend-mode:multiply" points="393.41 436.57 372.11 436.57 372.11 445.04 408.08 445.04 393.41 436.57"></polygon><polygon fill="url(#aF)" style="mix-blend-mode:multiply" points="372.24 424.35 350.9 424.35 350.9 432.81 386.91 432.81 372.24 424.35"></polygon><path fill="url(#p)" d="M346,430.2c0-6.65,4.22-6.84,4.22-6.84a17.41,17.41,0,0,0,6-1.54c3.66-1.52,8.82-.93,5.94,4.38a1.86,1.86,0,0,1-.1.2,2.61,2.61,0,0,1-.94.82l-9.21,5.4C350.52,433.43,346.06,431.57,346,430.2Z"></path><path fill="#0e1555" d="M346.06,429.61c.08,1.36,4.47,3.18,5.87,2.39l9.21-5.41a8.4,8.4,0,0,0,1.3-.94c-.09.18-.16.35-.26.55a1.86,1.86,0,0,1-.1.2,2.61,2.61,0,0,1-.94.82l-9.21,5.4c-1.32.75-5.31-.82-5.84-2.15a1.6,1.6,0,0,1,0-.27A3.85,3.85,0,0,1,346.06,429.61Z" class="color121244 svgShape"></path><path fill="#ffffff" d="M347.74,422.48a38.55,38.55,0,0,1,4.91,1,2.2,2.2,0,0,0,.34,1l.11.13c.75.53,1.52,1.36-.27,2.48a2.48,2.48,0,0,1-3.22-.23,2.94,2.94,0,0,0-1-1.18,2.74,2.74,0,0,0-1-.42.78.78,0,0,0,0-.09S347.29,422.48,347.74,422.48Z" class="colorfff svgShape"></path><path fill="url(#aG)" d="M347.68,357.43l18.74.34c-1.55,12.52-4.67,23.89-6.75,36-2.24,11.78-4.76,20.06-7,29.87-.81,1.83-4.49,1.14-5.24-.62-.58-9-1.25-20,1.43-30.46C348.45,381.35,347.41,368.77,347.68,357.43Z"></path><path fill="url(#aH)" d="M367,442.43c0-6.66,4.22-6.85,4.22-6.85a17.41,17.41,0,0,0,6-1.54c3.66-1.52,8.82-.93,5.94,4.39a1.74,1.74,0,0,1-.1.19,2.52,2.52,0,0,1-.94.82l-9.21,5.41C371.53,445.65,367.06,443.8,367,442.43Z"></path><path fill="#0e1555" d="M367.06,441.83c.08,1.37,4.48,3.19,5.87,2.39l9.21-5.4a8.58,8.58,0,0,0,1.3-.95c-.09.19-.16.36-.26.56a1.74,1.74,0,0,1-.1.19,2.52,2.52,0,0,1-.94.82l-9.21,5.41c-1.31.75-5.31-.83-5.84-2.16a1.47,1.47,0,0,1,0-.27A3.88,3.88,0,0,1,367.06,441.83Z" class="color121244 svgShape"></path><path fill="#ffffff" d="M368.75,434.71a38.69,38.69,0,0,1,4.9,1,2.2,2.2,0,0,0,.34,1,.69.69,0,0,1,.11.13c.76.52,1.52,1.35-.27,2.47a2.48,2.48,0,0,1-3.22-.22,2.94,2.94,0,0,0-1-1.18,2.56,2.56,0,0,0-1-.42.78.78,0,0,0,0-.09S368.29,434.71,368.75,434.71Z" class="colorfff svgShape"></path><path fill="url(#aI)" d="M360.9,387.2c-1.14-5.38-14.28-6.05-13.42-27.21,4.12-.61,24.92,9.14,29,8.54.51,12.6-.71,24.33-.78,36.64-.28,12-1.42,20.57-2,30.61-.49,1.93-4.24,1.85-5.26.24-2.05-8.82-4.51-19.57-3.57-30.28C363.69,399.8,362.23,393.51,360.9,387.2Z"></path><path fill="url(#q)" d="M357,318.89c-14.67,9.8-16.42,29.26-8.49,41.61C348.5,360.5,346.8,333.14,357,318.89Z"></path><path fill="url(#aJ)" d="M356.32,372c8.92,5,18.27,5,21.45-1.13-1.19-11.47-2.31-20.8,0-31.79-.68-6.08-1.16-7-.38-10.53-.27-1.18-3.92-3.72-6.59-6.15-2.87-2.62-4.81-5.12-6.29-5.42-12.21-2.49-18.14,19.26-17.12,42.45A16.86,16.86,0,0,0,356.32,372Z"></path><path fill="#f6afc9" d="M357.73,318.35c2.65-1.92,2.25-3.17,1.86-5.77a12.89,12.89,0,0,1-.8-4.5c0-5.8,3.69-10.81,8.22-10.5,9.12.62,7.5,5.43,7.5,11.23,0,5.37-2.44,9.07-6.51,9.69,0,.88.23,1.39,1.34,2.5-3,1.78-7.33.94-9,.17S356.49,319.63,357.73,318.35Z" class="colorf6d3af svgShape"></path><path fill="#1c246b" d="M360,297.2c1.59-1.53,3.44-.06,4.36-.54l.5-.24h0c1.21-.72.63-1.26,1.75-1.92s2.18.26,2.9,0h0c1.7-.53,3.24-.76,3.91-.13a4.51,4.51,0,0,1,.87,1.15h0c.57,1,2.56-.28,2.43,1.8s-.84,2.59-1.15,5.57c0,.17,0,.34,0,.51s0,.07,0,.1h0a4.73,4.73,0,0,1-1.84,3.42c-.95.95-.92.05-1-.32-.09-.71-.29-1.34-.71-1.31s-1.28.24-1.72,2.11c-.31,1.34.6,1,.51,1.42-1.22,5.49-3.27,5.07-5.6,5.73a7.1,7.1,0,0,1-5.49-.55c-.56-2.1-.78-3.33-1.06-4.32a17.14,17.14,0,0,1,0-6h0C359.31,301.16,358.44,298.7,360,297.2Z" class="color1e1c6b svgShape"></path><path fill="#f6afc9" d="M419.44,324.06c.81-.81,2-3.09,1.35-3.73-1.15-1.15-3.14-4-3.87-3.31-.37.37-.19,1.14-.19,1.14-.48-.64-3-.81-3.15-.48-.37.75.92,1,1.69,1.05a.7.7,0,0,1,.26.57,2.68,2.68,0,0,0-2.67.19c.26.65.94.71,1.75.64.45-.05.66.92.66.92Z" class="colorf6d3af svgShape"></path><polygon fill="#f47fd4" points="420.24 321.51 426.52 315.19 422.3 313.38 416.02 319.69 420.24 321.51" class="color7f7ff4 svgShape"></polygon><path fill="#f6afc9" d="M410.34,323.39a5.4,5.4,0,0,1,4.63-3c1.36-.58,2.44-4.25,3.79-3.87s-.94,3.65-.94,3.65,2.25,3,1.62,3.91c-.79,1.16-3.75,1.94-5.92,1.94S410.34,323.39,410.34,323.39Z" class="colorf6d3af svgShape"></path><path fill="url(#aK)" d="M413.56,326.7s.33-3.33-3.73-3.33c-7,6-24.37,10.08-32.85,4.46-6.51-2.14-10.85,5.44-6,10.29C379.19,344.46,403.1,338.81,413.56,326.7Z"></path></g></svg></g></svg>