<svg id="SvgjsSvg1001" width="288" height="288" xmlns="http://www.w3.org/2000/svg" version="1.1" xmlns:xlink="http://www.w3.org/1999/xlink" xmlns:svgjs="http://svgjs.com/svgjs"><defs id="SvgjsDefs1002"></defs><g id="SvgjsG1008" transform="matrix(1,0,0,1,0,0)"><svg xmlns="http://www.w3.org/2000/svg" enable-background="new 0 0 50 50" viewBox="0 0 50 50" width="288" height="288"><path d="M36.4,12.6l-10.1,8.9L25,1l-1.3,20.5l-10.1-8.9l8.9,10.1L1,24l21.2,1.3c0,0.1,0.1,0.2,0.1,0.3l-8.6,9.8l9.7-8.5
		c0.1,0.1,0.2,0.2,0.4,0.2L25,49l1.4-21.9c0.1-0.1,0.3-0.1,0.4-0.2l9.7,8.5l-8.6-9.8c0-0.1,0.1-0.2,0.1-0.3L49,24l-21.5-1.3
		L36.4,12.6z" fill="#00e1ff" class="color000 svgShape"></path></svg></g></svg>