<svg id="SvgjsSvg1011" width="288" height="288" xmlns="http://www.w3.org/2000/svg" version="1.1" xmlns:xlink="http://www.w3.org/1999/xlink" xmlns:svgjs="http://svgjs.com/svgjs"><defs id="SvgjsDefs1012"></defs><g id="SvgjsG1013" transform="matrix(1,0,0,1,0,0)"><svg xmlns="http://www.w3.org/2000/svg" width="288" height="288" viewBox="0 0 64 64"><circle cx="32" cy="32" r="31.1" fill="#ff1f8a" class="colorE28FAF svgShape"></circle><path fill="#bd00ff" d="M54 10c12.1 12.2 12.1 31.8 0 44-12.2 12.1-31.8 12.1-44 0" class="colorC97396 svgShape"></path><path fill="#00e1ff" d="M58.1 44.2L32 59.5 5.9 44.2l5.5-16.3L32 19.4l20.6 8.5z" class="color52C1DB svgShape"></path><path fill="#00e1ff" d="M11.4 27.9L32 19.4l20.6 8.5 5.5 16.3L32 59.5" class="color02AFCC svgShape"></path><path fill="#00e1ff" d="M56.4 39l1.7 5.2-14.4 8.4" class="color009AAF svgShape"></path><path fill="#ccd6d6" d="M58.1 36.5L32 58.9 5.9 36.5l5.5-16.2L32 11.7l20.6 8.6z" class="colorCCD6D6 svgShape"></path><path fill="#a1b7b6" d="M58.1 36.5L32 58.9 5.9 36.5l5.5-16.2L32 11.7l20.6 8.6z" class="colorA1B7B6 svgShape"></path><path fill="#cad8d8" d="M58.1 26.7L32 61.1 5.9 26.7l5.5-16.3L32 1.9l20.6 8.5z" class="colorCAD8D8 svgShape"></path><path fill="#ebf2f2" d="M11.4 10.4L32 1.9l20.6 8.5 5.5 16.3L32 61.1" class="colorEBF2F2 svgShape"></path><path fill="#dde8e8" d="M32 1.9l20.6 8.5 5.5 16.3L32 61.1" class="colorDDE8E8 svgShape"></path><path fill="#cad8d8" d="M52.6 10.4l5.5 16.3L32 61.1" class="colorCAD8D8 svgShape"></path><path fill="#bacccb" d="M45.8 31.7l12.3-5L32 61.1" class="colorBACCCB svgShape"></path><path fill="#f7f7f7" d="M15.8 13.8L32 6l16.2 7.8L43.7 35 32 44.2 20.3 35z" class="colorF7F7F7 svgShape"></path><path fill="#5e6664" d="M15.8 13.8L32 25.4l16.2-11.6-4.5 40.6L32 63.6l-11.7-9.2z" class="color5E6664 svgShape"></path><path fill="#2f423f" d="M15.8 13.8L32 25.4l16.2-11.6-4.5 40.6L32 63.6" class="color2F423F svgShape"></path><path fill="#dce2e2" d="M15.8 13.8L32 19.6l16.2-5.8-3.4 17.9-12.8.1-12.8-.1z" class="colorDCE2E2 svgShape"></path><path fill="#ededed" d="M32 31.8l-12.8-.1-3.4-17.9 9.9 11.1" class="colorEDEDED svgShape"></path><path fill="#ccd6d6" d="M32 19.6l16.2-5.8-3.4 17.9-12.8.1" class="colorCCD6D6 svgShape"></path><path fill="#b9c6c6" d="M41.9 21l6.3-7.2-3.4 17.9-12.8.1" class="colorB9C6C6 svgShape"></path><path fill="#ededed" d="M23.2 30.8l8.8-1.4 8.8 1.4-2.4 13.3-6.4 3.5-6.4-3.5z" class="colorEDEDED svgShape"></path><path fill="#dce2e2" d="M32 29.4l8.8 1.4-2.4 13.3-6.4 3.5-6.4-3.5" class="colorDCE2E2 svgShape"></path><path fill="#ccd6d6" d="M31.9 43.1l.1-13.7 8.8 1.4-2.4 13.3-6.4 3.5-6.4-3.5z" class="colorCCD6D6 svgShape"></path><path fill="#5e6664" d="M34.6 44h-5.2l-1.3-4h7.8z" class="color5E6664 svgShape"></path><path fill="#2f423f" d="M35.9 40l-1.3 4h-5.2" class="color2F423F svgShape"></path><path fill="#5e6664" d="M27 25.5l-5-1.6V21l5 1.6z" class="color5E6664 svgShape"></path><path fill="#2f423f" d="M27 22.6v2.9l-5-1.6" class="color2F423F svgShape"></path><circle cx="24.3" cy="23.2" r="1.3" fill="#00e1ff" class="color52C1DB svgShape"></circle><path fill="#00e1ff" d="M25.2 22.3c.5.5.5 1.3 0 1.8s-1.3.5-1.8 0" class="color02AFCC svgShape"></path><path fill="#5e6664" d="M37 25.5l5-1.6V21l-5 1.6z" class="color5E6664 svgShape"></path><path fill="#2f423f" d="M37 22.6v2.9l5-1.6" class="color2F423F svgShape"></path><circle cx="39.7" cy="23.2" r="1.3" fill="#00e1ff" class="color52C1DB svgShape"></circle><path fill="#00e1ff" d="M38.8 22.3c-.5.5-.5 1.3 0 1.8s1.3.5 1.8 0" class="color02AFCC svgShape"></path><g fill="#000000" class="color000 svgShape"><path fill="#5e6664" d="M23.9 9H15V.4l4.8 3.9z" class="color5E6664 svgShape"></path><path fill="#2f423f" d="M19.8 4.2L23.9 9H15" class="color2F423F svgShape"></path><path fill="#00e1ff" d="M15 .4l10.3 5L23.9 9z" class="color52C1DB svgShape"></path><path fill="#5e6664" d="M40.1 9H49V.4l-4.8 3.9z" class="color5E6664 svgShape"></path><path fill="#2f423f" d="M44.2 4.2L40.1 9H49" class="color2F423F svgShape"></path><path fill="#00e1ff" d="M49 .4l-10.3 5L40.1 9z" class="color7FD6EA svgShape"></path></g></svg></g></svg>